<svg xmlns="http://www.w3.org/2000/svg" id="Layer_1" width="3in" height="3in" viewBox="0 0 216 216"><path d="M111.2 138.4c-.2 1.1-.4 1.9-.6 2.7a16.2 16.2 0 0 1-2.8 6.1 10.5 10.5 0 0 1-5.1 4.2 18.4 18.4 0 0 1-8.7.7 9.8 9.8 0 0 1-3.4-1.2 9.6 9.6 0 0 1-1.7-1.8 2.1 2.1 0 0 0-.4-.6v.2a1.7 1.7 0 0 1-1.2 2l-2.7 1q-1.5.5-1.8-.9c-.5-1.6-.9-3.2-1.3-4.8s-.6-3.7-1-5.6-.3-2.5-.5-3.7l-.9-6.5c-.2-1.2-.2-2.3-.4-3.5s-.1-.6-.1-.9l-2.2-1c-.4-.2-.9-.5-.8-1s.8-.4 1.2-.4a.9.9 0 0 1 1 .5l.5.6h.2v-1.6c0-1.5-.1-3-.1-4.5a95.8 95.8 0 0 1 .5-10.7 53.8 53.8 0 0 1 2.3-10.4 36.9 36.9 0 0 1 4.8-9.8 23.2 23.2 0 0 1 4.5-4.9 6.9 6.9 0 0 1 4.3-1.6 8.9 8.9 0 0 1 3.5 1.1 8.1 8.1 0 0 1 4.1 5.1 29.7 29.7 0 0 1 .7 11.9 33.5 33.5 0 0 1-5.2 14.2 43.5 43.5 0 0 1-4.5 6.1 18.6 18.6 0 0 1-6.6 5.2l-1.1.5c.3 2.5.4 5 .9 7.7.2-.3.3-.4.3-.6a20.2 20.2 0 0 1 3-5.6 7.4 7.4 0 0 1 2.8-2.1 15 15 0 0 1 8.6-.9l2.8.8a10 10 0 0 1 5.3 4.6 13.5 13.5 0 0 1 1.7 5 3.1 3.1 0 0 0 .3 1.3c.2-.9.3-1.8.5-2.6a13.8 13.8 0 0 1 5.5-9.1 7.5 7.5 0 0 1 5.6-1.7 1.7 1.7 0 0 0 1.2-.2 7.1 7.1 0 0 1 5.3-.7 13.8 13.8 0 0 1 3.4 1.2 6.5 6.5 0 0 1 2.5 2.7l.7 1.5 2.1-2.6 4.2-5.8a1.3 1.3 0 0 1 1.5-.6 10.6 10.6 0 0 1 4.3 1.2 1.8 1.8 0 0 1 1.1 1.7c-.1 1-.1 1.9-.2 2.8a72.3 72.3 0 0 0-1 9.1c0 1.9-.2 3.9-.1 5.8a30.9 30.9 0 0 0 .6 6.7l2.5-2.6a27.6 27.6 0 0 0 4.5-7.1c.7-1.6 1.3-3.2 2-4.9a18 18 0 0 0 1.1-5.7 24 24 0 0 1 1.2-7.5l.6-1.3a1 1 0 0 1 1-.5 9.9 9.9 0 0 1 4.4 1.7.9.9 0 0 1 .5 1.1 37.5 37.5 0 0 0-.9 8.2c0 2-.1 4.1.1 6.1a39.4 39.4 0 0 0 .8 6.8 16.7 16.7 0 0 0 .8 3.2 10.4 10.4 0 0 0 .4 1 6.1 6.1 0 0 0 2.7-1.2 32.8 32.8 0 0 0 8.5-7.7c1-1.3 1.8-2.7 2.7-4a1.6 1.6 0 0 0 .3-.9c.1-1.1-.1-2.3.1-3.4s-.2-2.8.3-4.2.5-4.7.6-7l.3-2-2.7-.4a84.8 84.8 0 0 1-10.1-1.5 13 13 0 0 1-4.3-1.5c-.4-.2-.9-.3-.9-.9a1.1 1.1 0 0 1 1.3-.3l1.4.4 2.2.4 9.3.5h4.3c.1-.1.1-.1.1-.2.4-2.3 1.1-4.6 1.7-7s.9-2.8 1.3-4.2a14.5 14.5 0 0 1 .9-2.2 13.2 13.2 0 0 1 1.2-2 1.8 1.8 0 0 1 2.1-.6 9 9 0 0 1 4 3 2.5 2.5 0 0 1 .6 1.5c-.1 1.3 0 2.7-.1 4.1s-.7 4.5-1 6.8c0 .2-.1.5-.1.9l10.9-.2c3.6-.1 7.2 0 10.8.2a7 7 0 0 1-2.4.9 46.3 46.3 0 0 1-9 1.8l-5.2.5-6 .4c-.1.2-.1.5-.2.7s-.8 3-1.3 4.5a15.8 15.8 0 0 0-.4 3.8v7.6c0 .2.1.3.1.5a4.5 4.5 0 0 0 0 2c.1 1.7.1 3.5.3 5.2s.4 4 1.3 5.8a10 10 0 0 0 .8 1.4c1.5-1 2.4-2.5 3.9-3.5a2.8 2.8 0 0 1-.1 1.6 4.4 4.4 0 0 1-3.1 3.6 12.9 12.9 0 0 1-5.5.8 6.1 6.1 0 0 1-3.3-1.3 5.7 5.7 0 0 1-1.6-2.2c-.6-1.3-1-2.7-1.5-4.1a5.4 5.4 0 0 0-.3-1c-.6.7-1.2 1.3-1.7 2a14.5 14.5 0 0 1-3.4 3.1 15.3 15.3 0 0 1-2.7 1.7 8.4 8.4 0 0 1-5.6 1 16.8 16.8 0 0 1-5.4-1.6 6.7 6.7 0 0 1-3.9-4.6l-1.4 2.3a33.2 33.2 0 0 1-4.4 5.5l-1.4 1.2a2.5 2.5 0 0 1-2.1.8 13 13 0 0 1-4.8-1.1l-2.2-1.3a4.5 4.5 0 0 1-1.8-2.8 33.3 33.3 0 0 1-.9-10c.1-1.7.3-3.5.4-5.2v-.9h-.2l-2.2 2.1-1.3 1.3a1.2 1.2 0 0 0-.4.9 24.8 24.8 0 0 1-.7 6.1 16.4 16.4 0 0 1-2.8 5.8 14.3 14.3 0 0 1-6.3 5.4 8.5 8.5 0 0 1-3.9.7 17.2 17.2 0 0 1-5.9-1.2 8.9 8.9 0 0 1-5.1-5.3 28.7 28.7 0 0 1-1.2-6.1zM97.8 83.3l-1.5.8a16.7 16.7 0 0 0-3.7 3.8 27.3 27.3 0 0 0-3.7 6.4 30.4 30.4 0 0 0-2.1 6l-1.2 6.1c-.2 1.4-.3 2.7-.4 4v2.2c0 2.3 0 4.5.1 6.8s.1 1.9.2 2.9a7.4 7.4 0 0 0 .2 1.2 29.8 29.8 0 0 0 3.9-4.1c1.3-1.8 2.3-3.7 3.4-5.5a50.5 50.5 0 0 0 4.9-12.9 53.2 53.2 0 0 0 1.2-8 28.8 28.8 0 0 0-.5-7.2c-.2-.8-.5-1.6-.8-2.5zm-8.1 57.4a15.2 15.2 0 0 0 .3 2.1 11.7 11.7 0 0 0 2.3 4.6A9.6 9.6 0 0 0 95 150a1.4 1.4 0 0 0 1.5.1 11.8 11.8 0 0 0 4.3-4.3 27.8 27.8 0 0 0 2.8-6.9 15.9 15.9 0 0 0-.6-10.1 7 7 0 0 0-2.7-3.4 3.3 3.3 0 0 0-4 0 9.9 9.9 0 0 0-2.5 2.5 22.3 22.3 0 0 0-2.6 4.8 34.4 34.4 0 0 0-2 7.8zm31.2 7.6a15.2 15.2 0 0 0 4.8-3.5l1.8-2a20 20 0 0 0 3.3-6.1c.1-.3.3-.6.1-.9h-.6a13 13 0 0 1-6.5-.3 9.1 9.1 0 0 1-3.8-1.9 7.4 7.4 0 0 1-1.3-1.2c-.1.2-.2.3-.2.4s-.3 3.1-.3 4.6.2 3.1.3 4.6a13.2 13.2 0 0 0 2.4 6.3zm4.7-23.5l-.7.7a8 8 0 0 0-1.5 2.9 5.7 5.7 0 0 0 .9 5.2 1.1 1.1 0 0 0 1.4.5 11.2 11.2 0 0 0 5.4-2.5 1.8 1.8 0 0 0 .6-1.4 12 12 0 0 0-.7-4.2 17.8 17.8 0 0 0-1.2-2.9c-.3-.6-.5-.6-1.2-.3l-1.3.7.5.7a30 30 0 0 1 2.7 5c.2.3.2.6-.2.7a2.1 2.1 0 0 1-2.7-1.3 4.9 4.9 0 0 0-.4-1.1 10.7 10.7 0 0 0-1.6-2.7zm-97.3-10.7a1 1 0 0 1-1.3-.1l-1.6-1.4a11.7 11.7 0 0 0-4.4-2.9 5.5 5.5 0 0 0-1.7-.5 2.2 2.2 0 0 0-1.9.6 12.4 12.4 0 0 0-4.2 4.3q-1.5 2.4-2.7 4.8c-.6 1.5-1.2 3-1.7 4.6a26.2 26.2 0 0 0-1.2 5.7 22.5 22.5 0 0 0 0 5.8 18.8 18.8 0 0 0 1.7 5.7 10.7 10.7 0 0 0 1.6 2.5 22 22 0 0 0 2 2.3 11 11 0 0 0 7.5 3.3 3.5 3.5 0 0 0 1.7-.6 48.7 48.7 0 0 0 4.7-3.2 25.8 25.8 0 0 0 4.5-5.4l2.2-3.2a42.1 42.1 0 0 0 2.8-4.5l2.9-5.5c.6-1.1 1.1-2.3 1.6-3.4l2.7-5.8c.6-1.4 1.3-2.8 1.9-4.1a1.4 1.4 0 0 0 .2-.6c-.5-.6-1.3-.6-2-.8a13.4 13.4 0 0 0-4.9-.4 9.4 9.4 0 0 0-4.5 1.6 20 20 0 0 0-8.4 10.4l-.5 1.5c0 .1-.1.1-.2.2a4.1 4.1 0 0 1-.9-2.3 7 7 0 0 1 1.6-5.4 19.3 19.3 0 0 1 8.2-6.1 33.1 33.1 0 0 1 5.6-1.7 28.1 28.1 0 0 1 6.5-.4c1 0 1 0 1.3-1l1.5-3.9c.7-1.9 1.3-3.9 2-5.8l2-6.2c.6-1.9 1.3-3.8 2-5.7s1.2-3.5 1.9-5.2 1.5-3.7 2.2-5.6.7-2 1.2-3 1-1.6 1.5-2.4a1 1 0 0 1 1.2-.5 10.6 10.6 0 0 1 1.9.6l2.2 1.3a3.5 3.5 0 0 1 1.8 3.4c0 1.6-.2 3.1-.3 4.7l-.3 4.3-.6 6.1V93c-.1 2.4-.1 4.8-.2 7.3s-.1 3.4-.1 5.1.1 2.1 0 3.2-.1 2.7 0 4 .3 4.4.4 6.6 0 2.3.2 3.4.2 4.2 1.1 6.1 1.4 3.2 2 4.8l1.8 5.5c.9 2.8 1.8 5.7 2.6 8.5a10.7 10.7 0 0 1 .3 2.5 2 2 0 0 1-.6 1.5 12.2 12.2 0 0 1-4.7 3 1.6 1.6 0 0 1-1.9-.5 16.7 16.7 0 0 1-3.3-5.4c-.3-.9-.8-1.7-1.1-2.7l-1.6-4.8c-.4-1.3-.8-2.7-1.1-4a8.3 8.3 0 0 1-.4-1.5c-.3-1.4-.5-2.8-.8-4.1s-.7-3.2-.9-4.8-.3-2.2-.4-3.3a3 3 0 0 0-.5-1.6 24.4 24.4 0 0 0-6-6l-1.1-.8-.6-.3c-.5 1.4-1.1 2.7-1.7 4s-1.7 3.6-2.6 5.4-2.7 5.3-4.2 7.9a52.5 52.5 0 0 1-3.8 5.8c-.8 1-1.6 2.2-2.5 3.2s-3.1 3.4-4.7 5a5.3 5.3 0 0 1-1.5 1.1 30.1 30.1 0 0 1-7.5 3.5 20.5 20.5 0 0 1-7.8 1 13.6 13.6 0 0 1-5.2-1.2 11.8 11.8 0 0 1-3.5-2.3 15.9 15.9 0 0 1-3.7-4.9A18.5 18.5 0 0 1 .4 138a23.8 23.8 0 0 1-.4-4.6A27.1 27.1 0 0 1 2.3 123a43 43 0 0 1 3.2-6 31.4 31.4 0 0 1 3.8-5.2 12.1 12.1 0 0 1 4.1-3 15.1 15.1 0 0 1 3.7-.7 14.6 14.6 0 0 1 5.1.3 6.7 6.7 0 0 1 1.8.7 10.4 10.4 0 0 1 4 3.8zm30-16c-1.9 3.9-3.9 7.8-5.5 11.9l5.2 2.6c-.1-4.8 0-9.6.3-14.5z"/></svg>