<svg xmlns="http://www.w3.org/2000/svg" width="430.1" height="430.1" viewBox="0 0 430.1 430.1"><path d="M227.6 198.3v.5h-.3c0-.1.2-.3.3-.5z"/><path fill="none" d="M227.3 198.8h.3v-.5c-.1.2-.3.4-.3.5zm0 0h.3v-.5c-.1.2-.3.4-.3.5zm0 0h.3v-.5c-.1.2-.3.4-.3.5z"/><path fill="#000" d="M203.3.8h25.2a12.3 12.3 0 0 0 3.2.7c30.2 2.1 58.9 9.9 85.1 24.7 70.5 39.6 108.8 100 113.8 180.7 2.4 38.8-6.2 75.8-24.9 109.9-33.4 60.6-84.3 97.7-152.3 110.8-8.2 1.5-16.6 2.2-24.9 3.4h-25.2a13 13 0 0 0-3.3-.7c-26.4-1.8-51.7-8.1-75.3-19.7-66-32.6-106.4-85-120.5-157.3-1.6-8.2-2.3-16.5-3.4-24.8v-25.2a15.3 15.3 0 0 0 .7-3.6A202.8 202.8 0 0 1 26.1 115C59.5 54.4 110.3 17.3 178.4 4.2 186.6 2.7 195 2 203.3.8zM58.8 311.4h5.4c30 0 59.9.2 89.9-.1a115.1 115.1 0 0 0 24.1-2.3c19.4-4.2 34.3-14.6 40.6-34.3a69.6 69.6 0 0 0-2.2-49.6 30.8 30.8 0 0 0-23-18.9l-5.5-.9c20-7.9 26.9-17.5 27.1-36.8.3-22.3-10-39.1-28.6-47.2-9.2-4-18.9-5-28.7-5-31.8-.2-63.6-.1-95.3-.1l-3.8.3zm213.1-60.9h100.5a11.9 11.9 0 0 0 .5-2.8c-.8-10.5-.5-21.3-2.7-31.6-4.6-22.2-16.9-38.7-39.2-46.3-11.9-4-24.2-4.5-36.5-3.3-21.9 2.1-39.8 11.4-51.5 30.4-12.8 20.7-16.4 43.3-10.7 66.9s21.1 41.4 45.8 48.2c17.9 5 36 4.8 54 .2 13.1-3.3 24.7-9.7 32.2-21.7 5.1-8.1 7.2-17 6.9-26.9h-33.9c-1 8.4-5.1 14.1-12.3 17.3s-17 4.3-25.9 3.1c-17.5-2.3-27.9-14.8-27.2-33.5zM343.1 128h-79.9v23.5h79.9z"/><path fill="#000" d="M103.6 276.6v-52.1h52.2c15.2 0 23.9 8.2 24.7 23.5a56.3 56.3 0 0 1-.1 7.1c-1.3 13.9-8.5 21.2-22.5 21.4-18 .4-36.1.1-54.3.1zm-.1-82.1v-43.2l4.2-.2h49.5c8.6 0 13.4 3.4 15.5 11.6a38.3 38.3 0 0 1-.7 22c-1.9 5.9-6.1 9.4-12.4 9.5-12.2.3-24.3.3-36.5.3zm231.3 29.8h-63.1c1.9-14.8 14.2-32.1 38.5-29.5a27.8 27.8 0 0 1 24.6 29.5z"/></svg>
