<svg xmlns="http://www.w3.org/2000/svg" id="Layer_1" width="3in" height="3in" viewBox="0 0 216 216"><path d="M78.3 114.2l2.3-2.4c2.3-2.3 5-2.4 7.8-1.6a7.8 7.8 0 0 1 3.4 1.7 6.6 6.6 0 0 1 2.3 4c.1.4.1.8.2 1.2l1.1-1.5c.9-1.2 1.7-2.5 2.6-3.6s2.4-2.6 3.6-3.8a2.5 2.5 0 0 1 2.6-.7 13.8 13.8 0 0 1 4.1 1.9 4.7 4.7 0 0 1 1.8 3c.3 1.8.5 3.6.7 5.5s.1 3 .1 4.5.1 2.8.2 4.3v6c.6 1.1.2 2.3.4 3.5s.1 3 .9 4.3l.8 1.7 2.6-3a32.2 32.2 0 0 0 3.4-5.6 46 46 0 0 0 2.5-6.1c.7-2.1 1.5-4.3 2.1-6.5s1.1-4.2 1.6-6.3.4-1.6.5-2.3h-6.3l-3.4.3a2.8 2.8 0 0 1-2.2-.3 3.2 3.2 0 0 1 1.7-.9l5.4-.8c1.5-.2 2.9-.6 4.4-.7s1.3-.7 1.5-1.5.9-4.5 1.5-6.8.9-3.4 1.4-5.1.6-1.5.8-2.3.5-.9 1.1-.9h3.1c.9.1 1.3.7 1.2 1.7l-1.2 7.4c-.3 1.8-.6 3.5-.8 5.3a1.3 1.3 0 0 0-.1.6h9.8l-2.6.8-7.3 1.7c-.2 0-.3.2-.4.4s-.4 2.5-.5 3.8-.6 3.9-.8 5.8a24.4 24.4 0 0 0-.1 2.7 26.6 26.6 0 0 0-.3 2.8c-.1 1-.1 2.1-.1 3.1s-.1 2-.1 3.1l.3 5a27.3 27.3 0 0 0 .5 4 7.6 7.6 0 0 0 2 4 .4.4 0 0 0 .7 0l2.8-2.5c.4-.4.1-.7.1-1.1s-.5-2.7-.6-4.1a15.1 15.1 0 0 1-.2-3c.1-1.1.3-2.2.5-3.3a15.2 15.2 0 0 1 .3-2.1c.4-1.3.8-2.7 1.3-4l1.5-3.3a13.1 13.1 0 0 1 1.7-2.4 11.5 11.5 0 0 1 2.2-2.2 13.5 13.5 0 0 1 2.6-1.5l2.3-.7a5 5 0 0 1 2.7-.1 16.1 16.1 0 0 1 5.9 3.2 5.4 5.4 0 0 1 1.5 4.5c-.2 2.2-.4 4.4-.4 6.7s-.1 4 0 6a17.8 17.8 0 0 0 1 5.5 4.8 4.8 0 0 0 1.4 2.2l2.4-2.9a12.5 12.5 0 0 0 2-4.4 3.9 3.9 0 0 0-.2-2.1 15.1 15.1 0 0 1-.7-4.8c.1-1.5.1-3 .3-4.5a10.9 10.9 0 0 1 .7-2.4 17.3 17.3 0 0 1 1.1-3.2 33.5 33.5 0 0 1 2.1-3.6 34.7 34.7 0 0 1 2.5-2.9 3.9 3.9 0 0 1 3.5-.7 13.4 13.4 0 0 1 5.9 2.8 6.4 6.4 0 0 1 2.2 4.7c0 .4-.3.4-.6.4a1.5 1.5 0 0 1-1.2-1.1l-1.8-3.2c-.2-.5-.6-.5-1-.4a3.1 3.1 0 0 0-2.1 1.6c-.7 1.2-1.5 2.3-2.1 3.5l-1.1 2.7a23.9 23.9 0 0 0-1.1 6.5 38.8 38.8 0 0 0 .4 4.8 7.3 7.3 0 0 0 2.7 4.9l1.5 1.3c.6.7 1.3.6 2.1.2a27.6 27.6 0 0 0 4.9-3.2l3.8-3.1.7-.4a7.4 7.4 0 0 1-1.7 5.3 19.3 19.3 0 0 1-2.8 2.2c-2 1.3-4.2 1.4-6.5 1.4a14.9 14.9 0 0 1-7.4-2.2l-.5-.3-.5-.3-1.2 2a6.2 6.2 0 0 1-2.5 2.3 11 11 0 0 1-4.8.7l-2.3-.4a4.9 4.9 0 0 1-3.3-3.4c-.2-.6-.4-1.2-.6-2a7.7 7.7 0 0 1-1 1.8 16.6 16.6 0 0 1-2.5 3.4 5.9 5.9 0 0 1-3.2 1.7 14.4 14.4 0 0 1-6.2-.1c-1-.3-1.8-.9-2.6-1.2s-2.2 1.6-3.4 2.3a11.1 11.1 0 0 1-4.3 1.5 5 5 0 0 1-4.9-2.2 11.4 11.4 0 0 1-1.5-2.3 35.7 35.7 0 0 1-1-3.5c-.2-1.2-.4-2.4-.5-3.6a7.6 7.6 0 0 1-.1-1.5 52.7 52.7 0 0 1-3.1 4.6 11.6 11.6 0 0 1-3.6 3.7c-3.3 1.9-6.8 3-10.6 2.2a4 4 0 0 1-2.5-1.9 10.5 10.5 0 0 1-1.8-4.2c-.3-1.1-.5-2.2-.8-3.3a4 4 0 0 1 0-1.1c.1-1.1 0-2.3.1-3.4s.5-3 .7-4.5a14.8 14.8 0 0 0 .1-2.1c.2-1.6.3-3.1.5-4.7l.3-3.3c.1-1.3.3-2.7.3-4.1a18.5 18.5 0 0 0-1.4 1.4 19.6 19.6 0 0 0-4.9 6.5 53.1 53.1 0 0 0-2.3 5.5 15.8 15.8 0 0 0-.4 3.8c-.2 1.6-.3 3.2-.5 4.8s-.2 2.2-.4 3.4-.5 2.6-.6 3.9-.8 1.8-1.8 2.1l-2.7.7c-1.7.3-1.8-.3-2-1.4a20.3 20.3 0 0 1-.6-4.2 36.7 36.7 0 0 1 .1-7.4c.2-1.4.2-2.8.3-4.2l.6-3.9.3-4.3a13.6 13.6 0 0 0 .2-2 18.4 18.4 0 0 0-.3-5.2c0-.1-.1-.2-.1-.3a11.4 11.4 0 0 0-3.2 2.6l-2 2.5a.7.7 0 0 0-.1.9 20.2 20.2 0 0 1 .8 5.4 23.6 23.6 0 0 1-.2 3.8 35.9 35.9 0 0 1-.8 3.5 20.3 20.3 0 0 1-4 7 50.8 50.8 0 0 1-4.6 5.6 18.3 18.3 0 0 1-10.7 5.4 11.7 11.7 0 0 1-5.6-.3 3.7 3.7 0 0 1-1.8-1.1 11.9 11.9 0 0 1-3.2-4.8 27.8 27.8 0 0 1-1.2-3.8 29.9 29.9 0 0 1-.4-4.1 29.5 29.5 0 0 1-.1-4.2c0-1 .3-2 .4-3a13.2 13.2 0 0 1 1.3-4.9 16.7 16.7 0 0 1 2.8-4.6c.6-.6 1.1-1.3 1.8-1.9l2.5-1.9a9.3 9.3 0 0 1 5.7-1.4 7 7 0 0 0 1.7-.6 12 12 0 0 1 5.9-.8 14.8 14.8 0 0 1 5.8 1.6zm-19.7 12.7c0 .7-.2 1.4-.2 2s-.1 3.2 0 4.7.3 2.8.5 4.1a12.7 12.7 0 0 0 .6 2.8 23.4 23.4 0 0 0 .9 2.4 6.8 6.8 0 0 0 2.5 3.3 1.2 1.2 0 0 0 1.7.1l2.6-2a39 39 0 0 0 5.1-6.3 23.6 23.6 0 0 0 3.1-6.9 34 34 0 0 0 .8-5.3 16.1 16.1 0 0 0 0-2.2l-1.7 1.4a15.2 15.2 0 0 1-8.8 3.8c-2.5.2-5 .3-7.1-1.9zm87.3 17l.3.2 1.8-2.1a25.3 25.3 0 0 0 4.7-7.7c.8-2 1.4-4 2-6s.3-2.4.6-3.6.2-2.6 1.1-3.6v-.2a16 16 0 0 0-1-2.3c0-.1-.4-.2-.5-.1l-2.8 1.6a11.7 11.7 0 0 0-2.9 3.4c-.3.6-.7 1.1-1 1.6a24.9 24.9 0 0 0-2 5.8c-.3 1.7-.6 3.4-.8 5.1s0 2.1-.1 3.2a25.2 25.2 0 0 0 .6 4.7zm-78.6-27.4a13.2 13.2 0 0 0-2.5 3.8 5.8 5.8 0 0 0 .8 6.2c.2.3.5.6.9.3s2.9-2 4.2-3.2 2.6-2.7 3.9-4.1.6-.8.5-1.1a9.6 9.6 0 0 0-2.3-4.2c-.3-.2-.7-.5-1-.4a9.4 9.4 0 0 0-2.3 1c-.2 0-.2.3-.2.5a22.5 22.5 0 0 1 0 2.6c0 .4-.1.8-.7.8s-.8-.3-.9-.8a10.3 10.3 0 0 0-.4-1.4zm-27.8-4.2l2.8-2a10.5 10.5 0 0 0 4.7-6.4 10.4 10.4 0 0 0 .8-2.5 34 34 0 0 0 .6-4.6c.1-1 0-2.1 0-3.2a13.1 13.1 0 0 0-1.2-4.8 32.9 32.9 0 0 0-2.1-4.2 11 11 0 0 0-2-2.3l-2.2-1.9a4.2 4.2 0 0 0-3.9-.9 18.8 18.8 0 0 0-5 1.8 30.7 30.7 0 0 0-3.9 2.3 22.2 22.2 0 0 0-3.3 2.8c-1.2 1.2-2.2 2.5-3.3 3.8l-.7.8a22.2 22.2 0 0 0-1.9 2.7c-.8 1.2-1.4 2.6-2.2 3.8a34.8 34.8 0 0 0-2.2 4.3c-.6 1.3-1 2.8-1.5 4.1s-.5 1.4-.6 2-.7 2.5-1 3.8a22 22 0 0 0-.6 3.7 35.5 35.5 0 0 0-.6 4.7c-.1 1 0 2-.1 3v3.6a10.9 10.9 0 0 0 .1 1.8c.2 1.7.4 3.5.7 5.2a9.8 9.8 0 0 0 .8 2.8 14.8 14.8 0 0 0 1.2 2.9c.7 1.2 1.4 2.4 2.2 3.5a14.2 14.2 0 0 0 2.4 2.5 8.9 8.9 0 0 0 3.5 2.1l3.1.9c2.1.3 4.2.6 6.3-.6a67.2 67.2 0 0 0 10.4-7.3c2.1-1.6 4-3.4 6.1-5.1l.6-.6h.1l-1.3 2.2a32 32 0 0 1-6 6.7 37.4 37.4 0 0 1-9 5.8 50.8 50.8 0 0 1-7.5 2.5 28.3 28.3 0 0 1-4.2.6 12.9 12.9 0 0 1-4.8-.4 14.6 14.6 0 0 1-3.7-1.2 12.7 12.7 0 0 1-4.2-3.5 19.4 19.4 0 0 1-2.1-2.9 31.4 31.4 0 0 1-1.8-3.1c-.1-.2-.1-.5-.2-.7l-1.2-3-.6-2.6c-.1-1.1-.3-2.2-.5-3.3s-.3-2.7-.4-4.1-.1-3-.1-4.5 0-2.4.1-3.7.4-3.4.6-5.1.2-2.1.4-3.1a13.4 13.4 0 0 1 .7-2.7 11.6 11.6 0 0 1 .4-1.8 22.5 22.5 0 0 1 .8-2.4c.4-1.1.8-2.3 1.3-3.4A29.6 29.6 0 0 1 5.8 98a25.1 25.1 0 0 1 2.6-4.5c.7-1 1.3-2.1 2-3l2.1-2.7 1.5-1.9a13.4 13.4 0 0 1 2.1-2l4.3-3.4a11.5 11.5 0 0 1 2.7-1.4l3.1-1.4a18.9 18.9 0 0 1 6.7-1.1 58.1 58.1 0 0 1 7.2.5 27.8 27.8 0 0 1 6.8 2 19 19 0 0 1 5.4 3.4A9.4 9.4 0 0 1 55 86c.2.5.6.9.8 1.5l1.2 3.1a13.7 13.7 0 0 1 .3 5.7 33.8 33.8 0 0 1-.8 3.4 11.1 11.1 0 0 1-1.9 4.3 38.8 38.8 0 0 1-2.6 3.1c-1.7 1.8-3.9 2.5-6.1 3.4s-3 1.2-4.4 1.8a2.3 2.3 0 0 1-2 0zm153.9 1.6l-6.9 1a4.5 4.5 0 0 1-3.2-.4l-.8-.6a16.3 16.3 0 0 1 2.5-1c2.4-.7 4.9-1.2 7.3-1.8l1.3-.3a.8.8 0 0 0 .4-.6l1.8-7.7.6-2.4a.9.9 0 0 1 1.1-.6l2.2.9a1.8 1.8 0 0 1 .9 1.3 20.7 20.7 0 0 1 .5 5 27.2 27.2 0 0 0-.1 2.8l10.5-.3v.3h-.4l-8.9 2.8a4.2 4.2 0 0 0-1.2.3c-.2.2-.1.8-.1 1.1-.1 1.8-.2 3.5-.2 5.2s-.2 3.7-.2 5.6.3 3.4.5 5.1a29.1 29.1 0 0 0 1.5 5.8 26 26 0 0 0 1 2.5l.5.7a19.4 19.4 0 0 0 4.1-2.7 44.5 44.5 0 0 1 6.1-5.4l1.2-.9.6-.3c0 2.6-.5 4.8-2.5 6.4l-2.8 2.4a14.5 14.5 0 0 1-11 2.8 6.5 6.5 0 0 1-2.7-1.5 7.4 7.4 0 0 1-2.6-4.7c-.2-.8-.5-1.5-.7-2.3a9.9 9.9 0 0 1-.2-1.7c-.2-1-.3-2-.4-3s-.1-1.5-.2-2.3a3.4 3.4 0 0 1 0-1c0-2.1 0-4.3.1-6.4s.3-2.6.4-4.1z"/></svg>