<svg xmlns="http://www.w3.org/2000/svg" width="430.1" height="430.1" viewBox="0 0 430.1 430.1"><path fill="#fff" d="M401.3 107.9q28.8 49.5 28.8 108 0 70.4-41 126.4t-106 77.7c-5 1-8.7.3-11.1-1.9a11.5 11.5 0 0 1-3.5-8.4v-59.1c0-18.1-4.8-31.4-14.5-39.8a195.7 195.7 0 0 0 28.7-5 117.6 117.6 0 0 0 26.3-10.9 78.9 78.9 0 0 0 22.7-18.7c6.1-7.3 11-17.1 14.8-29.4s5.8-26.2 5.8-42.1q0-33.9-22.2-57.7c7-17 6.2-36-2.2-57.1-5.2-1.7-12.8-.7-22.7 3.1a143.3 143.3 0 0 0-25.7 12.3l-10.7 6.7a201.5 201.5 0 0 0-107.5 0c-3-2.1-7-4.6-11.9-7.6s-12.8-6.5-23.4-10.7-18.7-5.5-24.1-3.8Q89.6 121.6 100 147q-22.2 23.9-22.2 57.7c0 15.8 2 29.8 5.8 42s8.7 21.9 14.7 29.4a75.5 75.5 0 0 0 22.5 18.8 119.5 119.5 0 0 0 26.3 10.9 195.7 195.7 0 0 0 28.7 5c-7.4 6.7-12 16.3-13.7 28.9a62.1 62.1 0 0 1-12.6 4.2 81.7 81.7 0 0 1-15.9 1.4c-6.2 0-12.3-2-18.4-6.1s-11.2-9.8-15.5-17.5a46.1 46.1 0 0 0-13.6-14.5c-5.5-3.7-10.1-6-13.9-6.7l-5.6-.9c-3.9 0-6.6.4-8.1 1.3s-1.9 1.9-1.4 3.2a17 17 0 0 0 2.5 3.9 23.3 23.3 0 0 0 3.7 3.4l1.9 1.4c4.1 1.9 8.2 5.4 12.2 10.6a66.8 66.8 0 0 1 8.8 14.3l2.8 6.4a36.3 36.3 0 0 0 12.4 17.3 42.7 42.7 0 0 0 18.7 8.4 121.3 121.3 0 0 0 19.5 1.9 86.6 86.6 0 0 0 15.5-.9l6.5-1.2c0 8.3 0 16.6.1 24.9s.1 14.6.1 15.2a11.2 11.2 0 0 1-3.6 8.4c-2.4 2.2-6.2 2.9-11.2 1.9q-64.9-21.6-106-77.7T0 215.9q0-58.5 28.8-108a215.1 215.1 0 0 1 78.3-78.2C140.1 10.5 176 .8 215.1.8S290 10.4 323 29.7a215.1 215.1 0 0 1 78.3 78.2z"/><path d="M227.6 198.3v.5h-.3c0-.1.2-.3.3-.5z"/></svg>
