<svg xmlns="http://www.w3.org/2000/svg" width="49.7" height="49.7" viewBox="0 0 49.7 49.7"><path fill="#4d4d4f" d="M24.8 29.8a5 5 0 0 0 5-5 5.5 5.5 0 0 0-.9-2.9 5.1 5.1 0 0 0-8.1 0 4.8 4.8 0 0 0-.9 2.9 4.9 4.9 0 0 0 4.9 5zm10.9-11.1V14h-4.8v4.8l4.8-.1z"/><path fill="#4d4d4f" d="M24.8 0a24.9 24.9 0 1 0 24.9 24.8A24.8 24.8 0 0 0 24.8 0zm14.1 21.9v11.6a5.4 5.4 0 0 1-5.4 5.4H16.2a5.5 5.5 0 0 1-5.5-5.4V16.2a5.5 5.5 0 0 1 5.5-5.5h17.3a5.5 5.5 0 0 1 5.4 5.5z"/><path fill="#4d4d4f" d="M32.5 24.8a7.7 7.7 0 0 1-15.4 0 7.2 7.2 0 0 1 .6-2.9h-4.2v11.6a2.7 2.7 0 0 0 2.7 2.7h17.3a2.7 2.7 0 0 0 2.7-2.7V21.9H32a9.3 9.3 0 0 1 .5 2.9z"/></svg>