<svg xmlns="http://www.w3.org/2000/svg" width="430.1" height="430.1" viewBox="0 0 430.1 430.1"><path fill="#a8454a" d="M381 78.2a222.2 222.2 0 0 0-29.1-29.1 215.3 215.3 0 0 0-273.7 0 222.2 222.2 0 0 0-29.1 29.1 215.3 215.3 0 0 0 0 273.7A222.2 222.2 0 0 0 78.2 381a215.3 215.3 0 0 0 273.7 0l29.1-29.1a215.3 215.3 0 0 0 0-273.7zM149.7 326.9H99.6V177.1h50.1zm-25-170.3h-.4c-16.8 0-27.7-11.5-27.7-25.9s11.2-25.9 28.4-25.9 27.7 11.2 28 25.9-10.9 25.9-28.3 25.9zm205.8 170.3h-50.1v-80.1c0-20.2-7.3-33.9-25.4-33.9-13.9 0-22.1 9.2-25.7 18.2-1.4 3.2-1.7 7.7-1.7 12.1v83.7h-50.1s.6-135.8 0-149.8h50.1v21.2c6.6-10.2 18.5-24.7 45.2-24.7 33 0 57.7 21.4 57.7 67.4z"/><path d="M227.6 198.3v.5h-.3c0-.1.2-.3.3-.5z"/><path fill="none" d="M227.3 198.8h.3v-.5c-.1.2-.3.4-.3.5zm0 0h.3v-.5c-.1.2-.3.4-.3.5zm0 0h.3v-.5c-.1.2-.3.4-.3.5z"/></svg>
