<svg xmlns="http://www.w3.org/2000/svg" width="32" height="32" viewBox="0 0 32 32"><path d="M16 23.1a4.3 4.3 0 0 0 2.3-1.4 5.7 5.7 0 0 0 1.1-2.5 14.1 14.1 0 0 0-.1-5.4 13.1 13.1 0 0 0-.6-2.7l-.4-1.3c-.1-.5-.3-.9-.4-1.3S16.5 5 15.8 3.3h.4c-.7 1.7-1.5 3.4-2.1 5.2s-.3.8-.4 1.3l-.4 1.3a13.1 13.1 0 0 0-.6 2.7 14.1 14.1 0 0 0-.1 5.4 5.7 5.7 0 0 0 1.1 2.5 4.3 4.3 0 0 0 2.3 1.4zm0 0a4.4 4.4 0 0 1-2.5-1.3 5.3 5.3 0 0 1-1.4-2.4 13.7 13.7 0 0 1 0-5.7 26.8 26.8 0 0 1 .7-2.7l.4-1.4.4-1.3a47.7 47.7 0 0 1 2.2-5.2l.2-.5.2.5a47.7 47.7 0 0 1 2.2 5.2l.4 1.3.4 1.4a26.8 26.8 0 0 1 .7 2.7 13.7 13.7 0 0 1 0 5.7 5.3 5.3 0 0 1-1.4 2.4 4.4 4.4 0 0 1-2.5 1.3zM4.2 31.5c.2-.6.2-1.3.4-2.1l.6-2.1a9.8 9.8 0 0 1 2.5-3.5 6.2 6.2 0 0 1 4.1-1.6 8.8 8.8 0 0 1 4.2 1.1h.2v.2a7.5 7.5 0 0 1-2 3.3 6.3 6.3 0 0 1-3.4 1.6 14.2 14.2 0 0 0-3.5 1.1 10 10 0 0 0-3.1 2zm0 0a11.3 11.3 0 0 1 2.9-2.4 15 15 0 0 1 3.6-1.1 5.7 5.7 0 0 0 3.1-1.5 7.3 7.3 0 0 0 1.9-3v.2a9.1 9.1 0 0 0-4-1A6.1 6.1 0 0 0 8 24.2a8.8 8.8 0 0 0-2.4 3.3c-.2.7-.6 1.3-.8 2s-.4 1.3-.6 2z"/><path d="M27.8 31.4c-.2-.7-.5-1.4-.7-2s-.6-1.3-.8-1.9a9.2 9.2 0 0 0-2.4-3.4 5.5 5.5 0 0 0-3.7-1.4 7 7 0 0 0-4 1v-.3a7.1 7.1 0 0 0 1.8 3 6.3 6.3 0 0 0 3.2 1.5 11.8 11.8 0 0 1 3.6 1.2 10.9 10.9 0 0 1 3 2.3zm0 0a12.3 12.3 0 0 0-3.1-1.9 10.8 10.8 0 0 0-3.5-1 6.9 6.9 0 0 1-3.4-1.7 7 7 0 0 1-2-3.3v-.2h.1a9.5 9.5 0 0 1 4.3-1.1 7 7 0 0 1 4.1 1.6 12.4 12.4 0 0 1 2.5 3.5l.6 2.1c.2.7.2 1.4.4 2z"/><path d="M0 24.7a17.5 17.5 0 0 1 2.9-4.2A13.7 13.7 0 0 1 5 19a8.1 8.1 0 0 1 2.5-.8 7.3 7.3 0 0 1 5 1.4 11.6 11.6 0 0 1 3.7 3.6 8 8 0 0 1-3.5 2.8 6.6 6.6 0 0 1-4.4 0 27.7 27.7 0 0 0-4.1-1 11.8 11.8 0 0 0-4.2-.3zm0 0a12.5 12.5 0 0 1 4.3-.2 18.6 18.6 0 0 1 4.2 1.2 7.2 7.2 0 0 0 4.1 0 7.8 7.8 0 0 0 3.2-2.5v.3a13.3 13.3 0 0 0-3.6-3.5 7.1 7.1 0 0 0-4.6-1.3 8.1 8.1 0 0 0-4.3 2.2A20 20 0 0 0 0 24.7z"/><path d="M32 24.7a20 20 0 0 0-3.3-3.8 8.1 8.1 0 0 0-4.3-2.2 7.1 7.1 0 0 0-4.6 1.3 13.3 13.3 0 0 0-3.6 3.5v-.3a7.8 7.8 0 0 0 3.2 2.5 7.2 7.2 0 0 0 4.1 0 18.6 18.6 0 0 1 4.2-1.2 12.5 12.5 0 0 1 4.3.2zm0 0a11.8 11.8 0 0 0-4.2.3 27.7 27.7 0 0 0-4.1 1.2 6.6 6.6 0 0 1-4.4 0 8 8 0 0 1-3.5-2.8 11.6 11.6 0 0 1 3.7-3.6 7.3 7.3 0 0 1 5-1.4 8.1 8.1 0 0 1 2.5.6 13.7 13.7 0 0 1 2.1 1.5 17.5 17.5 0 0 1 2.9 4.2zm-16.2-1.3a19 19 0 0 0-.4-5.3 14.5 14.5 0 0 0-1.8-4.9l-.7-1.1-.9-.9a10.7 10.7 0 0 0-2.2-1.5 10.1 10.1 0 0 0-2.4-1 20 20 0 0 0-2.6-.5l.3-.2a17.6 17.6 0 0 0 .2 5.1 14.2 14.2 0 0 0 1.9 4.8 12.4 12.4 0 0 0 3.8 3.4 17.1 17.1 0 0 0 2.3 1.3zm0 0l-2.6-.6a13 13 0 0 1-2.5-1 13.4 13.4 0 0 1-3.9-3.6 12.8 12.8 0 0 1-2-5 13.5 13.5 0 0 1-.2-5.3v-.3h.3l2.7.6a13 13 0 0 1 2.5 1 11.2 11.2 0 0 1 2.2 1.6l1 1c.3.3.5.8.8 1.1a15.5 15.5 0 0 1 1.8 5.1 19.5 19.5 0 0 1-.1 5.4z"/><path d="M16.2 23.5a19.5 19.5 0 0 1-.1-5.4 16.1 16.1 0 0 1 1.8-5.2 10.5 10.5 0 0 0 .8-1.1l.9-1a11.9 11.9 0 0 1 2.3-1.6 10.9 10.9 0 0 1 2.5-1l2.7-.6h.2v.2a16.3 16.3 0 0 1-.2 5.4 11.8 11.8 0 0 1-2 4.9 11.5 11.5 0 0 1-3.9 3.7 13 13 0 0 1-2.5 1zm0 0l2.5-.9a10.5 10.5 0 0 0 2.3-1.3 11.6 11.6 0 0 0 3.8-3.5 12.9 12.9 0 0 0 1.9-4.7 15.1 15.1 0 0 0 .1-5.2l.3.3a11.1 11.1 0 0 0-2.5.5 10.9 10.9 0 0 0-2.5 1 15.9 15.9 0 0 0-2.1 1.5l-.9 1a6.1 6.1 0 0 0-.7 1 14.5 14.5 0 0 0-1.8 4.9 19.7 19.7 0 0 0-.4 5.4z"/></svg>