<svg xmlns="http://www.w3.org/2000/svg" width="16" height="16" viewBox="0 0 16 16"><path d="M8 10.3a2.6 2.6 0 0 0 1.1-.7 3.1 3.1 0 0 0 .5-1.2 8.2 8.2 0 0 0 0-2.7l-.3-1.4c-.2-.4-.3-.9-.5-1.3s-.7-1.7-1-2.5h.3c-.3.8-.7 1.6-1 2.5a6.5 6.5 0 0 0-.4 1.3 7.4 7.4 0 0 0-.4 1.4 8.2 8.2 0 0 0 0 2.7 3.1 3.1 0 0 0 .5 1.2 2.4 2.4 0 0 0 1.2.7zm0 0a2.3 2.3 0 0 1-2-1.9 5.3 5.3 0 0 1 0-2.8l.3-1.4.4-1.3C7 2 7.4 1.2 7.8.3L8-.1v.4c.4.9.8 1.7 1.1 2.6a6.5 6.5 0 0 1 .4 1.3 7 7 0 0 1 .3 1.4 6.6 6.6 0 0 1 .2 2.8 2.6 2.6 0 0 1-2 1.9z"/><path d="M2.1 14.5c0-.3.1-.6.1-1l.3-1.1a4.6 4.6 0 0 1 1.3-1.8 3.2 3.2 0 0 1 2.1-.8 5.4 5.4 0 0 1 2.1.5h.1v.2a3.4 3.4 0 0 1-1 1.6 3.2 3.2 0 0 1-1.7.9l-1.8.5a4.6 4.6 0 0 0-1.5 1zm0 0a3.3 3.3 0 0 1 1.4-1.2 5.5 5.5 0 0 1 1.8-.6 2.2 2.2 0 0 0 1.5-.8 2.2 2.2 0 0 0 .9-1.4v.2a4.5 4.5 0 0 0-1.9-.5 2.6 2.6 0 0 0-1.9.7 4.6 4.6 0 0 0-1.1 1.6l-.5 1z"/><path d="M13.8 14.5l-.3-1a3.1 3.1 0 0 0-.5-1 6.2 6.2 0 0 0-1.1-1.7 4 4 0 0 0-1.9-.7 4.5 4.5 0 0 0-1.9.5v-.2a2.4 2.4 0 0 0 .9 1.5 2.8 2.8 0 0 0 1.5.8 5.3 5.3 0 0 1 1.8.5 4.4 4.4 0 0 1 1.5 1.3zm0 0a4.6 4.6 0 0 0-1.5-.9l-1.8-.6a3.8 3.8 0 0 1-1.7-.8 3.7 3.7 0 0 1-1-1.7h.1a5.4 5.4 0 0 1 2.2-.5 3 3 0 0 1 2 .8 4 4 0 0 1 1.3 1.8l.3 1a4.5 4.5 0 0 1 .1.9z"/><path d="M0 11.1c.2-.3.3-.7.6-1.1a3.9 3.9 0 0 1 .8-1 4 4 0 0 1 2.3-1.2 3.7 3.7 0 0 1 2.5.7 6.6 6.6 0 0 1 1.9 1.8 3.7 3.7 0 0 1-1.8 1.4 3.3 3.3 0 0 1-2.2 0l-2-.6a5 5 0 0 0-2.1 0zm0 0a5 5 0 0 1 2.1-.1l2.1.5a2.3 2.3 0 0 0 2 0 3.8 3.8 0 0 0 1.6-1.2v.2A9.8 9.8 0 0 0 6 8.8a3.3 3.3 0 0 0-2.2-.6 3.9 3.9 0 0 0-2.2 1.1l-.8.8a3.9 3.9 0 0 0-.8 1z"/><path d="M16 11.1l-.8-1-.9-.8a3.9 3.9 0 0 0-2.1-1.1 3.8 3.8 0 0 0-2.3.6 9.8 9.8 0 0 0-1.8 1.7v-.2a3.8 3.8 0 0 0 1.6 1.2 2.3 2.3 0 0 0 2 0l2.1-.5a5.5 5.5 0 0 1 2.2.1zm0 0a5.3 5.3 0 0 0-2.2.2l-2 .6a3.3 3.3 0 0 1-2.2 0 4.9 4.9 0 0 1-1.8-1.4 6.6 6.6 0 0 1 1.9-2 3.7 3.7 0 0 1 2.5-.7A4 4 0 0 1 14.5 9a3.9 3.9 0 0 1 .8 1z"/><path d="M7.9 10.5a12.4 12.4 0 0 0-.3-2.7 5.4 5.4 0 0 0-.9-2.4 4.5 4.5 0 0 0-1.8-1.8 7.8 7.8 0 0 0-2.5-.7l.2-.2a6.9 6.9 0 0 0 1 4.9 5.5 5.5 0 0 0 1.9 1.8l1.1.6zm0 0l-1.3-.3-1.3-.5a5.8 5.8 0 0 1-2-1.8 7.7 7.7 0 0 1-1-2.5 8.2 8.2 0 0 1-.1-2.7v-.2h.2a7.9 7.9 0 0 1 2.6.8 4.1 4.1 0 0 1 2 1.9 8.2 8.2 0 0 1 1 2.6 12.2 12.2 0 0 1-.1 2.7z"/><path d="M8.1 10.5a12.3 12.3 0 0 1-.2-2.7 8.2 8.2 0 0 1 1-2.6 4.6 4.6 0 0 1 2-1.9 7.9 7.9 0 0 1 2.6-.8h.2v.2a8.2 8.2 0 0 1-.1 2.7 6 6 0 0 1-1 2.5 5.8 5.8 0 0 1-2 1.8l-1.2.5zm0 0l1.2-.5 1.1-.6a5.5 5.5 0 0 0 1.9-1.8 6.5 6.5 0 0 0 1-4.9l.2.2a6.7 6.7 0 0 0-2.4.7 4.7 4.7 0 0 0-1.9 1.8 7 7 0 0 0-.9 2.4 8.2 8.2 0 0 0-.2 2.7z"/></svg>