<svg id="Layer_1" data-name="Layer 1" xmlns="http://www.w3.org/2000/svg" width="16" height="16" viewBox="0 0 16 16"><title>logo-16</title><circle cx="8" cy="8" r="8"/><path d="M7.9,9.4A1.6,1.6,0,0,0,9.1,8a6.1,6.1,0,0,0,0-1.9,10.6,10.6,0,0,0-.6-1.9,13.4,13.4,0,0,0-.7-1.8H8L7.3,4.2a10.5,10.5,0,0,0-.5,1.9A6.1,6.1,0,0,0,6.7,8,1.6,1.6,0,0,0,7.9,9.4Zm0,0A1.9,1.9,0,0,1,6.5,8.1,5,5,0,0,1,6.5,6,13.3,13.3,0,0,1,7,4.1c.2-.6.5-1.2.8-1.9v0c.3.7.6,1.3.8,1.9A13.3,13.3,0,0,1,9.3,6a5,5,0,0,1,0,2.1A1.9,1.9,0,0,1,7.9,9.4Z" fill="#fff"/><path d="M3.7,12.4a1.9,1.9,0,0,0,.1-.8c.1-.2.1-.5.2-.7a4.3,4.3,0,0,1,.9-1.3A2.2,2.2,0,0,1,6.4,9,4.2,4.2,0,0,1,8,9.4H8a3.7,3.7,0,0,1-.7,1.2,2.7,2.7,0,0,1-1.2.6,5,5,0,0,0-1.3.3A4.1,4.1,0,0,0,3.7,12.4Zm0,0a2.8,2.8,0,0,1,1-.9L6,11.1A2.3,2.3,0,0,0,7.8,9.5v.2a2.3,2.3,0,0,0-1.4-.4,2.1,2.1,0,0,0-1.3.5A2.5,2.5,0,0,0,4.3,11l-.3.7Z" fill="#fff"/><path d="M12.1,12.4a2.4,2.4,0,0,1-.2-.8l-.4-.6a2.5,2.5,0,0,0-.8-1.2,1.9,1.9,0,0,0-1.3-.5A3.2,3.2,0,0,0,8,9.6h.1a2.1,2.1,0,0,0,1.7,1.6l1.3.4A2.8,2.8,0,0,1,12.1,12.4Zm0,0a4.1,4.1,0,0,0-1.1-.7l-1.2-.4a1.8,1.8,0,0,1-1.3-.6,2.4,2.4,0,0,1-.7-1.2h.1A2.8,2.8,0,0,1,9.4,9a2.2,2.2,0,0,1,1.5.6,3,3,0,0,1,.9,1.3,6.4,6.4,0,0,1,.2.7A2.5,2.5,0,0,1,12.1,12.4Z" fill="#fff"/><path d="M2.2,10l.4-.8.6-.8a3.8,3.8,0,0,1,1.7-.8,2.9,2.9,0,0,1,1.8.5A4,4,0,0,1,8,9.4H8a2.3,2.3,0,0,1-1.2,1,2.2,2.2,0,0,1-1.6,0l-1.5-.4A3.8,3.8,0,0,0,2.2,10Zm0,0a2.9,2.9,0,0,1,1.6-.1,4.2,4.2,0,0,1,1.5.4H6.7a3.1,3.1,0,0,0,1.1-.9h0A5,5,0,0,0,6.5,8.3a2.2,2.2,0,0,0-1.6-.4,2.3,2.3,0,0,0-1.5.7l-.6.7Z" fill="#fff"/><path d="M13.6,10l-.5-.7-.7-.7a2.1,2.1,0,0,0-1.5-.7,2.3,2.3,0,0,0-1.6.4A7.4,7.4,0,0,0,8,9.5H8a2.7,2.7,0,0,0,1.2.9h1.4a4.2,4.2,0,0,1,1.5-.4A2.6,2.6,0,0,1,13.6,10Zm0,0a3.8,3.8,0,0,0-1.5.1l-1.4.4a2.2,2.2,0,0,1-1.6,0,2.6,2.6,0,0,1-1.3-1h0A5.3,5.3,0,0,1,9.1,8.1a3.1,3.1,0,0,1,1.8-.5,3.4,3.4,0,0,1,1.7.8l.6.8A3,3,0,0,1,13.6,10Z" fill="#fff"/><path d="M7.8,9.5a6.1,6.1,0,0,0-.1-1.9A3.6,3.6,0,0,0,7,5.9,4,4,0,0,0,5.7,4.6a5.3,5.3,0,0,0-1.8-.5h.2a4.8,4.8,0,0,0,.7,3.5A4.1,4.1,0,0,0,6.2,8.7l.8.5Zm0,0-.9-.2L6,8.9A4.3,4.3,0,0,1,4.6,7.6a3.6,3.6,0,0,1-.7-1.7,4.5,4.5,0,0,1-.1-2H4a5.5,5.5,0,0,1,1.8.6A4.7,4.7,0,0,1,7.3,5.7a6,6,0,0,1,.6,1.9A4.1,4.1,0,0,1,7.8,9.5Z" fill="#fff"/><path d="M8,9.5a6.1,6.1,0,0,1-.1-1.9,4.4,4.4,0,0,1,.7-1.9A3.5,3.5,0,0,1,10,4.4a6,6,0,0,1,1.9-.6H12a6.7,6.7,0,0,1,0,2,5.3,5.3,0,0,1-.8,1.7A2.9,2.9,0,0,1,9.8,8.9l-.9.4Zm0,0,.9-.3.8-.5A3.7,3.7,0,0,0,11,7.5,4.8,4.8,0,0,0,11.7,4h.2a6.1,6.1,0,0,0-1.8.5A4,4,0,0,0,8.8,5.9a4.9,4.9,0,0,0-.6,1.7A6.2,6.2,0,0,0,8,9.5Z" fill="#fff"/></svg>