<svg xmlns="http://www.w3.org/2000/svg" width="32" height="32" viewBox="0 0 32 32"><path d="M15.9 20.9a3.7 3.7 0 0 0 2.3-1.4 7.7 7.7 0 0 0 1-2.5 14.1 14.1 0 0 0-.1-5.4 11 11 0 0 0-.6-2.6l-.4-1.4c-.1-.4-.3-.8-.4-1.3s-1.4-3.4-2.1-5.1h.7a36.6 36.6 0 0 0-2.1 5.1 11.2 11.2 0 0 0-.5 1.3L13.3 9a19.8 19.8 0 0 0-.6 2.6 14.1 14.1 0 0 0-.1 5.4 7.7 7.7 0 0 0 1 2.5 3.7 3.7 0 0 0 2.3 1.4zm0 0a5.8 5.8 0 0 1-2.5-1.2 7.9 7.9 0 0 1-1.5-2.5 13.7 13.7 0 0 1 0-5.7 21.3 21.3 0 0 1 .7-2.7l.4-1.4.4-1.3A47.7 47.7 0 0 1 15.6.9l.3-.8.4.8c.7 1.7 1.5 3.4 2.1 5.2l.4 1.3.4 1.4a21.3 21.3 0 0 1 .7 2.7 13.7 13.7 0 0 1 0 5.7 6.4 6.4 0 0 1-1.5 2.5 5.8 5.8 0 0 1-2.5 1.2z"/><path d="M4.1 29.3a11.8 11.8 0 0 0 .3-2.1l.6-2.1a10.4 10.4 0 0 1 2.6-3.6 6.2 6.2 0 0 1 4.1-1.6A9.2 9.2 0 0 1 16 21h.3v.3a7 7 0 0 1-2 3.3 5.8 5.8 0 0 1-3.5 1.7 13.5 13.5 0 0 0-3.4 1.1 11.4 11.4 0 0 0-3.3 1.9zm0 0A11.6 11.6 0 0 1 7 26.8a15 15 0 0 1 3.6-1.1 6.4 6.4 0 0 0 3.1-1.5 7.1 7.1 0 0 0 1.8-3v.4a7.3 7.3 0 0 0-3.9-.9A5.4 5.4 0 0 0 8 22.1a8.8 8.8 0 0 0-2.4 3.3c-.2.6-.6 1.3-.8 1.9a9.3 9.3 0 0 0-.7 2z"/><path d="M27.7 29.2c-.2-.7-.5-1.4-.7-2a11.1 11.1 0 0 1-.9-1.9 9.8 9.8 0 0 0-2.3-3.3 5.9 5.9 0 0 0-3.7-1.4 8.7 8.7 0 0 0-3.9 1l.2-.4a6.6 6.6 0 0 0 1.7 2.9 6.4 6.4 0 0 0 3.1 1.5 10.9 10.9 0 0 1 3.6 1.2 9.6 9.6 0 0 1 2.9 2.4zm0 0a10.1 10.1 0 0 0-3.2-1.8 13.3 13.3 0 0 0-3.4-1 6.8 6.8 0 0 1-3.5-1.7 8.3 8.3 0 0 1-2-3.4v-.2l.3-.2a9.2 9.2 0 0 1 4.3-1.1 6.7 6.7 0 0 1 4.1 1.6 11.4 11.4 0 0 1 2.5 3.6l.6 2.1a11.8 11.8 0 0 0 .3 2.1z"/><path d="M-.1 22.5l.6-1.1a4.1 4.1 0 0 1 .7-1.1 7.8 7.8 0 0 1 1.6-2.1 8 8 0 0 1 2.1-1.5 7.3 7.3 0 0 1 2.5-.8 7.8 7.8 0 0 1 5.1 1.4 12.7 12.7 0 0 1 3.7 3.6l.2.2-.2.2a8 8 0 0 1-3.5 2.8 6.9 6.9 0 0 1-4.5 0l-2-.7-1-.2-1.1-.3a14.6 14.6 0 0 0-4.2-.4zm0 0a12.9 12.9 0 0 1 4.4-.3 27.7 27.7 0 0 1 4.1 1.2 6.8 6.8 0 0 0 4 0 7.2 7.2 0 0 0 3.2-2.5v.4a16.1 16.1 0 0 0-3.5-3.4 7.7 7.7 0 0 0-4.6-1.3 7.8 7.8 0 0 0-4.2 2.2 19.9 19.9 0 0 0-3.4 3.7z"/><path d="M31.9 22.5a19.9 19.9 0 0 0-3.4-3.7 7.5 7.5 0 0 0-4.2-2.2 7.7 7.7 0 0 0-4.6 1.3 16.1 16.1 0 0 0-3.5 3.4v-.4a7.2 7.2 0 0 0 3.2 2.5 6.8 6.8 0 0 0 4 0 25.8 25.8 0 0 1 4.2-1.2 12.5 12.5 0 0 1 4.3.3zm0 0a14.6 14.6 0 0 0-4.2.4l-1 .3-1.1.2-2 .7a6.9 6.9 0 0 1-4.5 0 8 8 0 0 1-3.5-2.8l-.2-.2.2-.2a14.1 14.1 0 0 1 3.7-3.6 7.8 7.8 0 0 1 5.1-1.4 7.3 7.3 0 0 1 2.5.8 10.7 10.7 0 0 1 2.2 1.5 16.6 16.6 0 0 1 1.6 2.1l.6 1.1z"/><path d="M15.7 21.2a18 18 0 0 0-.5-5.2 13.1 13.1 0 0 0-1.8-4.9 4.1 4.1 0 0 0-.7-1.1l-.9-.9a10.1 10.1 0 0 0-2.1-1.5 10.1 10.1 0 0 0-2.4-1l-2.6-.5.4-.3a17.5 17.5 0 0 0 .2 5.1 11.6 11.6 0 0 0 2 4.7A10.1 10.1 0 0 0 11 19a12.7 12.7 0 0 0 2.2 1.3zm0 0l-2.6-.5-2.5-1a12.8 12.8 0 0 1-4-3.7 12.8 12.8 0 0 1-2-5 13.5 13.5 0 0 1-.2-5.3v-.4h.3a26.1 26.1 0 0 1 2.7.6 11.7 11.7 0 0 1 2.6 1 11.2 11.2 0 0 1 2.2 1.6l1 1 .8 1.2a14.9 14.9 0 0 1 2 5.1 19.4 19.4 0 0 1-.3 5.4z"/><path d="M16.1 21.3a20.2 20.2 0 0 1-.2-5.5 15.5 15.5 0 0 1 1.8-5.1 10.5 10.5 0 0 1 .8-1.1l1-1.1a17.7 17.7 0 0 1 2.2-1.6 11.7 11.7 0 0 1 2.6-1 26.1 26.1 0 0 1 2.7-.6h.3v.3a16.2 16.2 0 0 1-.1 5.4 14.8 14.8 0 0 1-2.1 5 11.8 11.8 0 0 1-4 3.7 14.5 14.5 0 0 1-2.5 1 24.4 24.4 0 0 1-2.5.6zm0 0l2.5-1a10.5 10.5 0 0 0 2.3-1.3 10.9 10.9 0 0 0 3.7-3.4 12.9 12.9 0 0 0 1.9-4.7 14.6 14.6 0 0 0 .1-5.1l.5.3a20 20 0 0 0-2.6.5 10.1 10.1 0 0 0-2.4 1A10.1 10.1 0 0 0 20 9.1l-.9.9-.7 1.1a13.7 13.7 0 0 0-1.8 4.9 23.2 23.2 0 0 0-.5 5.3z"/></svg>