<svg xmlns="http://www.w3.org/2000/svg" width="128" height="128" viewBox="0 0 128 128"><path d="M87.7 33.4c1.2 11.7 2.5 23.3 3.7 35h.6c5.1-.1 10.2-.3 15.3-.3 1.2 0 2.3.2 3.4.3l.9.4c.5.3.4.8-.1 1l-1.6.3-15.3 1.5-2.9.3c.1 1.1.2 2.1.2 3.2a171.7 171.7 0 0 1 .7 22.7c-.3 5.2-1 10.3-3.1 15.1a24.1 24.1 0 0 1-18.4 14.7 40.4 40.4 0 0 1-15.5-.7 36.9 36.9 0 0 1-17.8-9 22 22 0 0 1-5.2-6.8 11.3 11.3 0 0 1 .4-11 21.5 21.5 0 0 1 7.3-7.7 65.1 65.1 0 0 1 11.2-5.6 59.6 59.6 0 0 1 14.9-4.5l4-.5h.9l.4.3c-.1.1-.2.3-.4.3l-1.6.5a53.9 53.9 0 0 0-12.4 3.8 47.7 47.7 0 0 0-9.8 5.6 20.7 20.7 0 0 0-5.7 6.8 12.6 12.6 0 0 0 1 13.3 23.4 23.4 0 0 0 10.9 8.6 28.5 28.5 0 0 0 10 2.2 9.1 9.1 0 0 0 6.6-2.8 19.5 19.5 0 0 0 4.3-7 42.9 42.9 0 0 0 2.2-9.9 103.7 103.7 0 0 0 .3-16.7c-.1-4.1-.3-8.1-.4-12.2V74l-2.3.2c-6 .7-12.1 1-18.1 1.1l-14.5.4a3.2 3.2 0 0 1-1.7-.2.7.7 0 0 1-.5-.4c0-.2.3-.4.5-.5l.7-.2 7.5-1 19.9-3.3c2.6-.4 5.3-.6 7.9-.9h.5l-1.2-35.3c-19-1.5-35.5-8.8-48.6-23.2a16.6 16.6 0 0 0-1.4 4.3 32.7 32.7 0 0 0 1 13.9 26 26 0 0 0 5.1 9.9 37.3 37.3 0 0 0 12.9 10.4 26.4 26.4 0 0 0 4 1.2l.8.2a.7.7 0 0 1 .4.5c0 .1-.2.4-.4.4a3 3 0 0 1-1.3.2 24.4 24.4 0 0 1-10.9-3A45.5 45.5 0 0 1 26.3 41a29 29 0 0 1-8.2-15.5 40.6 40.6 0 0 1-.9-11 13.9 13.9 0 0 1 2.4-7.4 7.3 7.3 0 0 1 5.1-2.6 13.6 13.6 0 0 1 10.2 3.3c3.1 2.5 6.1 5.1 9.2 7.5a61.7 61.7 0 0 0 31.2 12.9h.4a4.9 4.9 0 0 1 .1-1.2c.3-4.2.5-8.4.9-12.7a32.1 32.1 0 0 1 1.9-8A10 10 0 0 1 81.5 2 8.6 8.6 0 0 1 86.8.1a14.3 14.3 0 0 1 8.8 2 23.9 23.9 0 0 1 9.6 9.3 13.5 13.5 0 0 1 1.9 8.8 12 12 0 0 1-6.1 9 26.2 26.2 0 0 1-8.7 3.3c-1.5.4-3 .6-4.6.9zm-.4-5.5a17 17 0 0 0 6.2-2.2 9.5 9.5 0 0 0 4.4-10.4 17.7 17.7 0 0 0-6.8-10.1l-2.4-1.4c-.3.6-.6 1.1-.8 1.6a16.8 16.8 0 0 0-1 5.5 77.9 77.9 0 0 0 0 10.8c.1 2 .2 4.1.4 6.2z"/></svg>