<svg xmlns="http://www.w3.org/2000/svg" width="64" height="61.9" viewBox="0 0 64 61.9"><path d="M31.9 42.2a7 7 0 0 0 4.6-2.8 10.9 10.9 0 0 0 2.1-4.8 19.9 19.9 0 0 0 .6-5.4 49.5 49.5 0 0 0-.6-5.4 67 67 0 0 0-3-10.6A99.5 99.5 0 0 0 31.4 3h1c-1.5 3.4-3 6.7-4.2 10.2a66.6 66.6 0 0 0-2.9 10.6 33.1 33.1 0 0 0-.6 5.4 19.8 19.8 0 0 0 .5 5.4 12.2 12.2 0 0 0 2.1 4.8 7.5 7.5 0 0 0 4.6 2.8zm0 0a9.6 9.6 0 0 1-4.9-2.5 12.6 12.6 0 0 1-2.8-4.9 20.9 20.9 0 0 1-.6-5.6 50.5 50.5 0 0 1 .6-5.6 78.3 78.3 0 0 1 3-10.8q1.9-5.2 4.2-10.2l.5-1.1.5 1.1c1.5 3.3 3 6.7 4.2 10.2a57.7 57.7 0 0 1 3 10.8 34.3 34.3 0 0 1 .6 5.6 25.9 25.9 0 0 1-.5 5.6 11.6 11.6 0 0 1-2.9 4.9 9.2 9.2 0 0 1-4.9 2.5z"/><path d="M8.5 59a15.2 15.2 0 0 0 .3-2.1c.1-.8.3-1.4.4-2.2a38.4 38.4 0 0 1 1.3-4.1 19.5 19.5 0 0 1 5-7.1 12.5 12.5 0 0 1 8.1-3 12.4 12.4 0 0 1 4.3.5 18.4 18.4 0 0 1 4.1 1.6l.4.2v.4a14.9 14.9 0 0 1-3.9 6.5 12.8 12.8 0 0 1-6.9 3.3 32.4 32.4 0 0 0-6.9 2.1A20.3 20.3 0 0 0 8.5 59zm0 0a19.4 19.4 0 0 1 5.8-4.8 24.5 24.5 0 0 1 7.1-2.2 11.1 11.1 0 0 0 6.2-3.1 12.2 12.2 0 0 0 3.6-5.9l.3.5a18.1 18.1 0 0 0-7.9-2 11.6 11.6 0 0 0-7.5 2.8 20 20 0 0 0-2.7 3.1 21.5 21.5 0 0 0-1.9 3.7l-.9 1.9a10.8 10.8 0 0 0-.8 1.9c-.2.7-.5 1.4-.7 2s-.4 1.3-.6 2.1z"/><path d="M55.3 58.8l-.6-2c-.2-.7-.5-1.4-.7-2a16.7 16.7 0 0 0-.8-2c-.2-.6-.6-1.2-.8-1.9a20.8 20.8 0 0 0-2-3.6 16.3 16.3 0 0 0-2.7-3.1 11.4 11.4 0 0 0-7.5-2.8 15.7 15.7 0 0 0-7.9 2l.3-.6a13.3 13.3 0 0 0 3.6 6 12.2 12.2 0 0 0 6.2 3.1 26.1 26.1 0 0 1 7.2 2.2 21.7 21.7 0 0 1 5.7 4.7zm0 0a20.7 20.7 0 0 0-6.2-3.8 26.8 26.8 0 0 0-6.8-2.1 12.5 12.5 0 0 1-6.8-3.3 13.9 13.9 0 0 1-3.9-6.6v-.3l.3-.2a15.9 15.9 0 0 1 4.1-1.6 15.9 15.9 0 0 1 4.3-.6 12.3 12.3 0 0 1 8.2 3.1 20.8 20.8 0 0 1 5 7.1 27.7 27.7 0 0 1 1.2 4.1c.1.7.3 1.4.4 2.1z"/><path d="M.1 45.4a21.8 21.8 0 0 0 1.2-2.2l1.4-2.1L4.2 39l1.7-1.9a25.3 25.3 0 0 1 4.2-3.1 15.2 15.2 0 0 1 5-1.5 15.2 15.2 0 0 1 9.9 2.7 31.2 31.2 0 0 1 7.4 7.1l.2.3-.2.3a15.5 15.5 0 0 1-7 5.4 10.3 10.3 0 0 1-4.3.8 7.8 7.8 0 0 1-2.2-.2l-1.1-.2-1.1-.3c-1.4-.4-2.7-1-4-1.3l-2.1-.6-2-.5a26.9 26.9 0 0 0-8.5-.6zm0 0a21.2 21.2 0 0 1 4.3-.6 31.1 31.1 0 0 1 4.3.3 44.1 44.1 0 0 1 8.3 2.3l1 .3 1 .2 2.1.2a14.2 14.2 0 0 0 4-.8 14.7 14.7 0 0 0 6.4-4.9v.5a27.1 27.1 0 0 0-7.1-6.8 13.9 13.9 0 0 0-9.2-2.5 11.2 11.2 0 0 0-4.6 1.4 18 18 0 0 0-3.9 2.9l-1.8 1.7-1.7 1.8-1.6 2z"/><path d="M63.7 45.4l-1.5-2-1.5-2-1.7-1.8-1.8-1.7a18.5 18.5 0 0 0-4-2.9 10.7 10.7 0 0 0-4.6-1.4 14 14 0 0 0-9.2 2.5 28.3 28.3 0 0 0-7 6.8v-.5a13.7 13.7 0 0 0 6.4 4.9 12.9 12.9 0 0 0 4 .8l2-.2 1-.2 1-.3a48.7 48.7 0 0 1 8.3-2.3l4.3-.3a20.3 20.3 0 0 1 4.3.6zm0 0a26.3 26.3 0 0 0-8.4.6l-2.1.5-2 .6c-1.4.3-2.6.9-4.1 1.3l-1 .3-1.1.2a8.2 8.2 0 0 1-2.2.2 11.1 11.1 0 0 1-4.4-.8 14.7 14.7 0 0 1-6.9-5.4l-.2-.3.2-.3a29.4 29.4 0 0 1 7.4-7.1 14.8 14.8 0 0 1 9.8-2.7 13.9 13.9 0 0 1 5 1.5 25.3 25.3 0 0 1 4.2 3.1l1.7 1.9c.5.7 1.1 1.4 1.5 2.1s1 1.4 1.4 2.1a21.8 21.8 0 0 0 1.2 2.2z"/><path d="M31.5 42.9a41 41 0 0 0-.7-10.5 25.7 25.7 0 0 0-3.6-9.8 18 18 0 0 0-3.3-4 21.7 21.7 0 0 0-4.2-3.1 28.2 28.2 0 0 0-10-2.9l.6-.4a31.8 31.8 0 0 0 .3 10.2 26 26 0 0 0 3.9 9.4 21.6 21.6 0 0 0 7.5 6.9 35.3 35.3 0 0 0 9.5 4.2zm0 0a29.5 29.5 0 0 1-10-3.3 23.6 23.6 0 0 1-7.9-7.2 26.4 26.4 0 0 1-4-9.8A31.4 31.4 0 0 1 9.3 12v-.5h.5a27.1 27.1 0 0 1 10.3 3 28.3 28.3 0 0 1 4.5 3.2 23.1 23.1 0 0 1 3.5 4.3 26.7 26.7 0 0 1 3.7 10.2 34.9 34.9 0 0 1-.3 10.7z"/><path d="M32.4 42.9a34.9 34.9 0 0 1-.4-10.7A29.1 29.1 0 0 1 35.7 22a23 23 0 0 1 3.5-4.2 23.6 23.6 0 0 1 4.4-3.2 29.2 29.2 0 0 1 10.3-3.1h.5v.4a34.9 34.9 0 0 1-.2 10.7 26.6 26.6 0 0 1-4.1 9.8 22.4 22.4 0 0 1-7.8 7.2 29.5 29.5 0 0 1-9.9 3.3zm0 0a32.4 32.4 0 0 0 9.5-4.2 23.5 23.5 0 0 0 7.5-6.9 24.2 24.2 0 0 0 3.8-9.4 29.7 29.7 0 0 0 .3-10.3l.6.5a28.2 28.2 0 0 0-10 2.9 21.7 21.7 0 0 0-4.2 3.1 18 18 0 0 0-3.3 4 28 28 0 0 0-3.5 9.8 41 41 0 0 0-.7 10.5z"/></svg>