<svg xmlns="http://www.w3.org/2000/svg" width="16" height="16" viewBox="0 0 16 16"><path d="M10.7 4.2l.5 4.3h2.5c.1 0 .1.1 0 .1h-2.5a.8.8 0 0 0 .1.4 26.2 26.2 0 0 1 0 2.8 5.8 5.8 0 0 1-.3 1.9 3.2 3.2 0 0 1-2.3 1.8 4.5 4.5 0 0 1-2 0 4.8 4.8 0 0 1-2.2-1.2 2.7 2.7 0 0 1-.7-.8 1.4 1.4 0 0 1 .1-1.4 2.8 2.8 0 0 1 .9-1l1.4-.7 1.9-.5h.4l-1.6.4-1.2.7-.7.9a1.7 1.7 0 0 0 .1 1.7 2.8 2.8 0 0 0 1.4 1 2.7 2.7 0 0 0 1.2.3 1.1 1.1 0 0 0 .9-.4 2.2 2.2 0 0 0 .5-.8l.3-1.3V9.3H5.8l2.5-.4 1-.2V4.2a9 9 0 0 1-6.2-2.9c-.1.2-.1.4-.2.6a3.3 3.3 0 0 0 .2 1.7 2.3 2.3 0 0 0 .6 1.2 4.8 4.8 0 0 0 1.6 1.3l.5.2-1.4-.2a4.5 4.5 0 0 1-1.3-1A3.7 3.7 0 0 1 2 3.2a6.6 6.6 0 0 1-.1-1.4 1.6 1.6 0 0 1 .3-.9.9.9 0 0 1 .7-.3 1.4 1.4 0 0 1 1.2.4l1.2.9a7.6 7.6 0 0 0 3.9 1.6c.1-.6.1-1.1.2-1.6a3 3 0 0 1 .2-1l.4-.7.6-.2a2 2 0 0 1 1.1.3 2.5 2.5 0 0 1 1.2 1.1 2.3 2.3 0 0 1 .3 1.1 1.5 1.5 0 0 1-.8 1.1 2.2 2.2 0 0 1-1.1.5zm0-.7l.8-.3a1.3 1.3 0 0 0 .5-1.3 2 2 0 0 0-.8-1.2l-.3-.2c-.1 0-.1.1-.1.2a1.4 1.4 0 0 0-.2.7v1.3c0 .3.1.5.1.8z"/></svg>