<svg id="Layer_1" data-name="Layer 1" xmlns="http://www.w3.org/2000/svg" width="64" height="64" viewBox="0 0 64 64"><title>logo-64</title><circle cx="32" cy="32" r="32"/><path d="M31.7,37.5a5.2,5.2,0,0,0,3.2-2l.5-.8a3.6,3.6,0,0,0,.4-.9c.1-.1.1-.3.2-.4v-.5l.2-.9a18.2,18.2,0,0,0,0-7.7l-.4-1.9c-.1-.6-.4-1.3-.5-1.9l-.6-1.9-.6-1.8c-.9-2.5-2-4.9-3-7.4h1a76.5,76.5,0,0,0-3,7.4,13.4,13.4,0,0,0-.7,1.8L28,20.5l-.6,1.9-.3,1.9A18.2,18.2,0,0,0,27,32l.2.9v.5l.2.4a3.6,3.6,0,0,0,.4.9l.5.8A4.8,4.8,0,0,0,31.7,37.5Zm0,0a7.1,7.1,0,0,1-3.6-1.7A7.8,7.8,0,0,1,26,32.3a20.6,20.6,0,0,1,0-8.2l.4-1.9a14.6,14.6,0,0,1,.5-2l.6-1.9.6-1.9c.9-2.5,2-5,3.1-7.4l.5-1.2L32.2,9c1,2.4,2.1,4.9,3,7.4l.6,1.9.6,1.9a14.6,14.6,0,0,1,.5,2l.4,1.9c.4,2.7.8,5.4.1,8.2a8,8,0,0,1-2.2,3.5A6.8,6.8,0,0,1,31.7,37.5Z" fill="#fff"/><path d="M14.8,49.6c.1-.5.1-1,.2-1.5l.3-1.6a16.7,16.7,0,0,1,.8-3,15.3,15.3,0,0,1,3.6-5.1,8.8,8.8,0,0,1,6-2.3,13.2,13.2,0,0,1,6.1,1.6l.4.2v.4A11,11,0,0,1,29.2,43a9.2,9.2,0,0,1-4.9,2.5,20.5,20.5,0,0,0-5,1.4A17.4,17.4,0,0,0,14.8,49.6Zm0,0A15.6,15.6,0,0,1,18.9,46a18.5,18.5,0,0,1,5.2-1.6,8.4,8.4,0,0,0,4.4-2.2A8.6,8.6,0,0,0,31,38l.3.6a12.2,12.2,0,0,0-5.6-1.4,8.1,8.1,0,0,0-5.3,2A12.8,12.8,0,0,0,17.1,44a16.9,16.9,0,0,0-1.2,2.7l-.6,1.4Z" fill="#fff"/><path d="M48.5,49.5,48,48l-.6-1.4a22.1,22.1,0,0,0-1.2-2.7,12.8,12.8,0,0,0-3.3-4.8,7.9,7.9,0,0,0-5.3-2A12.2,12.2,0,0,0,32,38.5l.3-.6a8.6,8.6,0,0,0,2.5,4.2,8.4,8.4,0,0,0,4.4,2.2,18.5,18.5,0,0,1,5.2,1.6A14.2,14.2,0,0,1,48.5,49.5Zm0,0A17.4,17.4,0,0,0,44,46.8a21.1,21.1,0,0,0-4.9-1.4,9.2,9.2,0,0,1-5-2.5,11,11,0,0,1-2.9-4.7v-.4l.4-.2A13.2,13.2,0,0,1,37.6,36a8.8,8.8,0,0,1,6,2.3,15.3,15.3,0,0,1,3.6,5.1,16.7,16.7,0,0,1,.8,3l.3,1.6C48.4,48.5,48.4,49,48.5,49.5Z" fill="#fff"/><path d="M8.8,39.8a11.9,11.9,0,0,0,.8-1.6,8.6,8.6,0,0,0,1-1.6,20.9,20.9,0,0,1,2.3-2.9,16.6,16.6,0,0,1,3-2.2,9.9,9.9,0,0,1,3.7-1.1,11,11,0,0,1,7.2,2,21.4,21.4,0,0,1,5.3,5.1l.2.3-.2.3a11.4,11.4,0,0,1-5,4,12.8,12.8,0,0,1-3.2.6l-1.7-.2h-.7l-.8-.3c-1.1-.3-1.9-.7-2.9-.9l-1.5-.4-1.5-.4A17,17,0,0,0,8.8,39.8Zm0,0a16.1,16.1,0,0,1,6.2-.3,29.4,29.4,0,0,1,6,1.6l.7.2h.7a7.7,7.7,0,0,0,1.5.2,13.7,13.7,0,0,0,2.8-.5,9.9,9.9,0,0,0,4.5-3.6v.6a20.8,20.8,0,0,0-5-4.8,9.7,9.7,0,0,0-6.5-1.8,10.4,10.4,0,0,0-3.3,1,13.1,13.1,0,0,0-2.8,2l-1.3,1.2L11.1,37,9.9,38.4Z" fill="#fff"/><path d="M54.5,39.8l-1.1-1.4L52.2,37,51,35.7l-1.3-1.2a13.1,13.1,0,0,0-2.8-2,9.1,9.1,0,0,0-3.3-1,9.8,9.8,0,0,0-6.5,1.8,22.8,22.8,0,0,0-5,4.8v-.6a9.9,9.9,0,0,0,4.5,3.6,13.5,13.5,0,0,0,2.9.5,7.8,7.8,0,0,0,1.4-.2h.7l.7-.2a29.4,29.4,0,0,1,6-1.6A16.1,16.1,0,0,1,54.5,39.8Zm0,0a17.3,17.3,0,0,0-6,.6l-1.5.4-1.5.4-2.9.9-.7.3h-.8l-1.6.2a11.3,11.3,0,0,1-3.2-.6,11.2,11.2,0,0,1-5.1-4l-.2-.3.2-.3a21.8,21.8,0,0,1,5.4-5.1,10.7,10.7,0,0,1,7.2-2,9.4,9.4,0,0,1,3.6,1.1,16.6,16.6,0,0,1,3,2.2,20.9,20.9,0,0,1,2.3,2.9c.3.6.7,1.1,1,1.6A11.9,11.9,0,0,0,54.5,39.8Z" fill="#fff"/><path d="M31.4,38a31.3,31.3,0,0,0-.7-7.5,17.5,17.5,0,0,0-2.6-7,12.3,12.3,0,0,0-2.3-2.8,12.9,12.9,0,0,0-3-2.2,21.6,21.6,0,0,0-7.1-2.1l.6-.4a22.4,22.4,0,0,0,.2,7.3A18,18,0,0,0,19.3,30a16.5,16.5,0,0,0,5.3,4.9l.8.5a2,2,0,0,0,.8.4l1.6.9,1.7.7Zm0,0a24.5,24.5,0,0,1-3.7-.8l-1.9-.6-.9-.4-.8-.4a16.7,16.7,0,0,1-5.7-5.2,17,17,0,0,1-2.9-7.1,24.9,24.9,0,0,1-.3-7.7v-.5h.5a19.8,19.8,0,0,1,7.5,2.3,15,15,0,0,1,3.3,2.3,18.1,18.1,0,0,1,2.5,3,19.9,19.9,0,0,1,2.6,7.4A24.8,24.8,0,0,1,31.4,38Z" fill="#fff"/><path d="M32,38.1a25.6,25.6,0,0,1-.4-7.8A19.4,19.4,0,0,1,34.2,23a15.4,15.4,0,0,1,2.5-3.1A15,15,0,0,1,40,17.6a19.8,19.8,0,0,1,7.5-2.3H48v.5a24.9,24.9,0,0,1-.1,7.7,19.3,19.3,0,0,1-3,7.1,17.4,17.4,0,0,1-5.6,5.2l-.9.4-.9.4-1.8.6C34.5,37.6,33.1,37.8,32,38.1Zm0,0,1.8-.7,1.7-.7,1.7-.8.8-.5.7-.5A16.6,16.6,0,0,0,44,30a18,18,0,0,0,2.8-6.7A25.6,25.6,0,0,0,47,16l.6.4a19.5,19.5,0,0,0-7.1,2.1,12.9,12.9,0,0,0-3,2.2,12.3,12.3,0,0,0-2.3,2.8,17.3,17.3,0,0,0-2.5,7A27.3,27.3,0,0,0,32,38.1Z" fill="#fff"/></svg>