<svg xmlns="http://www.w3.org/2000/svg" id="Layer_1" width="128" height="128" viewBox="0 0 128 128" fill="#fff"><path d="M44 44.4l.9-3c.8-2.2 1.5-4.5 2.3-6.7s1.5-4.3 2.2-6.5 1.5-4.3 2.3-6.4l2.2-5.7c.8-1.9 1.5-3.8 2.2-5.7l1.8-4.3a3.6 3.6 0 0 1 .8-1.2 1.1 1.1 0 0 1 1.2-.2c.1.1.2.3.1.4a18.7 18.7 0 0 1-.4 2.5c-.3 1.3-.6 2.5-1 3.7s-1.5 5.2-2.2 7.8-1.5 5.2-2.2 7.7-1.5 5.3-2.3 8-1.4 5.2-2.2 7.8l-.9 3c-.1.3 0 .4.2.5l5.2 2.3 1.7 1.1 2.3 1.9a9.2 9.2 0 0 1 2.4 2.8 11.3 11.3 0 0 1 1.9 5.3 13.3 13.3 0 0 1-.5 4 18.3 18.3 0 0 1-1.1 3.3 31.3 31.3 0 0 1-2.2 3.6 22.9 22.9 0 0 1-2.1 2.3l-2.9 2a21.2 21.2 0 0 1-3.7 1.8 18.4 18.4 0 0 1-5.1 1 20.2 20.2 0 0 1-6-.4h-.3l-1.2 3.8c-.4 1-.7 2-1 3l-2.3 6.6a24.5 24.5 0 0 0-1.5 8.9 9.6 9.6 0 0 0 .6 3.3 3.1 3.1 0 0 0 3 2.3 14.1 14.1 0 0 0 4.1-.1 137.6 137.6 0 0 0 14.3-2.4l6-1.3c1.4-.2 2.7-.6 4-.9l.7-.6 1.8-2.1c.8-1.1 1.5-2.2 2.3-3.2l2.4-3.2 1.9-2.8 2.5-3.3 1.7-2.3c.2-.2.2-.3.1-.5-.5-1.8-1.1-3.5-1.6-5.3a17 17 0 0 1-.4-2.2c-.1-.1-.1-.1-.1-.2l-.7.5-3.1 2.3-4.5 3.4c-.4.3-.7.6-1.3.5s-.5-.2-.3-.5a16.7 16.7 0 0 1 1.2-2.3 34.6 34.6 0 0 1 2.2-3.1 14.3 14.3 0 0 1 2.3-2.6 7.9 7.9 0 0 1 4-2.4 7.4 7.4 0 0 1 5.1.4 1.7 1.7 0 0 1 1.3 1.4c.2 1 .4 2 .5 3s.1 1.1.2 1.7l.4-.3 1.6-1.6a26.1 26.1 0 0 1 2.4-2.3l4.6-3.4a27.5 27.5 0 0 1 3.8-2A33.3 33.3 0 0 1 103 65a44.7 44.7 0 0 1 11.5-.9 48.6 48.6 0 0 1 10.7 1.6 8 8 0 0 1 2.5 1.1l.2.3-.3.2a2.7 2.7 0 0 1-.9 0 37.1 37.1 0 0 0-12.4-1.6 32.7 32.7 0 0 0-6.2.7 33.3 33.3 0 0 0-7.4 2.3 27.1 27.1 0 0 0-3.7 2.1 24.8 24.8 0 0 0-2.6 1.9l-2.3 2.1-2.1 2.1-2.4 2.6-2.2 2.8h-.1c-.5.5-.5.5-.2 1.2l1.6 3c.8 1.6 1.6 3.3 2.5 4.9s1.7 2.4 2.6 3.6a1 1 0 0 0 .9.4 46.8 46.8 0 0 1 12.4.6 16 16 0 0 1 4.8 1.6 3.9 3.9 0 0 1 2 2l.3.9a2.7 2.7 0 0 1-1 1.9 5.3 5.3 0 0 1-2.7 1.3 18.9 18.9 0 0 1-7.1.4 21.5 21.5 0 0 1-8.6-2.6 24 24 0 0 1-2.9-1.9l-1.5-1.2-.5-.2-6.6 1.3-10.5 2.2a.8.8 0 0 0-.6.4l-2.6 2.7-4.5 4.3-1.2.9-3.2 2.4a37.9 37.9 0 0 1-6.7 3.3 40.3 40.3 0 0 1-10.2 2.6 39.7 39.7 0 0 1-7.7.2l-5.7-.6a23.8 23.8 0 0 1-5.2-1.5 49.3 49.3 0 0 1-4.6-2.3l-4.4-2.9a24.9 24.9 0 0 1-4.6-4l-2-2.4a37.5 37.5 0 0 1-2.4-3.6C4.4 99.9 3.8 98.4 3 97s-1.2-3.5-1.7-5.3-.4-2.1-.7-3.2a39.4 39.4 0 0 1-.4-8.4 29.7 29.7 0 0 1 .3-4.2 43.6 43.6 0 0 1 2.1-9.5 43.1 43.1 0 0 1 2.2-4.9c.6-1.1 1.3-2.2 2-3.3a40.8 40.8 0 0 1 2.5-3.3 16.5 16.5 0 0 1 2.2-2.4 39.4 39.4 0 0 1 4.5-3.6 33.3 33.3 0 0 1 15-5.4 36.4 36.4 0 0 1 6.6-.1 31.1 31.1 0 0 1 6 .9zm-1.2 3.4l-3.6-.5-2.1-.2-2.2-.2a30.6 30.6 0 0 0-7.9 1.5 20.9 20.9 0 0 0-8.9 5.8 27.8 27.8 0 0 0-2.1 2.7l-2.4 3.8a33.9 33.9 0 0 0-2 5.3 25.2 25.2 0 0 0-1.4 5.4 35.7 35.7 0 0 0-.6 6.5c0 2 0 4 .2 6.1a32.1 32.1 0 0 0 .7 4.3 23.3 23.3 0 0 0 1.3 5.2 30.2 30.2 0 0 0 2.3 4.8 19 19 0 0 0 2.2 3.3l2.3 2.4a27.9 27.9 0 0 0 4.9 4.2 27.4 27.4 0 0 0 3.6 2.3 31.2 31.2 0 0 0 7.3 2.4 29.3 29.3 0 0 0 4.1.7h3.3a11.6 11.6 0 0 0 4.2-.6l3.8-1.3 4.1-2h.1l2.7-1.6 3.3-2.8.8-.7a2.7 2.7 0 0 0 .7-.8h-.3l-3.3.7-6.1 1.3-6.2 1a54.5 54.5 0 0 1-9 .6 15.1 15.1 0 0 1-6.3-1.3 9.6 9.6 0 0 1-3.3-2.7 8.5 8.5 0 0 1-1.5-5.8 22.9 22.9 0 0 1 1.9-8.2c.8-1.9 1.5-3.9 2.2-5.8l2.4-6.1.9-2.4a.8.8 0 0 1 .1-.4l-1.4-.7a26.3 26.3 0 0 1-3.7-2.9 8.5 8.5 0 0 1-1.4-1.9c-.2-.5-.1-.6.4-.6H28l.7.3 1 .8a12.1 12.1 0 0 0 3.9 2.4c.4.2.4.2.5-.3l2.3-6c.7-2 1.5-4 2.3-6.1l2.4-7c.6-1.6 1.1-3.2 1.7-4.9zm4.9 1.4a8.8 8.8 0 0 0-.5 1.5c-.8 2.3-1.5 4.6-2.2 7s-1.5 4.9-2.3 7.3-1 3.1-1.4 4.7l-.6 1.7a14.3 14.3 0 0 1-.8 2.2h3.5a13.5 13.5 0 0 0 4-.8 13.1 13.1 0 0 0 2.7-1.2 8.6 8.6 0 0 0 1.9-1.8 25.6 25.6 0 0 0 2.2-3.5 15 15 0 0 0 1.7-6.6 7.8 7.8 0 0 0-1.3-4.7 8.6 8.6 0 0 1-.7-1 14.8 14.8 0 0 0-2.6-3 8.4 8.4 0 0 0-2.4-1.4zm33.4 38.7q-3.9 5.4-7.8 10.5L86 96.1a28.4 28.4 0 0 1-4.9-8.2zm13.3 9.7h-.1l2.3 1.7a13.7 13.7 0 0 0 4.6 2.1 9.6 9.6 0 0 0 4.1.4 3.8 3.8 0 0 0 1.5-.5 1.1 1.1 0 0 0 .4-1.7 2.3 2.3 0 0 0-1.1-.9 6.3 6.3 0 0 0-2.3-.8 32.8 32.8 0 0 0-9.4-.3z"/><path d="M49.2 79.9l1.4.5 4.5 2.3.4.3c.1.2.1.4-.1.5l-.3.4-3 4.1a8.6 8.6 0 0 1-1.3 1.4h-.3c-.3-.1-.5-.4-.8-.6l-3.9-2.3-2-1.2c-.3-.2-.4-.4-.2-.6l1.4-1.5 1.2-1 2.5-2.1zm31.5-35.4l1.1.6 3.2 2.4.7.6a.4.4 0 0 1 .1.3 6.2 6.2 0 0 1-1.5 2.1L82 52.7h-.2c-.4.5-.7.5-1.2.2a31.8 31.8 0 0 1-3.3-3 3.9 3.9 0 0 1-.8-1.4c-.1-.1 0-.2 0-.3l1.8-1.9a10.7 10.7 0 0 1 1.6-1.3z"/></svg>
