<svg xmlns="http://www.w3.org/2000/svg" width="64" height="61.9" viewBox="0 0 64 61.9"><path d="M32 41.7a6.9 6.9 0 0 0 4.5-2.9 11.1 11.1 0 0 0 2-4.9 18.7 18.7 0 0 0 .5-5.3 32.9 32.9 0 0 0-.5-5.4 64.1 64.1 0 0 0-3-10.6c-1.2-3.5-2.7-6.9-4.2-10.3h1.4a101.1 101.1 0 0 0-4.2 10.3 64.1 64.1 0 0 0-3 10.6 49.5 49.5 0 0 0-.6 5.4 18.8 18.8 0 0 0 .6 5.3 10.9 10.9 0 0 0 1.9 4.9 7.1 7.1 0 0 0 4.6 2.9zm0 0a9.5 9.5 0 0 1-5-2.5 11.8 11.8 0 0 1-3-4.9 22.1 22.1 0 0 1-.6-5.7 55.1 55.1 0 0 1 .6-5.7 78.3 78.3 0 0 1 3-10.8c1.3-3.6 2.8-7 4.3-10.4L32 .2l.7 1.5c1.5 3.4 3 6.8 4.2 10.4a57.7 57.7 0 0 1 3 10.8 27.6 27.6 0 0 1 .6 5.7 18.4 18.4 0 0 1-.5 5.7 11.2 11.2 0 0 1-3 4.9 10.3 10.3 0 0 1-5 2.5z"/><path d="M8.4 58.5a11.8 11.8 0 0 0 .3-2.1l.3-2.1a30.3 30.3 0 0 1 1.2-4.3 21.1 21.1 0 0 1 5.1-7.2 12.6 12.6 0 0 1 8.3-3.1 16.1 16.1 0 0 1 4.4.6 16.5 16.5 0 0 1 4.2 1.6l.5.3-.2.5a14.2 14.2 0 0 1-3.9 6.7 14 14 0 0 1-7 3.4 27.5 27.5 0 0 0-6.9 2.1 21 21 0 0 0-6.3 3.6zm0 0a19.3 19.3 0 0 1 5.7-4.9 23.9 23.9 0 0 1 7.3-2.3 11.4 11.4 0 0 0 6.1-3 13.5 13.5 0 0 0 3.6-5.9l.3.8a16.2 16.2 0 0 0-7.8-2 10.9 10.9 0 0 0-7.3 2.8 12.7 12.7 0 0 0-2.7 3 19 19 0 0 0-2 3.7c-.2.6-.6 1.2-.9 1.9a10.8 10.8 0 0 0-.8 1.9c-.3.7-.6 1.4-.8 2s-.5 1.3-.7 2z"/><path d="M55.5 58.4c-.2-.8-.5-1.5-.7-2.1l-.7-1.9-.9-2c-.2-.6-.6-1.2-.9-1.9a17.8 17.8 0 0 0-1.9-3.6 16.3 16.3 0 0 0-2.7-3.1 11.6 11.6 0 0 0-7.4-2.7 15.6 15.6 0 0 0-7.8 2l.4-.9a12.2 12.2 0 0 0 9.7 9 22.5 22.5 0 0 1 7.2 2.3 19.3 19.3 0 0 1 5.7 4.9zm0 0a22.2 22.2 0 0 0-6.3-3.7 26.2 26.2 0 0 0-6.9-2 13.4 13.4 0 0 1-6.9-3.5 14 14 0 0 1-4-6.6V42l.5-.2a16.2 16.2 0 0 1 4.1-1.7 13.8 13.8 0 0 1 4.5-.5 12.7 12.7 0 0 1 8.3 3.1 20.2 20.2 0 0 1 5.1 7.2 32.5 32.5 0 0 1 1.1 4.2 14.3 14.3 0 0 1 .4 2.2c0 .8 0 1.5.1 2.1z"/><path d="M0 44.9c.4-.6.7-1.4 1.2-2.2l1.3-2.3L4 38.3a10.1 10.1 0 0 1 1.7-1.9 18.8 18.8 0 0 1 4.3-3.1 12.7 12.7 0 0 1 5.1-1.6 14.8 14.8 0 0 1 10 2.8 27 27 0 0 1 7.5 7.2l.3.4-.3.4a15.4 15.4 0 0 1-7.1 5.5 13.3 13.3 0 0 1-4.4.9l-2.3-.2-1.1-.2-1.1-.4-2.1-.7-2-.6-2-.6-2.1-.5a23.6 23.6 0 0 0-8.4-.8zm0 0a20.3 20.3 0 0 1 4.3-.7 32.4 32.4 0 0 1 4.4.2 40.2 40.2 0 0 1 8.4 2.3l.9.3 1 .2h2.1a10.4 10.4 0 0 0 3.9-.7 14.7 14.7 0 0 0 6.4-4.9v.8a28.7 28.7 0 0 0-7.1-6.8 13.6 13.6 0 0 0-9.1-2.5 13.9 13.9 0 0 0-4.5 1.4 18.5 18.5 0 0 0-4 2.9l-1.8 1.7c-.6.7-1.2 1.2-1.7 1.9s-1.1 1.3-1.6 1.9a17.5 17.5 0 0 0-1.6 2z"/><path d="M64 44.9a17.5 17.5 0 0 0-1.6-2L60.8 41c-.6-.7-1.2-1.2-1.7-1.9l-1.9-1.6a15.8 15.8 0 0 0-3.9-2.9 14.7 14.7 0 0 0-4.5-1.4 13.6 13.6 0 0 0-9.1 2.5 27.1 27.1 0 0 0-7.1 6.8v-.8a14.2 14.2 0 0 0 6.4 4.9 10.4 10.4 0 0 0 3.9.7h2l1-.2 1-.3a40.2 40.2 0 0 1 8.4-2.3 32.4 32.4 0 0 1 4.4-.2 21.4 21.4 0 0 1 4.3.6zm0 0a24.4 24.4 0 0 0-8.5.8l-2 .5-2.1.6-2 .6-2 .7-1.1.4-1.1.2-2.3.2a13.9 13.9 0 0 1-4.5-.9 15.7 15.7 0 0 1-7-5.5l-.3-.4.3-.4a26.7 26.7 0 0 1 7.4-7.2 15.1 15.1 0 0 1 10.1-2.8 13.2 13.2 0 0 1 5.1 1.6 18.8 18.8 0 0 1 4.3 3.1c.6.5 1.1 1.3 1.7 1.9l1.5 2.1 1.3 2.3c.5.8.8 1.6 1.2 2.2z"/><path d="M31.6 42.4a41.5 41.5 0 0 0-1-10.6 28.8 28.8 0 0 0-3.5-9.8 25.1 25.1 0 0 0-3.3-4 31.9 31.9 0 0 0-4.2-3 28.8 28.8 0 0 0-10-2.9l.9-.6a29.2 29.2 0 0 0 .3 10.2 24.2 24.2 0 0 0 3.8 9.4 24.7 24.7 0 0 0 7.5 6.9 37.5 37.5 0 0 0 9.5 4.4zm0 0a33.5 33.5 0 0 1-10.2-3.1 24.3 24.3 0 0 1-8-7.3 26.5 26.5 0 0 1-4.1-10A30.1 30.1 0 0 1 9 11.2v-.7h.7a30.2 30.2 0 0 1 10.5 3.1 24.4 24.4 0 0 1 4.5 3.2 20 20 0 0 1 3.5 4.3A28.4 28.4 0 0 1 32 31.5a32.5 32.5 0 0 1 .1 5.4 24.8 24.8 0 0 1-.5 5.5z"/><path d="M32.5 42.4a30.7 30.7 0 0 1-.7-5.3 33.5 33.5 0 0 1 .1-5.5 27.1 27.1 0 0 1 3.7-10.3 21.2 21.2 0 0 1 3.5-4.3 23.6 23.6 0 0 1 4.5-3.3 30.2 30.2 0 0 1 10.5-3.1h.7v.7a32.6 32.6 0 0 1-.1 10.7 28.2 28.2 0 0 1-4.1 10 25 25 0 0 1-7.9 7.3 34.3 34.3 0 0 1-10.2 3.1zm0 0a32.3 32.3 0 0 0 9.4-4.4 23.2 23.2 0 0 0 7.4-6.9 25.1 25.1 0 0 0 3.9-9.4 31.9 31.9 0 0 0 .3-10.2l.8.6a28.8 28.8 0 0 0-10 2.9 25.3 25.3 0 0 0-4.2 3.1 18.2 18.2 0 0 0-3.2 4 25.7 25.7 0 0 0-3.5 9.7 37.7 37.7 0 0 0-.9 10.6z"/></svg>