<svg id="Layer_1" data-name="Layer 1" xmlns="http://www.w3.org/2000/svg" width="16" height="16" viewBox="0 0 16 16"><title>logo-16</title><path d="M5.5,5.8V5.5l.3-.9.3-.8L6.5,3a6.4,6.4,0,0,0,.2-.7L7,1.6l.2-.5V.9h.2a.4.4,0,0,1-.1.3.6.6,0,0,1-.1.4L7,2.7a4.4,4.4,0,0,1-.2,1l-.3.9-.3,1c0,.1-.1.3-.1.4h0l.7.3H7l.3.2.3.4a1.4,1.4,0,0,1,.2.6.7.7,0,0,1-.1.5c0,.2,0,.3-.1.4l-.3.5-.2.3-.4.2-.5.3H4.8c0,.2-.1.3-.1.5a.6.6,0,0,0-.1.4l-.3.8a2.2,2.2,0,0,0-.2,1.1.6.6,0,0,0,.1.4.3.3,0,0,0,.3.3H5l1.8-.3.8-.2h.6l.2-.2.3-.4.3-.4.2-.4.3-.4.2-.3h0a1.4,1.4,0,0,0-.2-.7V9.6H9.4L9,10l-.6.4H8.2l.2-.3.3-.4L9,9.4a.5.5,0,0,1,.5-.3h.6l.2.2v.6h.1c.1-.1.1-.2.2-.2l.3-.3.6-.4.4-.3,1-.3h1.4l1.3.2h.2a3.9,3.9,0,0,0-1.5-.2h-.8a3.2,3.2,0,0,0-.9.3l-.5.2-.3.3-.3.2-.3.3-.3.3c-.1.1-.1.3-.2.4h-.1l.2.4.3.6.4.5h1.6l.6.2.3.2v.4l-.4.2h-.8a2,2,0,0,1-1.1-.3l-.4-.3h-1L8.8,13h0l-.4.4-.5.5H7.7l-.4.3-.8.5-1.3.3H3.6l-.7-.2-.6-.3-.5-.3-.6-.5L1,13.4l-.3-.5-.3-.5a1.4,1.4,0,0,1-.2-.7c-.1-.1-.1-.2-.1-.4a3.1,3.1,0,0,1-.1-1c0-.2.1-.3.1-.5A5,5,0,0,1,.3,8.6L.6,8l.3-.4.3-.4.2-.3L2,6.4,2.8,6l1.1-.3H5.5Zm-.1.5h-2l-.8.5-.3.3L2,7.4l-.3.5a1.4,1.4,0,0,0-.2.6,2.5,2.5,0,0,0-.2.7,2.5,2.5,0,0,0-.1.8v.8a.9.9,0,0,1,.1.5c.1.2.1.5.2.7l.3.6c.1.1.1.3.3.4l.2.3.6.5.5.3.9.3H5.8l.4-.2.5-.2h0l.4-.2.4-.4H4.6a1.1,1.1,0,0,1-.8-.2c-.2,0-.3-.1-.4-.3a.8.8,0,0,1-.2-.7,3,3,0,0,1,.2-1l.3-.8L4,10c0-.1.1-.2.1-.3H4l-.5-.3-.2-.3h.4l.5.3h.1a2.4,2.4,0,0,0,.2-.8l.3-.7.3-.9Zm.6.1v.2l-.3.9-.3.9c0,.2-.1.4-.1.6v.2c0,.1-.1.2-.1.3h.9l.4-.2L6.5,9l.3-.4A2.9,2.9,0,0,0,7,7.7a.8.8,0,0,0-.2-.5c0-.1,0-.1-.1-.1l-.3-.4-.3-.2Zm4.1,4.9-.9,1.3,1.5-.3Zm1.7,1.2h0l.3.2.5.3h.7a.4.4,0,0,0,.1-.3H11.8Z"/><path d="M6.2,10.3h.1l.6.3h0l-.4.5v.2H6.2l-.5-.3-.2-.2h0v-.2h.2l.3-.3Z"/><path d="M10.1,5.9h.1l.4.3h.1c0,.1-.1.2-.2.3l-.3.3h-.1l-.4-.4H9.5a.1.1,0,0,1,.1-.1l.2-.2.2-.2Z"/></svg>