<svg xmlns="http://www.w3.org/2000/svg" width="128" height="128" viewBox="0 0 128 128"><path fill="#fff" d="M63.1 86.7a14.3 14.3 0 0 0 9.1-5.7 24.6 24.6 0 0 0 3.9-9.8 40.7 40.7 0 0 0 1-10.5A65.9 65.9 0 0 0 76 49.9a142.3 142.3 0 0 0-5.8-21c-2.5-6.9-5.4-13.6-8.4-20.3h2.7c-3 6.7-5.9 13.4-8.4 20.3a142.3 142.3 0 0 0-5.8 21 65.9 65.9 0 0 0-1.1 10.8 40.7 40.7 0 0 0 1 10.5 23.3 23.3 0 0 0 3.9 9.8 14.3 14.3 0 0 0 9 5.7zm0 0a19.2 19.2 0 0 1-9.8-5 21.3 21.3 0 0 1-6-9.7 40.1 40.1 0 0 1-1.1-11.4 69.8 69.8 0 0 1 1.2-11.2 131.4 131.4 0 0 1 5.9-21.5c2.5-7 5.4-13.8 8.5-20.6l1.3-3 1.4 3c3.1 6.8 6 13.6 8.5 20.6a131.4 131.4 0 0 1 5.9 21.5 69.8 69.8 0 0 1 1.2 11.2A40.1 40.1 0 0 1 79 72a21.3 21.3 0 0 1-6 9.8 19.7 19.7 0 0 1-9.9 4.9z"/><path fill="#fff" d="M16.4 120c.3-1.2.3-2.6.5-4.1a12.4 12.4 0 0 1 .4-2.2l.3-2.1a61.4 61.4 0 0 1 2.3-8.4l2-3.9a23 23 0 0 1 2.3-3.7 28.1 28.1 0 0 1 13.5-11.3 26.3 26.3 0 0 1 8.8-1.6 32.2 32.2 0 0 1 8.8 1.1 34.5 34.5 0 0 1 4.2 1.4 25 25 0 0 1 4.1 1.9l.9.5-.2 1.1c-.4 1.3-.8 2.5-1.3 3.7s-1.2 2.3-1.8 3.5a27.5 27.5 0 0 1-4.8 6 36.1 36.1 0 0 1-3 2.5c-1.2.6-2.2 1.4-3.4 1.9a29.1 29.1 0 0 1-7.4 2.4l-3.6.7c-1.1.3-2.3.5-3.4.9l-1.7.5-1.7.7-1.6.7-1.7.6a43.7 43.7 0 0 0-12.5 7.2zm0 0a37.8 37.8 0 0 1 5.2-5.4 44.5 44.5 0 0 1 6.1-4.3 11.7 11.7 0 0 1 3.4-1.6l1.8-.7 1.8-.6 3.7-1 3.7-.7a26.7 26.7 0 0 0 6.6-2.1 16.9 16.9 0 0 0 2.9-1.7 28.8 28.8 0 0 0 2.7-2.2 24.9 24.9 0 0 0 4.3-5.4 18.2 18.2 0 0 0 1.6-3.1 13.5 13.5 0 0 0 1.1-3.2l.7 1.6a35.4 35.4 0 0 0-7.5-2.9 30.6 30.6 0 0 0-7.9-1 22.5 22.5 0 0 0-7.8 1.4 24.7 24.7 0 0 0-6.8 4.1 28 28 0 0 0-5.4 6 50.1 50.1 0 0 0-3.9 7.2c-.4 1.3-1.2 2.5-1.7 3.8s-1.2 2.5-1.7 3.9l-.7 1.9-.8 2c-.4 1.1-1 2.5-1.4 4z"/><path fill="#fff" d="M109.8 119.8a19.6 19.6 0 0 0-1.4-4.1 7.3 7.3 0 0 0-.7-1.9l-.7-2c-.5-1.3-1.2-2.6-1.7-3.9s-1.3-2.4-1.8-3.7a31.3 31.3 0 0 0-3.9-7.2 31 31 0 0 0-5.3-6.1 22.2 22.2 0 0 0-6.8-4 23 23 0 0 0-7.8-1.5 30.8 30.8 0 0 0-8 1 32.7 32.7 0 0 0-7.5 3l.7-1.7a20.8 20.8 0 0 0 1.2 3.2 29.6 29.6 0 0 0 1.5 3.1 23.1 23.1 0 0 0 4.4 5.4 18.4 18.4 0 0 0 5.6 3.9 22.1 22.1 0 0 0 6.6 2.1l3.7.7 3.6 1 1.8.6 1.8.7a15.8 15.8 0 0 1 3.5 1.6 42.8 42.8 0 0 1 6.1 4.4 28.9 28.9 0 0 1 5.1 5.4zm0 0a41.4 41.4 0 0 0-12.5-7.3l-1.6-.6-1.7-.7-1.6-.7-1.7-.5-3.5-.9-3.5-.7a27.9 27.9 0 0 1-7.4-2.4 22.7 22.7 0 0 1-3.4-1.9 23.4 23.4 0 0 1-3-2.5 27.5 27.5 0 0 1-4.8-6 23.1 23.1 0 0 1-1.8-3.5 31.9 31.9 0 0 1-1.3-3.7l-.3-1.1 1-.5a25 25 0 0 1 4.1-1.9l4.2-1.4a36.6 36.6 0 0 1 8.8-1.1 27.4 27.4 0 0 1 8.8 1.7 26 26 0 0 1 7.7 4.5 33.7 33.7 0 0 1 5.8 6.7c.9 1.2 1.5 2.5 2.3 3.7s1.3 2.6 1.9 3.9a49.8 49.8 0 0 1 2.3 8.4l.4 2.1c.1.7.3 1.4.4 2.2s.2 3 .4 4.2z"/><path fill="#fff" d="M-.3 93c.8-1.3 1.5-2.8 2.3-4.4s1.8-3 2.6-4.5 2-2.7 3-4.2L9.2 78a10.9 10.9 0 0 1 1.8-1.9 43.1 43.1 0 0 1 8.5-6.2 29 29 0 0 1 10.1-3.1 26.7 26.7 0 0 1 10.5 1 36 36 0 0 1 9.5 4.5 50.5 50.5 0 0 1 8 6.5 63.4 63.4 0 0 1 6.8 7.8l.6.9-.6.8a33.7 33.7 0 0 1-2.9 3.5 30.8 30.8 0 0 1-3.3 3 33.3 33.3 0 0 1-7.8 4.4 26.9 26.9 0 0 1-8.9 1.6 22.7 22.7 0 0 1-4.5-.3l-2.2-.4-2.1-.7-2.1-.7-2-.7-4-1.3-4.1-1.1-2-.4-2-.5a76 76 0 0 0-8.3-1.6L4 92.8a31 31 0 0 0-4.3.2zm0 0a35.7 35.7 0 0 1 8.5-1.3 50.6 50.6 0 0 1 8.7.3l2.2.2 2.1.5 4.2 1.2 4.2 1.3 2 .7 2 .6 1.9.6 2 .4a18 18 0 0 0 4 .3 23.3 23.3 0 0 0 7.8-1.4 24.4 24.4 0 0 0 7-4 19.3 19.3 0 0 0 3-2.7 18 18 0 0 0 2.6-3v1.6a49.2 49.2 0 0 0-6.4-7.3 50.2 50.2 0 0 0-7.6-6.2 35.7 35.7 0 0 0-8.6-4.1 25.1 25.1 0 0 0-9.4-.9 24.2 24.2 0 0 0-9 2.8 35.4 35.4 0 0 0-4.1 2.6 35.7 35.7 0 0 0-3.7 3.1l-3.6 3.3-3.4 3.6L2.8 89c-.9 1.2-2.1 2.5-3.1 4z"/><path fill="#fff" d="M126.6 93c-1-1.5-2.2-2.8-3.1-4l-3.3-3.8-3.4-3.6-3.6-3.3a35.7 35.7 0 0 0-3.7-3.1 35.4 35.4 0 0 0-4.1-2.6 24.2 24.2 0 0 0-9-2.8 25.1 25.1 0 0 0-9.4.9 35.7 35.7 0 0 0-8.6 4.1 50.2 50.2 0 0 0-7.6 6.2 49.2 49.2 0 0 0-6.4 7.3v-1.6a18 18 0 0 0 2.6 3 19.3 19.3 0 0 0 3 2.7 24.4 24.4 0 0 0 7 4 23.3 23.3 0 0 0 7.8 1.4 18 18 0 0 0 4-.3l2-.4 1.9-.6 2-.6 2-.7 4.2-1.3 4.2-1.2 2.1-.5 2.2-.2a50.3 50.3 0 0 1 8.7-.3 35.7 35.7 0 0 1 8.5 1.3zm0 0a31 31 0 0 0-4.3-.2l-4.2.3a76 76 0 0 0-8.3 1.6l-2 .5-2 .4-4.1 1.1-4 1.3-2 .7-2.1.7-2.1.7-2.2.4a22.7 22.7 0 0 1-4.5.3 26.9 26.9 0 0 1-8.9-1.6 33.3 33.3 0 0 1-7.8-4.4 30.8 30.8 0 0 1-3.3-3 33.7 33.7 0 0 1-2.9-3.5l-.6-.8.6-.9a63.4 63.4 0 0 1 6.8-7.8 50.5 50.5 0 0 1 8-6.5 36 36 0 0 1 9.5-4.5 26.7 26.7 0 0 1 10.5-1 29 29 0 0 1 10.1 3.1 43.1 43.1 0 0 1 8.5 6.2 10.9 10.9 0 0 1 1.8 1.9l1.6 1.9c1 1.5 2 2.8 3 4.2s1.7 2.9 2.6 4.5 1.5 3.1 2.3 4.4z"/><path fill="#fff" d="M62.3 88a81.8 81.8 0 0 0-1.9-21 51 51 0 0 0-7-19.3 38 38 0 0 0-6.5-7.9 45 45 0 0 0-8.3-6A56.6 56.6 0 0 0 18.8 28l1.7-1.2a56 56 0 0 0-.6 10.1A56.9 56.9 0 0 0 21.1 47a48.8 48.8 0 0 0 7.7 18.7 44.9 44.9 0 0 0 14.8 13.6l2.1 1.4 2.2 1.3a49.3 49.3 0 0 0 4.6 2.3l2.4 1.1 2.5.9a46.5 46.5 0 0 0 4.9 1.7zm0 0a63.7 63.7 0 0 1-20.2-6.1 45.4 45.4 0 0 1-8.7-6.4 42.1 42.1 0 0 1-7.1-8.1 53.1 53.1 0 0 1-8.2-19.8A62.6 62.6 0 0 1 16.9 37a65.8 65.8 0 0 1 .6-10.8l.2-1.3h1.5A56.9 56.9 0 0 1 40 31.2a43.3 43.3 0 0 1 9 6.4 40.2 40.2 0 0 1 6.9 8.5 54.1 54.1 0 0 1 7.5 20.4 66.5 66.5 0 0 1 .3 10.9A62.8 62.8 0 0 1 62.3 88z"/><path fill="#fff" d="M64.1 88.1a64.2 64.2 0 0 1-1.4-10.6 79.3 79.3 0 0 1 .2-10.9 55.7 55.7 0 0 1 7.4-20.4 44.6 44.6 0 0 1 7-8.6 46.7 46.7 0 0 1 8.9-6.4 59 59 0 0 1 20.8-6.3h1.4l.3 1.4a64 64 0 0 1 .6 10.7 62.6 62.6 0 0 1-1.2 10.6 51.7 51.7 0 0 1-8.1 19.8 48.1 48.1 0 0 1-15.7 14.5 66.6 66.6 0 0 1-20.2 6.2zm0 0l4.9-1.7 2.5-1 2.3-1a49.5 49.5 0 0 0 4.6-2.4 17.1 17.1 0 0 0 2.3-1.3l2.1-1.4a47 47 0 0 0 14.8-13.6 50.3 50.3 0 0 0 7.6-18.7 70.7 70.7 0 0 0 1.1-10.2 56 56 0 0 0-.6-10.1l1.7 1.2a56.7 56.7 0 0 0-19.8 5.9 45 45 0 0 0-8.3 6 37.6 37.6 0 0 0-6.4 7.9 52.1 52.1 0 0 0-7 19.4 81.7 81.7 0 0 0-1.8 21z"/></svg>