<svg xmlns="http://www.w3.org/2000/svg" width="32" height="32" viewBox="0 0 32 32"><path d="M21.9 8.4l1 8.7h5c.1.1.1.2 0 .2h-.4l-3.8.4h-.8a1.9 1.9 0 0 1 .1.8 51.5 51.5 0 0 1 .2 5.6 12.3 12.3 0 0 1-.8 3.8 6 6 0 0 1-4.6 3.7 10.3 10.3 0 0 1-3.9-.2 10.8 10.8 0 0 1-4.4-2.2 5.2 5.2 0 0 1-1.3-1.7 2.8 2.8 0 0 1 .1-2.5 5.5 5.5 0 0 1 1.8-1.9 14.7 14.7 0 0 1 2.8-1.4 15.8 15.8 0 0 1 3.7-1.1l1-.2c.1 0 .2 0 .2.1h-.3a11.9 11.9 0 0 0-3.2 1 11.6 11.6 0 0 0-2.4 1.4 3.9 3.9 0 0 0-1.4 1.7 3.1 3.1 0 0 0 .2 3.3 5.8 5.8 0 0 0 2.8 2.1 7.1 7.1 0 0 0 2.4.6 2.6 2.6 0 0 0 1.7-.7 5.4 5.4 0 0 0 1.1-1.8 10.1 10.1 0 0 0 .5-2.5 27.7 27.7 0 0 0 .1-4.1c0-1-.1-2-.1-3.1h-.6a34 34 0 0 1-4.5.3H9.9c0-.1.1-.1.1-.2h.2l1.9-.3 5-.8 1.9-.2h.2l-.3-8.8A17.9 17.9 0 0 1 6.7 2.7a3.8 3.8 0 0 0-.3 1 8.2 8.2 0 0 0 .2 3.5 7.5 7.5 0 0 0 1.3 2.5 9 9 0 0 0 3.2 2.6l1 .3h.2c.1 0 .1 0 .1.1H12a6 6 0 0 1-2.7-.7 13.5 13.5 0 0 1-2.7-2 6.7 6.7 0 0 1-2-3.8 13.3 13.3 0 0 1-.3-2.8 3.9 3.9 0 0 1 .6-1.8A2.1 2.1 0 0 1 6.2.9a3.2 3.2 0 0 1 2.5.8l2.4 1.9a16 16 0 0 0 7.8 3.3c.1 0 .1-.1.1-.2s.1-2.2.2-3.2a6.5 6.5 0 0 1 .5-2 1.9 1.9 0 0 1 .7-1 2.9 2.9 0 0 1 1.3-.5 3.4 3.4 0 0 1 2.2.5 5.9 5.9 0 0 1 2.4 2.3 3.4 3.4 0 0 1 .5 2.2 3.1 3.1 0 0 1-1.5 2.3 8.3 8.3 0 0 1-2.2.8zM21.8 7a4.4 4.4 0 0 0 1.6-.6 2.4 2.4 0 0 0 1.1-2.6 5.3 5.3 0 0 0-1.7-2.5l-.6-.4c-.1.2-.1.3-.2.4a7 7 0 0 0-.3 1.4v2.7a8.1 8.1 0 0 1 .1 1.6z"/></svg>