<svg id="Layer_1" data-name="Layer 1" xmlns="http://www.w3.org/2000/svg" width="128" height="128" viewBox="0 0 128 128"><title>logo</title><circle cx="64" cy="64" r="64"/><path d="M63.3,75.1A9.9,9.9,0,0,0,69.8,71a16.9,16.9,0,0,0,2.8-7,24.3,24.3,0,0,0,.8-7.6,68.7,68.7,0,0,0-.8-7.8,112.6,112.6,0,0,0-4.2-15.1c-1.8-5-3.9-9.8-6.1-14.6h2a154.3,154.3,0,0,0-6,14.6,89.1,89.1,0,0,0-4.2,15.1,41.3,41.3,0,0,0-.8,7.8A27.6,27.6,0,0,0,54,64a17.8,17.8,0,0,0,2.8,7A10.1,10.1,0,0,0,63.3,75.1Zm0,0a13.4,13.4,0,0,1-7.1-3.6,15.3,15.3,0,0,1-4.3-7,28.2,28.2,0,0,1-.8-8.2,52.9,52.9,0,0,1,.9-8,90.9,90.9,0,0,1,4.2-15.5c1.8-5.1,3.9-10,6.1-14.8l1-2.2,1,2.2c2.2,4.8,4.3,9.7,6.1,14.8a101.5,101.5,0,0,1,4.3,15.5,42.6,42.6,0,0,1,.8,8,32.1,32.1,0,0,1-.7,8.2,16.4,16.4,0,0,1-4.4,7.1A14,14,0,0,1,63.3,75.1Z" fill="#fff"/><path d="M29.7,99.1a21.6,21.6,0,0,0,.3-3c.2-1.1.4-2,.5-3.1a45,45,0,0,1,1.7-6c.5-.9.9-1.9,1.4-2.8s1-1.8,1.6-2.7a21.8,21.8,0,0,1,4.3-4.8A19.2,19.2,0,0,1,45,73.4a19.5,19.5,0,0,1,6.3-1.2,27.4,27.4,0,0,1,6.4.8,27.1,27.1,0,0,1,5.9,2.4l.7.4-.2.7A19.3,19.3,0,0,1,48.5,90.9l-2.5.5-2.5.7-1.2.4-1.2.4-1.2.6-1.2.4A30.2,30.2,0,0,0,29.7,99.1Zm0,0a28.9,28.9,0,0,1,8.1-7,11.5,11.5,0,0,1,2.5-1.2l1.3-.5,1.3-.4,2.6-.7,2.6-.5a15.8,15.8,0,0,0,4.8-1.5A14.3,14.3,0,0,0,55,86.1a15.6,15.6,0,0,0,2-1.6,17.7,17.7,0,0,0,5-8.4l.5,1.1a23.3,23.3,0,0,0-5.4-2.1,22.2,22.2,0,0,0-5.7-.7,15.6,15.6,0,0,0-10.5,4A20,20,0,0,0,37,82.7a32.5,32.5,0,0,0-2.8,5.2c-.3.9-.9,1.8-1.3,2.7a23.3,23.3,0,0,0-1.1,2.8c-.4.9-.8,1.9-1.1,2.8A16.3,16.3,0,0,0,29.7,99.1Z" fill="#fff"/><path d="M96.9,98.9a16.3,16.3,0,0,0-1-2.9l-1-2.8-1.2-2.8c-.4-.9-1-1.8-1.3-2.7a32.5,32.5,0,0,0-2.8-5.2,22.5,22.5,0,0,0-3.8-4.3,15.9,15.9,0,0,0-10.6-4,22.2,22.2,0,0,0-5.7.7A23.3,23.3,0,0,0,64.1,77l.5-1.1a18.7,18.7,0,0,0,5.1,8.4,10,10,0,0,0,1.9,1.6l2.1,1.2a15.8,15.8,0,0,0,4.8,1.5l2.6.5,2.7.7,1.3.4,1.2.5a11.5,11.5,0,0,1,2.5,1.2A28.9,28.9,0,0,1,96.9,98.9Zm0,0a30.2,30.2,0,0,0-9-5.2l-1.2-.4-1.1-.6-1.2-.4-1.3-.4-2.4-.7-2.6-.5a18.8,18.8,0,0,1-9.9-4.8,18.3,18.3,0,0,1-3.5-4.4,22,22,0,0,1-2.2-5.2l-.2-.7.7-.4A24.5,24.5,0,0,1,75.3,72a18.8,18.8,0,0,1,11.9,4.5,24.1,24.1,0,0,1,4.2,4.8c.6.9,1.1,1.8,1.6,2.7l1.4,2.8a45,45,0,0,1,1.7,6c.2,1.1.4,2,.5,3.1A21.6,21.6,0,0,0,96.9,98.9Z" fill="#fff"/><path d="M17.6,79.7c.6-1,1.1-2.1,1.7-3.2s1.3-2.2,1.9-3.2l2.1-3,1.2-1.5a8,8,0,0,1,1.3-1.3A31.1,31.1,0,0,1,31.9,63a22.3,22.3,0,0,1,7.2-2.2,19.3,19.3,0,0,1,7.6.7,26.8,26.8,0,0,1,6.8,3.3,32.6,32.6,0,0,1,5.8,4.6,44.6,44.6,0,0,1,4.9,5.7l.4.6-.4.6a21.8,21.8,0,0,1-4.5,4.6,18.5,18.5,0,0,1-5.6,3.2,19.6,19.6,0,0,1-6.4,1.2,18.2,18.2,0,0,1-3.2-.3l-1.6-.3-1.5-.4-3-1-2.9-1-2.9-.7-1.4-.3-1.5-.4A35.1,35.1,0,0,0,17.6,79.7Zm0,0a21.7,21.7,0,0,1,6.2-1,42.4,42.4,0,0,1,6.2.2,15.5,15.5,0,0,1,3.1.6l3.1.8,2.9.9,2.9,1,1.4.4,1.4.3a14.6,14.6,0,0,0,2.9.2,15.9,15.9,0,0,0,5.7-1,19.4,19.4,0,0,0,9-7v1.2a38.4,38.4,0,0,0-10-9.7c-3.9-2.6-8.5-4.2-13-3.6a16.4,16.4,0,0,0-6.5,2A28.2,28.2,0,0,0,30,66.8a20.4,20.4,0,0,0-2.7,2.3l-2.6,2.4-2.5,2.6-2.3,2.7Z" fill="#fff"/><path d="M109,79.7c-.7-1.1-1.6-2.1-2.2-2.9l-2.4-2.7L102,71.5l-2.6-2.4-2.7-2.3A28.2,28.2,0,0,0,93.8,65a17.5,17.5,0,0,0-6.5-2c-4.6-.6-9.1,1-13,3.6a38.8,38.8,0,0,0-10.1,9.7V75.1a19.7,19.7,0,0,0,9.1,7,15.4,15.4,0,0,0,5.6,1,13.7,13.7,0,0,0,2.9-.2l1.4-.3,1.4-.4,2.9-1,3-.9,3-.8a15.5,15.5,0,0,1,3.1-.6,44.2,44.2,0,0,1,6.3-.2A21.6,21.6,0,0,1,109,79.7Zm0,0a35.1,35.1,0,0,0-12.1,1.2l-1.4.4-1.5.3-2.9.7-2.9,1-2.9,1-1.6.4-1.6.3a16.6,16.6,0,0,1-3.2.3,19.6,19.6,0,0,1-6.4-1.2,18.5,18.5,0,0,1-5.6-3.2,21.8,21.8,0,0,1-4.5-4.6l-.4-.6.4-.6a44.6,44.6,0,0,1,4.9-5.7,36.6,36.6,0,0,1,5.8-4.6,28.5,28.5,0,0,1,6.8-3.3,19.3,19.3,0,0,1,7.6-.7A22.9,22.9,0,0,1,94.8,63a38.4,38.4,0,0,1,6.1,4.5,7.4,7.4,0,0,1,1.2,1.3l1.2,1.5,2.2,3c.6,1,1.2,2,1.8,3.2S108.4,78.7,109,79.7Z" fill="#fff"/><path d="M62.7,76.1A57.8,57.8,0,0,0,61.3,61a37.9,37.9,0,0,0-5-14,28.5,28.5,0,0,0-4.7-5.7,32.6,32.6,0,0,0-6-4.3,40.3,40.3,0,0,0-14.2-4.2l1.2-.8A44.8,44.8,0,0,0,33,46.6,36.1,36.1,0,0,0,38.6,60a33.2,33.2,0,0,0,10.6,9.8A50.5,50.5,0,0,0,62.7,76.1Zm0,0a51.2,51.2,0,0,1-14.6-4.4A35.4,35.4,0,0,1,36.8,61.2,37.7,37.7,0,0,1,30.9,47a49.1,49.1,0,0,1-.9-7.7,49.8,49.8,0,0,1,.5-7.7v-1h1a42.4,42.4,0,0,1,15.1,4.4,33,33,0,0,1,6.4,4.7,32.5,32.5,0,0,1,5,6.1,39.6,39.6,0,0,1,5.4,14.7A50.4,50.4,0,0,1,62.7,76.1Z" fill="#fff"/><path d="M64,76.1a49.6,49.6,0,0,1-.8-15.4,39.3,39.3,0,0,1,5.3-14.8,32.5,32.5,0,0,1,5-6.1,33,33,0,0,1,6.4-4.7,42,42,0,0,1,15-4.5h1l.2,1a51.1,51.1,0,0,1,.5,7.8,49.2,49.2,0,0,1-.9,7.6,38.9,38.9,0,0,1-5.8,14.3A35.4,35.4,0,0,1,78.6,71.7,48.2,48.2,0,0,1,64,76.1Zm0,0a50.5,50.5,0,0,0,13.5-6.3A33.2,33.2,0,0,0,88.1,60a37,37,0,0,0,5.5-13.5A44.8,44.8,0,0,0,94,31.9l1.2.9A41.5,41.5,0,0,0,80.9,37,35.6,35.6,0,0,0,75,41.3a29.1,29.1,0,0,0-4.7,5.8,38,38,0,0,0-5,13.9A58.6,58.6,0,0,0,64,76.1Z" fill="#fff"/></svg>