<svg xmlns="http://www.w3.org/2000/svg" width="64" height="61.9" viewBox="0 0 64 61.9"><path d="M43.7 16.2L45.5 33h9.3l.4.2c.3.2.3.4 0 .5l-.7.2-7.5.7h-1.4c.1.6.1 1.1.2 1.6a99.2 99.2 0 0 1 .3 10.9 22.6 22.6 0 0 1-1.5 7.3 11.4 11.4 0 0 1-8.9 7.1 17.3 17.3 0 0 1-7.5-.3 18.9 18.9 0 0 1-8.6-4.2 11.5 11.5 0 0 1-2.5-3.3 5.3 5.3 0 0 1 .2-5.3 10.7 10.7 0 0 1 3.5-3.8 38.9 38.9 0 0 1 5.4-2.7 30 30 0 0 1 7.2-2.2l1.9-.2h.7l-.2.2-.8.2a31.8 31.8 0 0 0-6 1.8 27.3 27.3 0 0 0-4.7 2.7 8.6 8.6 0 0 0-2.7 3.3 5.9 5.9 0 0 0 .4 6.4 11.5 11.5 0 0 0 5.3 4.2 15.2 15.2 0 0 0 4.8 1 4 4 0 0 0 3.2-1.4 8.9 8.9 0 0 0 2.1-3.3 20.8 20.8 0 0 0 1.1-4.6 54.8 54.8 0 0 0 .1-8.1c-.1-1.9-.1-3.9-.2-5.9v-.3h-1.1a84.8 84.8 0 0 1-8.8.6l-7 .2h-.8c-.1 0-.2-.2-.2-.2l.2-.3h.4l3.6-.5 9.6-1.5 3.8-.5h.2l-.5-17c-9.2-.8-17.2-4.3-23.5-11.3a6.5 6.5 0 0 0-.7 2.1 15.6 15.6 0 0 0 .5 6.8 12.6 12.6 0 0 0 2.5 4.7 18.1 18.1 0 0 0 6.2 5.1l1.9.6h.4l.2.2-.2.2h-.6a12.4 12.4 0 0 1-5.3-1.5 23.5 23.5 0 0 1-5.2-3.6 14.3 14.3 0 0 1-3.9-7.5A18.7 18.7 0 0 1 9.6 7a7 7 0 0 1 1.2-3.5 3.1 3.1 0 0 1 2.5-1.3 6.7 6.7 0 0 1 4.9 1.5c1.5 1.3 2.9 2.5 4.5 3.7a29.4 29.4 0 0 0 15 6.2h.2v-.5c.2-2.1.3-4.1.5-6.2a13.8 13.8 0 0 1 .9-3.9A4.9 4.9 0 0 1 40.7.9a4.5 4.5 0 0 1 2.6-.9 6.9 6.9 0 0 1 4.2 1 12 12 0 0 1 4.7 4.5 6.8 6.8 0 0 1 .9 4.2 5.7 5.7 0 0 1-2.9 4.4 13.1 13.1 0 0 1-4.3 1.6zm-.2-2.7a7.7 7.7 0 0 0 3-1.1 4.4 4.4 0 0 0 2.1-5 8.2 8.2 0 0 0-3.3-4.9l-1.1-.7a5.9 5.9 0 0 1-.4.8 11.9 11.9 0 0 0-.5 2.6 46.9 46.9 0 0 0 0 5.3c.1 1 .1 2 .2 3z"/></svg>