<svg id="Layer_1" data-name="Layer 1" xmlns="http://www.w3.org/2000/svg" width="64" height="61.9" viewBox="0 0 64 61.9"><title>logo-64</title><path d="M22,22.3l.5-1.5c.3-1.1.7-2.2,1.1-3.3s.7-2.2,1.1-3.2L25.9,11c.3-.9.7-1.8,1.1-2.8s.7-1.9,1.1-2.9a18,18,0,0,1,.8-2.1l.4-.6a.8.8,0,0,1,.7-.1v.2c-.1.5-.1.9-.2,1.3s-.3,1.2-.5,1.8-.7,2.6-1.1,3.9-.7,2.6-1.1,3.9-.8,2.6-1.1,3.9l-1.2,3.9c-.1.5-.3,1-.4,1.5s0,.2.1.3l2.6,1.1.8.6,1.2.9a5.3,5.3,0,0,1,1.2,1.4,5.1,5.1,0,0,1,.9,2.7,6.8,6.8,0,0,1-.2,2,10.4,10.4,0,0,1-.6,1.6,17.4,17.4,0,0,1-1.1,1.8,5.2,5.2,0,0,1-1,1.1l-1.4,1a8.2,8.2,0,0,1-1.9.9,11,11,0,0,1-2.6.6,13.6,13.6,0,0,1-2.9-.3h-.2l-.6,1.9L18.2,42c-.4,1.1-.7,2.2-1.1,3.3a13.6,13.6,0,0,0-.8,4.4,4.7,4.7,0,0,0,.3,1.7,1.8,1.8,0,0,0,1.5,1.2,6.6,6.6,0,0,0,2-.1,60.1,60.1,0,0,0,7.2-1.2l3-.6,2-.5c.1,0,.2-.2.3-.3l.9-1.1,1.2-1.5,1.2-1.6.9-1.4,1.3-1.7a7.6,7.6,0,0,1,.8-1.1.4.4,0,0,0,.1-.3,25.8,25.8,0,0,1-.8-2.6l-.3-1.1h0l-.3.2L36,38.8l-2.2,1.7c-.2.1-.4.3-.7.2s-.2-.1-.1-.2a6.7,6.7,0,0,1,.6-1.2l1.1-1.5a6.9,6.9,0,0,1,1.1-1.3,4.1,4.1,0,0,1,2-1.2,3.9,3.9,0,0,1,2.6.2,1.1,1.1,0,0,1,.6.7l.3,1.5a2.5,2.5,0,0,0,.1.8h.1l.8-.8,1.2-1.2,2.3-1.6,1.9-1.1a17.3,17.3,0,0,1,3.7-1.1,22.7,22.7,0,0,1,5.8-.4,18.8,18.8,0,0,1,5.3.7l1.2.6h.2l-.2.2h-.5a20.9,20.9,0,0,0-6.1-.8l-3.1.4a22.6,22.6,0,0,0-3.7,1.1,11.8,11.8,0,0,0-1.9,1.1l-1.3,1-1.1,1a11.4,11.4,0,0,0-1.1,1.1,6.9,6.9,0,0,0-1.1,1.3l-1.1,1.3h-.1c-.3.2-.3.2-.1.6l.8,1.5c.4.8.8,1.6,1.3,2.4a7.5,7.5,0,0,0,1.3,1.8c.1.2.2.2.4.2a25.8,25.8,0,0,1,6.2.3,7.5,7.5,0,0,1,2.4.8,2.4,2.4,0,0,1,1,1c0,.2.1.3.1.4a1.2,1.2,0,0,1-.5,1,3.1,3.1,0,0,1-1.4.7,10.2,10.2,0,0,1-3.5.2,13.3,13.3,0,0,1-4.3-1.3l-1.4-1-.7-.6h-.3l-3.3.6-5.2,1.1-.4.2-1.2,1.4-2.3,2.1-.5.5-1.7,1.2A25.5,25.5,0,0,1,26,58a22.3,22.3,0,0,1-5.1,1.2,12.2,12.2,0,0,1-3.8.1L14.2,59a12.5,12.5,0,0,1-2.6-.7L9.3,57.1,7.1,55.7a14.3,14.3,0,0,1-2.3-2l-1-1.2L2.6,50.7,1.5,48.6a27.6,27.6,0,0,1-.8-2.7L.4,44.3a14.3,14.3,0,0,1-.2-4.1,14.1,14.1,0,0,1,.1-2.1,24,24,0,0,1,1-4.8l1.2-2.4,1-1.7a8.8,8.8,0,0,1,1.2-1.7l1.1-1.1A12.4,12.4,0,0,1,8,24.6a17.3,17.3,0,0,1,3.3-1.7,16,16,0,0,1,4.2-1h3.3l3,.5ZM21.4,24l-1.8-.2H17.5a13.4,13.4,0,0,0-4,.7,10.9,10.9,0,0,0-3.3,1.9,5.2,5.2,0,0,0-1.1,1L8,28.5a19.8,19.8,0,0,0-1.1,2,11.9,11.9,0,0,0-1.1,2.6,26.8,26.8,0,0,0-.7,2.7c-.1,1.1-.3,2.1-.3,3.2s.1,2.1.1,3.1a15.5,15.5,0,0,0,.4,2.1,11,11,0,0,0,.6,2.6,17.9,17.9,0,0,0,1.2,2.4,9.1,9.1,0,0,0,1.1,1.6l1.1,1.3a25.2,25.2,0,0,0,2.5,2.1,10.8,10.8,0,0,0,1.8,1.1,19,19,0,0,0,3.6,1.2l2.1.4h1.6a7.6,7.6,0,0,0,2.1-.3l1.9-.7a7.5,7.5,0,0,0,2-1H27l1.3-.8L30,52.7c.1-.1.3-.2.4-.4l.4-.3h-.2l-1.7.4-3,.6-3.1.5a22.7,22.7,0,0,1-4.5.3,6.7,6.7,0,0,1-3.1-.7,4.3,4.3,0,0,1-1.7-1.3,4.3,4.3,0,0,1-.7-2.9,11.6,11.6,0,0,1,.9-4.1,24.9,24.9,0,0,0,1.1-2.9L16,38.8c.1-.4.3-.7.4-1.1a.3.3,0,0,0,.1-.2l-.7-.4A6.5,6.5,0,0,1,14,35.6c-.3-.3-.6-.5-.7-.9s-.1-.3.2-.3h.9c.1.2.3.3.5.5a5.9,5.9,0,0,0,1.9,1.1c.2.1.2.1.3-.1l1.1-3c.4-1,.8-2,1.1-3s.9-2.4,1.3-3.5S21.1,24.9,21.4,24Zm2.5.7-.3.7c-.4,1.2-.7,2.4-1.1,3.5l-1.2,3.7a15.5,15.5,0,0,1-.7,2.3c-.1.3-.1.6-.2.9a4.9,4.9,0,0,0-.4,1.1h.1a8.6,8.6,0,0,0,1.6,0,4.8,4.8,0,0,0,2-.4,3.8,3.8,0,0,0,1.3-.6,4.3,4.3,0,0,0,1-.9,16.3,16.3,0,0,0,1.1-1.7,8.1,8.1,0,0,0,.8-3.4,3.8,3.8,0,0,0-.6-2.3l-.4-.5a8.7,8.7,0,0,0-1.3-1.5,3.5,3.5,0,0,0-1.2-.7ZM40.5,44l-3.9,5.3L43,48.1A15.5,15.5,0,0,1,40.5,44Zm6.6,4.8h0l1.1.9a10.1,10.1,0,0,0,2.4,1,4.4,4.4,0,0,0,2,.2l.7-.2a.6.6,0,0,0,.2-.9,1.2,1.2,0,0,0-.5-.5L51.8,49A18.3,18.3,0,0,0,47.1,48.8Z"/><path d="M24.6,40l.7.3,2.2,1.1c.1.1.2.1.2.2s.1.2,0,.2l-.2.3c-.5.6-.9,1.3-1.5,2l-.6.7h-.2l-.4-.3-1.9-1.2-1-.6c-.1-.1-.2-.2-.1-.3l.7-.7.6-.5,1.3-1.1Z"/><path d="M40.3,22.4l.5.3,1.6,1.2.4.3s.1.1,0,.1a2.3,2.3,0,0,1-.7,1L41,26.4h-.1c-.2.3-.4.3-.7.1a11.4,11.4,0,0,1-1.6-1.5,1.6,1.6,0,0,1-.4-.7h0l.9-1,.8-.7Z"/></svg>