<svg id="Layer_1" data-name="Layer 1" xmlns="http://www.w3.org/2000/svg" width="32" height="32" viewBox="0 0 32 32"><title>logo-32</title><circle cx="16" cy="16" r="16"/><path d="M15.8,18.8a2.5,2.5,0,0,0,1.7-1.1,8.7,8.7,0,0,0,.7-1.7,9.7,9.7,0,0,0-.1-3.8,10.6,10.6,0,0,0-.4-1.9l-.6-1.9c-.4-1.3-1-2.5-1.5-3.7h.5c-.5,1.2-1.1,2.4-1.5,3.7a10.6,10.6,0,0,0-.6,1.9c-.2.6-.3,1.2-.5,1.9a9.7,9.7,0,0,0,0,3.8,4.5,4.5,0,0,0,.7,1.8A2.7,2.7,0,0,0,15.8,18.8Zm0,0a3.2,3.2,0,0,1-1.7-.9A3.4,3.4,0,0,1,13,16.1a9,9,0,0,1,0-4,11.7,11.7,0,0,1,.5-2,7,7,0,0,1,.6-1.9c.4-1.3,1-2.5,1.5-3.7l.2-.6.3.6c.5,1.2,1.1,2.4,1.5,3.7l.6,1.9c.2.6.3,1.3.5,2a10.8,10.8,0,0,1,0,4,5.4,5.4,0,0,1-1.1,1.8A3.1,3.1,0,0,1,15.8,18.8Z" fill="#fff"/><path d="M7.4,24.8c.1-.4.1-1,.2-1.5l.5-1.5a5.8,5.8,0,0,1,1.8-2.6,4.6,4.6,0,0,1,2.9-1.1,5.7,5.7,0,0,1,3.1.7h.2v.2a4.2,4.2,0,0,1-1.4,2.4,4.2,4.2,0,0,1-2.5,1.2,11.3,11.3,0,0,0-2.4.8A7.6,7.6,0,0,0,7.4,24.8Zm0,0a8.6,8.6,0,0,1,2-1.8,15.3,15.3,0,0,1,2.6-.8,3.6,3.6,0,0,0,2.2-1.1A4.2,4.2,0,0,0,15.5,19v.3a6.4,6.4,0,0,0-2.8-.7,4.2,4.2,0,0,0-2.6,1A6.7,6.7,0,0,0,8.6,22l-.7,1.3A13.1,13.1,0,0,1,7.4,24.8Z" fill="#fff"/><path d="M24.2,24.7a5.8,5.8,0,0,0-.5-1.4l-.6-1.4a6.6,6.6,0,0,0-1.7-2.4,3.9,3.9,0,0,0-2.6-.9,4.9,4.9,0,0,0-2.8.7V19a6.7,6.7,0,0,0,1.3,2.1,4.6,4.6,0,0,0,2.2,1.1,6.1,6.1,0,0,1,2.6.8A5.5,5.5,0,0,1,24.2,24.7Zm0,0A8,8,0,0,0,22,23.4a10.3,10.3,0,0,0-2.5-.7A5.8,5.8,0,0,1,17,21.5a7.2,7.2,0,0,1-1.4-2.4v-.2h.1a6.8,6.8,0,0,1,3.1-.8,4.6,4.6,0,0,1,3,1.1,9.3,9.3,0,0,1,1.8,2.6,8.3,8.3,0,0,1,.4,1.5C24.1,23.8,24.1,24.3,24.2,24.7Z" fill="#fff"/><path d="M4.4,19.9a11.4,11.4,0,0,0,.9-1.6,17.1,17.1,0,0,1,1.1-1.4,6.5,6.5,0,0,1,3.4-1.7,5.8,5.8,0,0,1,3.6,1,13.3,13.3,0,0,1,2.7,2.6h.1v.2A6.1,6.1,0,0,1,13.5,21a5,5,0,0,1-3.2.1,14,14,0,0,0-2.9-.9A9.9,9.9,0,0,0,4.4,19.9Zm0,0a8.1,8.1,0,0,1,3.1-.2,10.4,10.4,0,0,1,3,.9,3.9,3.9,0,0,0,2.8-.1,5.5,5.5,0,0,0,2.3-1.7v.3a9.9,9.9,0,0,0-2.5-2.5,4.8,4.8,0,0,0-3.3-.8,5.4,5.4,0,0,0-3,1.5L5.6,18.5Z" fill="#fff"/><path d="M27.2,19.9a17.1,17.1,0,0,0-1.1-1.4l-1.3-1.2a5.1,5.1,0,0,0-3-1.5,4.6,4.6,0,0,0-3.2.8,8.5,8.5,0,0,0-2.5,2.5v-.3a4.7,4.7,0,0,0,2.2,1.7,4.1,4.1,0,0,0,2.9.1,9.8,9.8,0,0,1,2.9-.9A7.9,7.9,0,0,1,27.2,19.9Zm0,0a10.2,10.2,0,0,0-3,.3,16.1,16.1,0,0,0-2.9.9,5,5,0,0,1-3.2-.1,5.8,5.8,0,0,1-2.5-1.9v-.2h.1a9.6,9.6,0,0,1,2.7-2.6,5.6,5.6,0,0,1,3.6-1,5.9,5.9,0,0,1,3.3,1.7,8.1,8.1,0,0,1,1.2,1.4Z" fill="#fff"/><path d="M15.7,19a16.4,16.4,0,0,0-.4-3.8,9.8,9.8,0,0,0-1.2-3.4l-.6-.8-.6-.7a7.8,7.8,0,0,0-1.5-1,5.1,5.1,0,0,0-1.7-.7L7.9,8.2,8.1,8a10.9,10.9,0,0,0,.2,3.6A8.5,8.5,0,0,0,9.7,15a6.7,6.7,0,0,0,2.6,2.4,12.9,12.9,0,0,0,1.6.9Zm0,0-1.9-.4L12,17.9a9.9,9.9,0,0,1-2.8-2.6,11.4,11.4,0,0,1-1.5-3.6,12,12,0,0,1-.1-3.8V7.6h.2l1.9.4,1.9.7a9.1,9.1,0,0,1,1.6,1.1l.6.8a2.4,2.4,0,0,1,.6.8,11.8,11.8,0,0,1,1.4,3.7A12,12,0,0,1,15.7,19Z" fill="#fff"/><path d="M16,19a12,12,0,0,1-.2-3.8,9.6,9.6,0,0,1,1.3-3.7l.6-.8.7-.8A9.1,9.1,0,0,1,20,8.8a6.7,6.7,0,0,1,1.8-.7l1.9-.4H24v.3a9.7,9.7,0,0,1-.1,3.8,9.3,9.3,0,0,1-1.4,3.6,9.1,9.1,0,0,1-2.9,2.6l-1.7.7Zm0,0,1.8-.6,1.6-1a8.4,8.4,0,0,0,4-5.8A10.9,10.9,0,0,0,23.5,8l.3.2L22,8.6a6.7,6.7,0,0,0-1.8.7,13,13,0,0,0-1.5,1l-.6.7a5.6,5.6,0,0,0-.5.8,8.2,8.2,0,0,0-1.3,3.5A15.4,15.4,0,0,0,16,19Z" fill="#fff"/></svg>