<svg xmlns="http://www.w3.org/2000/svg" width="128" height="128" viewBox="0 0 128 128"><path fill="#fff" d="M63.1 86.7a15 15 0 0 0 9.2-5.6 22.1 22.1 0 0 0 4.2-9.7 38.6 38.6 0 0 0 1.1-10.7 64.9 64.9 0 0 0-1.2-10.8 141.4 141.4 0 0 0-5.8-21.2c-2.5-6.9-5.4-13.6-8.4-20.3h1.9c-3 6.7-5.9 13.4-8.4 20.3a141.4 141.4 0 0 0-5.8 21.2 64.9 64.9 0 0 0-1.2 10.8 38.6 38.6 0 0 0 1.1 10.7 22.1 22.1 0 0 0 4.2 9.7 15.1 15.1 0 0 0 9.1 5.6zm0 0a18.7 18.7 0 0 1-9.7-5.1 22.7 22.7 0 0 1-5.7-9.7 42.9 42.9 0 0 1-1.1-11.3 68.5 68.5 0 0 1 1.2-11.1A131.4 131.4 0 0 1 53.7 28c2.5-6.9 5.4-13.8 8.5-20.5l.9-2.1 1 2.1c3.1 6.7 6 13.6 8.5 20.5a131.4 131.4 0 0 1 5.9 21.5 68.5 68.5 0 0 1 1.2 11.1 42.9 42.9 0 0 1-1.1 11.3 22.7 22.7 0 0 1-5.7 9.7 18.6 18.6 0 0 1-9.8 5.1z"/><path fill="#fff" d="M16.4 120a40.1 40.1 0 0 0 .6-4.1l.9-4.3a63.5 63.5 0 0 1 2.4-8.2l2-3.9c.7-1.2 1.4-2.5 2.2-3.7a32.6 32.6 0 0 1 5.8-6.5 24.5 24.5 0 0 1 7.6-4.6 27.9 27.9 0 0 1 8.6-1.6 35.8 35.8 0 0 1 8.7 1.1 40.2 40.2 0 0 1 8.1 3.2l.7.4-.2.8a29 29 0 0 1-3 7 30.4 30.4 0 0 1-4.7 6 35 35 0 0 1-3 2.4 21.7 21.7 0 0 1-3.3 1.9 27 27 0 0 1-7.3 2.3l-3.6.7-3.4 1-1.7.5-1.7.6-1.7.7-1.7.7a42.7 42.7 0 0 0-12.3 7.6zm0 0a37.3 37.3 0 0 1 5.3-5.2 56 56 0 0 1 6.2-4.2 20.7 20.7 0 0 1 3.4-1.5l1.8-.7 1.8-.6c1.1-.4 2.4-.6 3.6-.9l3.6-.8a21 21 0 0 0 6.7-2.1 18.7 18.7 0 0 0 3.1-1.7 19.4 19.4 0 0 0 2.7-2.3 26.6 26.6 0 0 0 7.2-11.9l.5 1.2a35.4 35.4 0 0 0-7.6-3 28.4 28.4 0 0 0-8.2-1 23.5 23.5 0 0 0-7.9 1.4 23.2 23.2 0 0 0-6.9 4.2 26.3 26.3 0 0 0-5.4 6.1c-.8 1.1-1.5 2.3-2.2 3.5l-1.8 3.8c-.5 1.3-1.2 2.5-1.7 3.8s-1.1 2.6-1.5 3.9l-1.4 3.9c-.4 1.3-.9 2.6-1.3 4.1z"/><path fill="#fff" d="M109.8 119.8a33.7 33.7 0 0 0-1.2-4.1c-.4-1.3-.9-2.7-1.4-4l-1.5-3.9c-.5-1.3-1.3-2.5-1.8-3.8a32.6 32.6 0 0 0-1.8-3.8c-.7-1.1-1.3-2.4-2.1-3.5a26.3 26.3 0 0 0-5.4-6.1 24.6 24.6 0 0 0-6.9-4.2 24.5 24.5 0 0 0-8-1.4 28.1 28.1 0 0 0-8.1 1 33.4 33.4 0 0 0-7.6 3l.5-1.2a25.2 25.2 0 0 0 7.2 12 19.9 19.9 0 0 0 2.7 2.2 17.8 17.8 0 0 0 3 1.7 26.3 26.3 0 0 0 6.7 2.2l3.7.7a24.2 24.2 0 0 1 3.6 1l1.8.5 1.8.7a17.4 17.4 0 0 1 3.4 1.6 42.2 42.2 0 0 1 6.2 4.2 28.4 28.4 0 0 1 5.2 5.2zm0 0a40.5 40.5 0 0 0-12.3-7.7l-1.7-.6-1.6-.7-1.7-.7-1.7-.5-3.5-1-3.5-.7a27 27 0 0 1-7.3-2.3 21.7 21.7 0 0 1-3.3-1.9 35 35 0 0 1-3-2.4 27.5 27.5 0 0 1-4.8-6 31.4 31.4 0 0 1-3-7l-.2-.8.7-.3a31.7 31.7 0 0 1 8.2-3.2 28.1 28.1 0 0 1 8.7-1.1 23.4 23.4 0 0 1 8.6 1.6A25.5 25.5 0 0 1 96 89a32.1 32.1 0 0 1 5.7 6.5 37.3 37.3 0 0 1 2.3 3.7c.7 1.3 1.3 2.6 1.9 3.9a60.9 60.9 0 0 1 2.5 8.3c.3 1.4.6 2.7.8 4.2s.4 2.9.6 4.2z"/><path fill="#fff" d="M-.3 93c.8-1.3 1.6-2.8 2.4-4.4s1.8-2.8 2.8-4.3 2-2.7 3-4.1l1.6-1.9a10.9 10.9 0 0 1 1.8-1.9 46.2 46.2 0 0 1 8.4-6.1 26.5 26.5 0 0 1 9.9-3 26.2 26.2 0 0 1 10.4 1 36 36 0 0 1 9.3 4.4 49.9 49.9 0 0 1 8 6.4 62.6 62.6 0 0 1 6.7 7.8l.4.6-.4.6c-.9 1.2-1.8 2.3-2.8 3.4a29.8 29.8 0 0 1-3.3 2.9 28 28 0 0 1-7.7 4.4 25.3 25.3 0 0 1-8.7 1.6 21.2 21.2 0 0 1-4.4-.4l-2.2-.4-2.1-.6-4.1-1.4-4-1.3-4.1-1.1-2-.4-2.1-.5a46.4 46.4 0 0 0-8.3-1.4L4 92.7a31.1 31.1 0 0 0-4.3.3zm0 0a35.4 35.4 0 0 1 8.5-1.1 50.8 50.8 0 0 1 8.7.5c5.7.7 11.2 2.8 16.5 4.6l2 .6 2 .3a19 19 0 0 0 4.1.4 24.6 24.6 0 0 0 8-1.5 28.4 28.4 0 0 0 12.8-9.9v1.2a57.3 57.3 0 0 0-6.5-7.5 50.2 50.2 0 0 0-7.6-6.2 37 37 0 0 0-8.8-4.1 24.6 24.6 0 0 0-18.7 1.9 28.5 28.5 0 0 0-4.1 2.6l-2 1.5-1.8 1.7-3.6 3.4c-1.1 1.2-2.3 2.4-3.4 3.7l-3.1 3.8c-.9 1.3-2 2.6-3 4.1z"/><path fill="#fff" d="M126.6 93c-1-1.5-2.1-2.8-3-4.1l-3.1-3.8c-1.1-1.3-2.3-2.5-3.4-3.7l-3.6-3.4-1.8-1.7-2-1.5a28.5 28.5 0 0 0-4.1-2.6 24.6 24.6 0 0 0-18.7-1.9 37 37 0 0 0-8.8 4.1 50.2 50.2 0 0 0-7.6 6.2 57.3 57.3 0 0 0-6.5 7.5v-1.2a28.4 28.4 0 0 0 12.8 9.9 24.6 24.6 0 0 0 8 1.5 19 19 0 0 0 4.1-.4l2-.3 2-.6c5.3-1.8 10.8-3.9 16.5-4.6a50.8 50.8 0 0 1 8.7-.5 35.4 35.4 0 0 1 8.5 1.1zm0 0a31.1 31.1 0 0 0-4.3-.3l-4.2.2a46.4 46.4 0 0 0-8.3 1.4l-2.1.5-2 .4-4.1 1.1-4 1.3-4.1 1.4-2.1.6-2.2.4a21.2 21.2 0 0 1-4.4.4 25.3 25.3 0 0 1-8.7-1.6 28 28 0 0 1-7.7-4.4 22.8 22.8 0 0 1-3.3-2.9c-1-1.1-1.9-2.2-2.8-3.4l-.4-.6.4-.6a55.2 55.2 0 0 1 6.7-7.8 49.9 49.9 0 0 1 8-6.4 36 36 0 0 1 9.3-4.4 26.2 26.2 0 0 1 10.4-1 26.5 26.5 0 0 1 9.9 3 46.2 46.2 0 0 1 8.4 6.1 16.6 16.6 0 0 1 1.8 1.9l1.6 1.9c1 1.4 2.1 2.7 3 4.1s1.9 2.8 2.8 4.3 1.6 3.1 2.4 4.4z"/><path fill="#fff" d="M62.3 88a73.7 73.7 0 0 0-1.5-21 51.3 51.3 0 0 0-7-19.5 43.3 43.3 0 0 0-6.6-8.1 45.8 45.8 0 0 0-8.4-6 57.3 57.3 0 0 0-19.9-5.9l1.1-.8a57.7 57.7 0 0 0-.5 10.2 69.2 69.2 0 0 0 1.1 10.2A51.5 51.5 0 0 0 28.4 66a44 44 0 0 0 6.7 7.6l1.9 1.7 2.1 1.6a15.3 15.3 0 0 0 2.1 1.4l2.1 1.4a68.6 68.6 0 0 0 19 8.3zm0 0a65.1 65.1 0 0 1-20-6.5 48.7 48.7 0 0 1-8.6-6.3 45.3 45.3 0 0 1-7-8.1 49.8 49.8 0 0 1-8.1-19.6A61.4 61.4 0 0 1 17.4 37a54.9 54.9 0 0 1 .6-10.7v-1l1 .2a55.5 55.5 0 0 1 20.7 6 46.7 46.7 0 0 1 8.9 6.4 50.6 50.6 0 0 1 6.9 8.4 55.1 55.1 0 0 1 7.3 20.3 65.1 65.1 0 0 1 .5 10.8 62.5 62.5 0 0 1-1 10.6z"/><path fill="#fff" d="M64.1 88.1a76.4 76.4 0 0 1-1.2-10.6 78.1 78.1 0 0 1 .5-10.8 55.1 55.1 0 0 1 7.3-20.3 40.2 40.2 0 0 1 6.9-8.5 47.2 47.2 0 0 1 8.8-6.4 57.6 57.6 0 0 1 20.7-6.1h1v.9a64.1 64.1 0 0 1 .7 10.7 63.7 63.7 0 0 1-1.2 10.6 52.5 52.5 0 0 1-8 19.6 47.4 47.4 0 0 1-15.5 14.3 65.4 65.4 0 0 1-20 6.6zm0 0A67 67 0 0 0 83 79.7a16.4 16.4 0 0 0 2.2-1.4l2.1-1.4 2-1.6a15.4 15.4 0 0 0 1.9-1.7 41.2 41.2 0 0 0 6.7-7.7 49.3 49.3 0 0 0 7.7-18.8 59 59 0 0 0 1.1-10.3 57.7 57.7 0 0 0-.5-10.2l1.1.9a55.2 55.2 0 0 0-19.9 5.9 45 45 0 0 0-8.4 6.1 38.6 38.6 0 0 0-6.5 8 51.9 51.9 0 0 0-7 19.5 78.4 78.4 0 0 0-1.4 21.1z"/></svg>