<svg id="Layer_1" data-name="Layer 1" xmlns="http://www.w3.org/2000/svg" width="32" height="32" viewBox="0 0 32 32"><title>logo-32</title><path d="M11,10.8c.1-.2.1-.5.2-.7l.6-1.7c.2-.5.3-1.1.5-1.6l.6-1.6.6-1.4L14,2.3l.5-1.1.2-.3H15c0,.2-.1.4-.1.6l-.3.9a11.7,11.7,0,0,1-.5,2l-.6,1.9c-.2.7-.3,1.4-.5,2l-.6,2c-.1.2-.1.5-.2.7v.2a5.2,5.2,0,0,1,1.3.6l.5.2.5.5a1.3,1.3,0,0,1,.6.7,2.1,2.1,0,0,1,.5,1.3,3.1,3.1,0,0,1-.1,1l-.3.9-.5.9-.6.5a1.8,1.8,0,0,1-.7.5l-.9.5-1.3.2A3.8,3.8,0,0,1,9.7,19H9.6l-.3,1c-.1.2-.1.5-.2.7l-.6,1.7a5.4,5.4,0,0,0-.4,2.2,2.9,2.9,0,0,0,.2.9A.8.8,0,0,0,9,26a3.3,3.3,0,0,0,1,0,20.8,20.8,0,0,0,3.6-.6l1.5-.3,1-.3h.2l.5-.5a5.6,5.6,0,0,1,.5-.8l.6-.8.5-.7L19,21l.5-.5v-.2L19.1,19a4.3,4.3,0,0,0-.1-.5h-.2l-.8.6-1.1.9h-.3c-.1,0-.2-.1-.1-.2l.3-.5a5.6,5.6,0,0,1,.5-.8l.6-.7a3.3,3.3,0,0,1,1-.6,1.9,1.9,0,0,1,1.3.1c.2.1.3.2.3.4s.1.5.2.7V19a.1.1,0,0,1,.1-.1l.4-.4.6-.6,1.1-.8,1-.5a6,6,0,0,1,1.9-.6,8.8,8.8,0,0,1,2.8-.2,8.4,8.4,0,0,1,2.7.4.9.9,0,0,1,.6.3H32a.1.1,0,0,1-.1.1h-.2a8.3,8.3,0,0,0-3.1-.4l-1.6.2-1.8.5-.9.5-.7.5-.6.5-.5.6-.6.6-.6.7h0c-.1.1-.1.1,0,.3l.4.7.6,1.2a3.1,3.1,0,0,0,.7.9c0,.1.1.1.2.1a16.2,16.2,0,0,1,3.1.2l1.2.4.5.5c0,.1,0,.1.1.2a.9.9,0,0,1-.3.5.9.9,0,0,1-.7.3,3.7,3.7,0,0,1-1.8.1,8.3,8.3,0,0,1-2.1-.6l-.7-.5-.4-.3H22l-1.7.4-2.6.5h-.2l-.6.7a11.4,11.4,0,0,0-1.1,1.1l-.3.2-.8.6-1.7.8a7.7,7.7,0,0,1-2.6.7,6.1,6.1,0,0,1-1.9,0H7.1l-1.3-.4-1.2-.6-1.1-.7a5.2,5.2,0,0,1-1.1-1L1.9,26a2.4,2.4,0,0,1-.6-.9L.7,24a6.5,6.5,0,0,1-.4-1.3c-.1-.3-.1-.6-.2-.8A14.8,14.8,0,0,1,0,19.8a4.1,4.1,0,0,1,.1-1.1,10.3,10.3,0,0,1,.5-2.4l.6-1.2a3.5,3.5,0,0,1,.5-.8l.6-.8c.1-.3.3-.4.5-.6A4.7,4.7,0,0,1,4,12a5.1,5.1,0,0,1,1.6-.9l2.1-.5H9.4l1.5.2Zm-.3.9h-2a13.8,13.8,0,0,0-2,.3,5.4,5.4,0,0,0-1.6,1c-.3.1-.4.3-.6.5A1.8,1.8,0,0,0,4,14l-.6.9a3.5,3.5,0,0,0-.5,1.3,7.4,7.4,0,0,0-.4,1.4,8.6,8.6,0,0,0-.1,1.6v1.5a3.6,3.6,0,0,0,.2,1.1,5,5,0,0,0,.3,1.3,4.5,4.5,0,0,0,.6,1.2,4.7,4.7,0,0,0,.6.9l.5.6,1.2,1,.9.6a6,6,0,0,0,1.9.6l1,.2h.8a2.2,2.2,0,0,0,1.1-.2l.9-.3a3.1,3.1,0,0,0,1-.5h.1l.7-.4.8-.7.2-.2c.1,0,.1-.1.2-.2h-.1l-.8.2-1.6.3-1.5.3-2.3.2a3.7,3.7,0,0,1-1.5-.4,2.2,2.2,0,0,1-.9-.7,2.3,2.3,0,0,1-.4-1.4,8,8,0,0,1,.5-2.1l.6-1.4L8,19.1a1.4,1.4,0,0,1,.2-.6h0l-.3-.2a2.2,2.2,0,0,1-.9-.7,1,1,0,0,1-.4-.5c-.1-.1,0-.1.1-.1H7a.1.1,0,0,1,.1.1l.3.2,1,.6c.1,0,.1,0,.1-.1l.6-1.5a8.8,8.8,0,0,0,.5-1.5,13.4,13.4,0,0,0,.7-1.8A5.6,5.6,0,0,1,10.7,11.7Zm1.2.3c0,.2-.1.3-.1.4l-.6,1.8a12.1,12.1,0,0,0-.5,1.8,5.6,5.6,0,0,0-.4,1.2.6.6,0,0,0-.1.4,1.4,1.4,0,0,0-.2.6h.8l1-.2.7-.3a1.2,1.2,0,0,0,.5-.5,4.1,4.1,0,0,0,.5-.9,3.2,3.2,0,0,0,.4-1.6,1.2,1.2,0,0,0-.3-1.2v-.2a2.7,2.7,0,0,0-.7-.8l-.6-.4Zm8.4,9.7-2,2.7,3.2-.6A7.2,7.2,0,0,1,20.3,21.7Zm3.3,2.5h0l.6.4a2.2,2.2,0,0,0,1.1.5,1.7,1.7,0,0,0,1,.1h.4a.2.2,0,0,0,.1-.4l-.3-.2-.5-.2A6.5,6.5,0,0,0,23.6,24.2Z"/><path d="M12.3,19.7l.3.2,1.2.5h0c.1.1.1.1,0,.1h0L13,21.8l-.3.3h-.3l-1-.6-.5-.3c0-.1-.1-.1,0-.2l.3-.3.3-.3.7-.5A.1.1,0,0,1,12.3,19.7Z"/><path d="M20.2,10.9h.2l.8.6c.1.1.2.1.2.2h0c0,.2-.2.4-.3.6l-.6.5h0c-.1.2-.2.2-.4.1a6,6,0,0,1-.8-.8l-.2-.3h0l.5-.5L20,11Z"/></svg>