<svg xmlns="http://www.w3.org/2000/svg" width="128" height="128" viewBox="0 0 128 128"><path d="M63.4 84a14.5 14.5 0 0 0 9.1-5.7 25.2 25.2 0 0 0 3.9-9.8 41.1 41.1 0 0 0 1-10.5 66.1 66.1 0 0 0-1.2-10.8 121.4 121.4 0 0 0-5.8-21c-2.4-6.9-5.3-13.7-8.3-20.3h2.7c-3.1 6.6-5.9 13.4-8.4 20.3a142.3 142.3 0 0 0-5.8 21A79.3 79.3 0 0 0 49.4 58a37.2 37.2 0 0 0 1.1 10.5 22 22 0 0 0 3.9 9.8 14.3 14.3 0 0 0 9 5.7zm0 0a19.2 19.2 0 0 1-9.8-5 21 21 0 0 1-6-9.7 44.2 44.2 0 0 1-1.2-11.4 83.4 83.4 0 0 1 1.2-11.2 142.5 142.5 0 0 1 6-21.5c2.5-7 5.4-13.9 8.5-20.6l1.3-3 1.4 3c3.1 6.7 6 13.6 8.5 20.6a131.4 131.4 0 0 1 5.9 21.5 69.8 69.8 0 0 1 1.2 11.2 40.1 40.1 0 0 1-1.1 11.4 21.3 21.3 0 0 1-6 9.7 19.1 19.1 0 0 1-9.9 5z"/><path d="M16.7 117.3a40.5 40.5 0 0 0 .5-4.2l.3-2.1.4-2.2a48.7 48.7 0 0 1 2.3-8.3c.7-1.3 1.3-2.6 1.9-3.9s1.5-2.6 2.3-3.8a30.7 30.7 0 0 1 5.9-6.6 28.6 28.6 0 0 1 7.7-4.6 26.3 26.3 0 0 1 8.8-1.6 29.1 29.1 0 0 1 8.8 1.1l4.2 1.3 4 1.9 1 .6-.3 1.1a16.3 16.3 0 0 1-1.3 3.7 35.9 35.9 0 0 1-1.7 3.4 26.3 26.3 0 0 1-4.9 6.1 24.8 24.8 0 0 1-3 2.5 37.2 37.2 0 0 1-3.4 1.9 26.6 26.6 0 0 1-7.4 2.3l-3.5.7-3.4 1-1.7.5-1.7.6-1.6.7-1.7.7a42.4 42.4 0 0 0-12.5 7.2zm0 0a32.6 32.6 0 0 1 5.1-5.4 46.1 46.1 0 0 1 6.2-4.4 21.1 21.1 0 0 1 3.4-1.6l1.8-.6 1.8-.6 3.7-1 3.6-.7a24.2 24.2 0 0 0 6.6-2.1 17.8 17.8 0 0 0 3-1.7 28.8 28.8 0 0 0 2.7-2.2 24.9 24.9 0 0 0 4.3-5.4 30.1 30.1 0 0 0 1.6-3.1c.4-1 .8-2.2 1.1-3.2l.7 1.6a37.6 37.6 0 0 0-7.5-2.9 27 27 0 0 0-8-1 23.3 23.3 0 0 0-7.8 1.4 25.2 25.2 0 0 0-6.8 4.1 30.4 30.4 0 0 0-5.3 6 50.1 50.1 0 0 0-3.9 7.2c-.5 1.3-1.2 2.5-1.8 3.8s-1.1 2.5-1.6 3.8l-.8 2a19.7 19.7 0 0 1-.7 1.9c-.4 1.2-1 2.6-1.4 4.1z"/><path d="M110.1 117.1a38.5 38.5 0 0 0-1.4-4.1c-.2-.6-.5-1.3-.7-2l-.8-1.9-1.6-3.9c-.5-1.3-1.3-2.4-1.8-3.7a41.3 41.3 0 0 0-3.9-7.2 28.4 28.4 0 0 0-5.3-6.1 24.7 24.7 0 0 0-6.8-4.1 25.6 25.6 0 0 0-7.8-1.4 30.8 30.8 0 0 0-8 1 37.6 37.6 0 0 0-7.5 2.9l.7-1.6c.3 1 .7 2.2 1.1 3.2a30.1 30.1 0 0 0 1.6 3.1 28.4 28.4 0 0 0 4.3 5.4 18.6 18.6 0 0 0 2.7 2.2 17.8 17.8 0 0 0 3 1.7 21.2 21.2 0 0 0 6.6 2.1l3.7.7 3.6 1 1.8.6 1.8.7a15 15 0 0 1 3.4 1.6 45.5 45.5 0 0 1 6.2 4.3 37.8 37.8 0 0 1 5.1 5.5zm0 0a40.6 40.6 0 0 0-12.5-7.3l-1.7-.6-1.6-.7-1.7-.7-1.7-.5c-1.1-.4-2.3-.6-3.4-.9l-3.5-.7a26.7 26.7 0 0 1-7.4-2.4 37.2 37.2 0 0 1-3.4-1.9 36.1 36.1 0 0 1-3-2.5 31.4 31.4 0 0 1-4.9-6c-.6-1.2-1.2-2.3-1.7-3.5a20.1 20.1 0 0 1-1.3-3.7l-.3-1.1 1-.5a28.7 28.7 0 0 1 4-1.9 34.5 34.5 0 0 1 4.2-1.4 37.2 37.2 0 0 1 8.8-1.1 29.1 29.1 0 0 1 8.8 1.6 25.8 25.8 0 0 1 7.7 4.6 31.2 31.2 0 0 1 5.9 6.7c.9 1.2 1.5 2.5 2.3 3.7l1.9 3.9a49.8 49.8 0 0 1 2.3 8.4l.4 2.1.3 2.2c.2 1.6.2 2.9.5 4.2z"/><path d="M0 90.3c.8-1.3 1.4-2.8 2.3-4.5l2.6-4.4c.9-1.4 2-2.8 3-4.2l1.6-2a15.3 15.3 0 0 1 1.8-1.8 45.5 45.5 0 0 1 8.4-6.2 30.4 30.4 0 0 1 10.1-3.1 27 27 0 0 1 10.6 1 35.4 35.4 0 0 1 9.4 4.5 51.3 51.3 0 0 1 8.1 6.5 56.8 56.8 0 0 1 6.8 7.8l.6.9-.6.8a33.7 33.7 0 0 1-2.9 3.5 31.7 31.7 0 0 1-3.4 3 29.7 29.7 0 0 1-7.8 4.4 26.3 26.3 0 0 1-8.8 1.6 22.8 22.8 0 0 1-4.5-.4l-2.2-.4-2.2-.6-2.1-.7-2-.7-3.9-1.3-4.1-1.1-2-.4-2.1-.5a74.3 74.3 0 0 0-8.2-1.6l-4.2-.3a30.2 30.2 0 0 0-4.3.2zm0 0a34.3 34.3 0 0 1 8.5-1.4 63.3 63.3 0 0 1 8.7.3l2.2.3 2.1.5 4.2 1.1 4.1 1.4 2.1.7 1.9.6 2 .6 2 .4a26 26 0 0 0 4 .3 23.3 23.3 0 0 0 7.8-1.4 27 27 0 0 0 7-4 19.3 19.3 0 0 0 3-2.7 24.3 24.3 0 0 0 2.6-3v1.6a64.1 64.1 0 0 0-6.4-7.4 49.6 49.6 0 0 0-7.6-6.1 31.5 31.5 0 0 0-8.7-4.1 24.4 24.4 0 0 0-9.3-.9 24.7 24.7 0 0 0-9.1 2.8 45.3 45.3 0 0 0-4 2.6 35.7 35.7 0 0 0-3.7 3.1l-3.6 3.3-3.5 3.6c-1 1.3-2.2 2.6-3.2 3.8S1 88.8 0 90.3z"/><path d="M126.8 90.3a46.4 46.4 0 0 0-3.1-4l-3.2-3.8-3.4-3.6-3.6-3.3a35.7 35.7 0 0 0-3.7-3.1 35.4 35.4 0 0 0-4.1-2.6 24.2 24.2 0 0 0-9-2.8 25.1 25.1 0 0 0-9.4.9 34.4 34.4 0 0 0-8.7 4.1 51.5 51.5 0 0 0-13.9 13.5V84a23.4 23.4 0 0 0 2.5 3 26.1 26.1 0 0 0 3.1 2.7 26.5 26.5 0 0 0 6.9 4 23.5 23.5 0 0 0 7.9 1.4 26.9 26.9 0 0 0 4-.3l2-.4 1.9-.6 2-.6 2-.7 4.1-1.4 4.2-1.1 2.2-.5 2.1-.3a63.3 63.3 0 0 1 8.7-.3 34.3 34.3 0 0 1 8.5 1.4zm0 0a29.5 29.5 0 0 0-4.2-.2l-4.2.3a76 76 0 0 0-8.3 1.6l-2 .5-2.1.4-4 1.1-4 1.3-2 .7-2.1.7-2.1.6-2.2.4a22.8 22.8 0 0 1-4.5.4 26.9 26.9 0 0 1-8.9-1.6 33.3 33.3 0 0 1-7.8-4.4 23.5 23.5 0 0 1-3.3-3 24.5 24.5 0 0 1-2.9-3.5l-.6-.8.6-.9a50.7 50.7 0 0 1 6.8-7.8 50.5 50.5 0 0 1 8-6.5 36 36 0 0 1 9.5-4.5 26.5 26.5 0 0 1 10.5-1 29.7 29.7 0 0 1 10.1 3.1 43.1 43.1 0 0 1 8.5 6.2 14.5 14.5 0 0 1 1.7 1.8l1.7 2 2.9 4.2 2.7 4.4c.8 1.7 1.5 3.2 2.2 4.5z"/><path d="M62.6 85.3a81.8 81.8 0 0 0-1.9-21 52.7 52.7 0 0 0-7-19.3 41.5 41.5 0 0 0-6.5-7.9 40.8 40.8 0 0 0-8.3-6 54.6 54.6 0 0 0-19.8-5.8l1.7-1.2a56 56 0 0 0-.6 10.1 67.8 67.8 0 0 0 1.1 10.1A52.2 52.2 0 0 0 29 63a46.9 46.9 0 0 0 14.8 13.6L46 78l2.2 1.3a49.3 49.3 0 0 0 4.6 2.3l2.4 1 2.4 1zm0 0a67 67 0 0 1-20.3-6.1 44.7 44.7 0 0 1-8.6-6.4 42.1 42.1 0 0 1-7.1-8.1 53.7 53.7 0 0 1-8.2-19.8 63.7 63.7 0 0 1-1.2-10.6 56.4 56.4 0 0 1 .6-10.8l.2-1.4 1.4.2a59.2 59.2 0 0 1 20.9 6.1 47.2 47.2 0 0 1 8.9 6.5 44 44 0 0 1 7 8.5 57.8 57.8 0 0 1 7.5 20.4 99.2 99.2 0 0 1 .3 10.9 64.2 64.2 0 0 1-1.4 10.6z"/><path d="M64.4 85.4A64 64 0 0 1 63 74.7a64.9 64.9 0 0 1 .2-10.8 56.8 56.8 0 0 1 7.4-20.5 47.5 47.5 0 0 1 6.9-8.5 44.9 44.9 0 0 1 9-6.5 58.2 58.2 0 0 1 20.8-6.2h1.4l.2 1.3a56.5 56.5 0 0 1 .7 10.8 62.6 62.6 0 0 1-1.2 10.6 50.7 50.7 0 0 1-8.1 19.8 45.9 45.9 0 0 1-7.1 8.2 49.3 49.3 0 0 1-8.6 6.4 66.6 66.6 0 0 1-20.2 6.1zm0 0l4.9-1.7 2.4-1 2.4-1a49.5 49.5 0 0 0 4.6-2.4l2.2-1.3 2.2-1.4a45.8 45.8 0 0 0 14.7-13.7 50 50 0 0 0 7.7-18.6 70.7 70.7 0 0 0 1.1-10.2A56 56 0 0 0 106 24l1.6 1.2a54.2 54.2 0 0 0-19.7 5.9 45 45 0 0 0-8.3 6 37.6 37.6 0 0 0-6.4 7.9 50.8 50.8 0 0 0-7 19.4 81.7 81.7 0 0 0-1.8 21z"/></svg>