<svg xmlns="http://www.w3.org/2000/svg" width="128" height="128" viewBox="0 0 128 128"><path d="M63.4 84a15 15 0 0 0 9.2-5.6 25.2 25.2 0 0 0 4.2-9.8 37.4 37.4 0 0 0 1-10.6 66 66 0 0 0-1.1-10.9A143.5 143.5 0 0 0 70.9 26c-2.5-6.9-5.4-13.6-8.4-20.3h1.9C61.3 12.4 58.5 19.1 56 26a122.4 122.4 0 0 0-5.8 21.1A66.1 66.1 0 0 0 49 58a41.5 41.5 0 0 0 1 10.6 23.9 23.9 0 0 0 4.3 9.8 15.1 15.1 0 0 0 9.1 5.6zm0 0a18.7 18.7 0 0 1-9.7-5.1 21.8 21.8 0 0 1-5.7-9.7 39.1 39.1 0 0 1-1.1-11.3 68.5 68.5 0 0 1 1.2-11.1A131.4 131.4 0 0 1 54 25.3c2.5-7 5.4-13.8 8.5-20.5l.9-2.1 1 2.1c3 6.7 5.9 13.5 8.4 20.5a142.5 142.5 0 0 1 6 21.5 68.4 68.4 0 0 1 1.1 11.1 42.9 42.9 0 0 1-1 11.3 22.7 22.7 0 0 1-5.7 9.7 18.6 18.6 0 0 1-9.8 5.1z"/><path d="M16.7 117.3a40.1 40.1 0 0 0 .6-4.1c.3-1.5.6-2.9.8-4.3a59.6 59.6 0 0 1 2.5-8.2l1.9-3.9c.8-1.2 1.4-2.5 2.3-3.7a30.2 30.2 0 0 1 5.8-6.6 27.2 27.2 0 0 1 7.5-4.5 29 29 0 0 1 8.7-1.6 37 37 0 0 1 8.7 1.1 40.2 40.2 0 0 1 8.1 3.2l.7.4-.2.8a29 29 0 0 1-3 7 27.5 27.5 0 0 1-4.8 6 33.6 33.6 0 0 1-2.9 2.4 37.2 37.2 0 0 1-3.4 1.9 25.3 25.3 0 0 1-7.2 2.3l-3.6.7-3.5.9-1.7.6-1.6.6-1.7.7-1.7.7a41.4 41.4 0 0 0-12.3 7.6zm0 0a32.7 32.7 0 0 1 5.3-5.2 56 56 0 0 1 6.2-4.2 14.7 14.7 0 0 1 3.4-1.5l1.7-.7 1.8-.6 3.7-1 3.6-.7a22.7 22.7 0 0 0 6.7-2.1 18.7 18.7 0 0 0 3.1-1.7 29.8 29.8 0 0 0 2.7-2.3A26 26 0 0 0 62 85.4l.5 1.1a31.5 31.5 0 0 0-7.6-2.9 31.6 31.6 0 0 0-8.1-1.1 26.3 26.3 0 0 0-7.9 1.5 25.8 25.8 0 0 0-7 4.1 35.9 35.9 0 0 0-5.4 6.2 40.5 40.5 0 0 0-2.1 3.5 26.4 26.4 0 0 0-1.8 3.8c-.5 1.2-1.2 2.5-1.7 3.8s-1.1 2.5-1.6 3.9l-1.3 3.9c-.4 1.3-.9 2.6-1.3 4.1z"/><path d="M110.1 117.1a33.1 33.1 0 0 0-1.3-4.1c-.3-1.3-.9-2.7-1.3-4l-1.6-3.9c-.5-1.3-1.2-2.5-1.7-3.8a32.6 32.6 0 0 0-1.8-3.8 40.5 40.5 0 0 0-2.1-3.5 28.8 28.8 0 0 0-5.4-6.1 23.7 23.7 0 0 0-7-4.2 23.5 23.5 0 0 0-7.9-1.4 27.7 27.7 0 0 0-8.1 1 31.7 31.7 0 0 0-7.6 3l.5-1.2a26.3 26.3 0 0 0 7.1 12 28.8 28.8 0 0 0 2.7 2.2 18.7 18.7 0 0 0 3.1 1.7 26.3 26.3 0 0 0 6.7 2.2l3.7.7 3.6.9 1.8.6 1.7.7a17.5 17.5 0 0 1 3.4 1.5 56 56 0 0 1 6.2 4.2 29.5 29.5 0 0 1 5.3 5.3zm0 0a39.8 39.8 0 0 0-12.3-7.7l-1.7-.6-1.6-.8-1.7-.6-1.7-.5-3.5-1-3.6-.7a26.3 26.3 0 0 1-7.2-2.3 22.7 22.7 0 0 1-3.4-1.9 33.6 33.6 0 0 1-2.9-2.4 27.5 27.5 0 0 1-4.8-6 29 29 0 0 1-3-7l-.2-.8.7-.4a38.8 38.8 0 0 1 8.2-3.2 31.1 31.1 0 0 1 8.6-1 23.5 23.5 0 0 1 8.7 1.6 25 25 0 0 1 7.5 4.5 29.7 29.7 0 0 1 5.8 6.5c.9 1.2 1.5 2.5 2.3 3.7l1.9 3.9a64.1 64.1 0 0 1 2.5 8.2c.2 1.5.6 2.8.8 4.3s.3 2.9.6 4.2z"/><path d="M0 90.3c.8-1.3 1.5-2.8 2.4-4.4l2.7-4.3 3-4.1 1.7-2a15.3 15.3 0 0 1 1.8-1.8 45.5 45.5 0 0 1 8.3-6.1 29.1 29.1 0 0 1 10-3.1 28.2 28.2 0 0 1 10.4 1.1 33 33 0 0 1 9.3 4.4 48.8 48.8 0 0 1 8 6.4 56.1 56.1 0 0 1 6.7 7.8l.4.6-.4.6a30.7 30.7 0 0 1-2.9 3.4l-3.2 2.9a30.8 30.8 0 0 1-7.7 4.4 26.2 26.2 0 0 1-8.7 1.6 31.3 31.3 0 0 1-4.4-.4l-2.2-.4-2.1-.6-4.1-1.4-4-1.3-4.1-1.1-2.1-.4-2-.5a46.4 46.4 0 0 0-8.3-1.4L4.2 90a29.7 29.7 0 0 0-4.2.3zm0 0a30 30 0 0 1 8.5-1.1 49.1 49.1 0 0 1 8.6.5c5.8.7 11.3 2.8 16.6 4.6l2 .6 2 .3a27.1 27.1 0 0 0 4.1.4 24.6 24.6 0 0 0 8-1.5 28.1 28.1 0 0 0 12.7-9.9v1.2a51.4 51.4 0 0 0-6.5-7.5 50.2 50.2 0 0 0-7.6-6.2 37 37 0 0 0-8.8-4.1 26 26 0 0 0-9.6-1 27.4 27.4 0 0 0-9.2 2.9 35.4 35.4 0 0 0-4.1 2.6c-.6.5-1.3.9-1.9 1.5L13 75.3l-3.5 3.4-3.4 3.6L3 86.2c-.9 1.3-2 2.6-3 4.1z"/><path d="M126.8 90.3c-.9-1.5-2-2.8-2.9-4.1l-3.2-3.9-3.3-3.6-3.6-3.4-1.8-1.7a14.9 14.9 0 0 0-2-1.5 35.4 35.4 0 0 0-4.1-2.6 27.4 27.4 0 0 0-9.2-2.9 25.5 25.5 0 0 0-9.5 1 35.3 35.3 0 0 0-8.8 4.1 56.5 56.5 0 0 0-7.7 6.2 57.6 57.6 0 0 0-6.4 7.5v-1.2a28.4 28.4 0 0 0 12.8 9.9 24.1 24.1 0 0 0 8 1.5 29.9 29.9 0 0 0 4.1-.4l2-.3 1.9-.6c5.3-1.8 10.9-3.9 16.6-4.6a50.2 50.2 0 0 1 8.6-.5 30 30 0 0 1 8.5 1.1zm0 0a29.7 29.7 0 0 0-4.2-.3l-4.2.2a49.1 49.1 0 0 0-8.4 1.4l-2 .5-2.1.4-4 1.1-4 1.3-4.1 1.4-2.1.6-2.2.4a34.2 34.2 0 0 1-4.4.4 25.3 25.3 0 0 1-8.7-1.6 32.9 32.9 0 0 1-11-7.3c-1-1.1-2-2.2-2.9-3.4l-.4-.6.5-.6a50.1 50.1 0 0 1 6.7-7.8 48.1 48.1 0 0 1 7.9-6.4 33.6 33.6 0 0 1 9.4-4.4A28 28 0 0 1 97 64.5a29.3 29.3 0 0 1 9.9 3.1 45.5 45.5 0 0 1 8.3 6.1 10.2 10.2 0 0 1 1.8 1.8l1.7 2c1 1.4 2.1 2.7 3 4.1l2.7 4.3c.9 1.6 1.6 3.1 2.4 4.4z"/><path d="M62.6 85.3a77.4 77.4 0 0 0-1.5-21A50.9 50.9 0 0 0 54 44.7a41.4 41.4 0 0 0-6.5-8 49.4 49.4 0 0 0-8.4-6 55.2 55.2 0 0 0-19.9-5.9l1.1-.8a57.7 57.7 0 0 0-.5 10.2 58.9 58.9 0 0 0 1.1 10.2 49.4 49.4 0 0 0 7.8 18.8 41.2 41.2 0 0 0 6.7 7.7 15.4 15.4 0 0 0 1.9 1.7l2 1.6 2.2 1.4 2.1 1.4a71.7 71.7 0 0 0 19 8.3zm0 0a65.1 65.1 0 0 1-20-6.5 48.7 48.7 0 0 1-8.6-6.3 42.1 42.1 0 0 1-7.1-8.1 53.6 53.6 0 0 1-8.1-19.6 75 75 0 0 1-1.2-10.5 64 64 0 0 1 .6-10.7l.2-1h1a58.2 58.2 0 0 1 20.7 6.1 43.1 43.1 0 0 1 8.8 6.4 42.3 42.3 0 0 1 6.9 8.4 55.2 55.2 0 0 1 7.4 20.3 65.1 65.1 0 0 1 .5 10.8 63.5 63.5 0 0 1-1.1 10.7z"/><path d="M64.4 85.4a63.7 63.7 0 0 1-1.2-10.7 64.4 64.4 0 0 1 .5-10.7A54.4 54.4 0 0 1 71 43.7a43 43 0 0 1 6.8-8.5 46.7 46.7 0 0 1 8.9-6.4 57.7 57.7 0 0 1 20.6-6.1l1-.2.2 1a54.9 54.9 0 0 1 .6 10.7 61.3 61.3 0 0 1-1.1 10.5 52.4 52.4 0 0 1-8.1 19.7 41.2 41.2 0 0 1-7 8.1 51.9 51.9 0 0 1-8.5 6.3 65.4 65.4 0 0 1-20 6.6zm0 0A69.9 69.9 0 0 0 83.3 77l2.2-1.4 2.1-1.4 2-1.6a15.4 15.4 0 0 0 1.9-1.7 44.6 44.6 0 0 0 6.7-7.7 49.1 49.1 0 0 0 7.7-18.9 56.9 56.9 0 0 0 1.1-10.2 57.6 57.6 0 0 0-.6-10.2l1.2.9a54.6 54.6 0 0 0-19.9 5.9 41.9 41.9 0 0 0-8.4 6.1 38.6 38.6 0 0 0-6.5 8 51.9 51.9 0 0 0-7 19.5 74.6 74.6 0 0 0-1.4 21.1z"/></svg>