<svg xmlns="http://www.w3.org/2000/svg" id="Layer_1" width="3in" height="3in" viewBox="0 0 216 216"><path d="M24.3 135.3a9.5 9.5 0 0 0 2.9-2.3c1.1-1.1 2.2-2.2 3.2-3.4a29.8 29.8 0 0 0 2.3-2.7l1.3-1.5 1.7-2.2.6-.7 2.8-3.8 1.2-1.6c.8-1.3 1.8-2.5 2.6-3.8l2.7-4.5 1.8-3 2.1-3.8c1.2-2.3 2.4-4.6 3.7-6.9a9.9 9.9 0 0 1 1.1-1.7 1 1 0 0 1 .8-.5h3.3a17.6 17.6 0 0 1 4.9 1.6c1.9 1 1.7 1.1.8 2.7s-.9 2-1.4 2.9-1.7 4.2-2.6 6.3a17.8 17.8 0 0 0-.9 3.3c-.3.9-.6 1.9-.8 2.8s-.7 4.1-.9 6.1-.2 4.1-.2 6.1.2 3 .3 4.5a21.2 21.2 0 0 0 1.3 5.1 14 14 0 0 0 2.4 4.5.8.8 0 0 0 1.1.1l2.5-1.6a7.3 7.3 0 0 0 1.8-1.7 59.8 59.8 0 0 0 3.9-4.9c1.1-1.6 2-3.4 3-5.1a53.3 53.3 0 0 0 3.9-8.4 27.5 27.5 0 0 0 1.7-4.5c.7-2.4 1.5-4.7 2.1-7a50.3 50.3 0 0 0 1.6-6.7c.4-1.6.7-3.2 1-4.9s.1-1.1.2-1.6.4-2.2.4-3.3a52.8 52.8 0 0 0-.1-5.6 13.1 13.1 0 0 0-1-3.2.9.9 0 0 0-1.1-.7c-1.7.3-3.5.5-5.2.9L71.4 82l-2.2.7v-.6a6.7 6.7 0 0 1 3.5-4.1 13.7 13.7 0 0 1 8.4-1.4 23.9 23.9 0 0 1 4.6 1.2 18.3 18.3 0 0 1 5 2.6 8.4 8.4 0 0 1 3.8 5.7 28.2 28.2 0 0 1 .2 8.7c-.2 1.3-.3 2.6-.5 3.9a7.6 7.6 0 0 1-.3 1.6l-.6 3.4-.9 3.3c-.7 2.8-1.4 5.6-2.3 8.3s-2.2 6.1-3.3 9.2c-.3.8-.8 1.6-1.2 2.5s-.8 1.9-1.3 2.8a44.8 44.8 0 0 1-2.8 4.7 41.2 41.2 0 0 1-3.8 4.7 13.2 13.2 0 0 1-3.6 2.6 12.4 12.4 0 0 1-7 1.7 24.3 24.3 0 0 1-6-.5 23.8 23.8 0 0 1-8.7-3.1 11.6 11.6 0 0 1-2.9-2.5 13.5 13.5 0 0 1-1.5-2.6 23.8 23.8 0 0 1-1.8-5.1c-.3-1.3-.3-2.6-.5-3.8s-.1-.5-.1-.8l-.7.8c-2 2.3-3.9 4.7-6.1 6.9a46.4 46.4 0 0 1-4 3.6 17.8 17.8 0 0 1-5.7 3.2 17.1 17.1 0 0 1-5 1h-5c-1.8.1-3.3-.7-4.9-1.3a3.6 3.6 0 0 1-1-1.1 5.5 5.5 0 0 1-1.3-2.9 15.3 15.3 0 0 1-.3-5.2l.3-2.6c.1-1 .3-2.1.5-3.2a.9.9 0 0 1 .1-.5 35.9 35.9 0 0 0 1.2-4.7c.5-1.9 1.2-3.7 1.8-5.6s.5-1.9.9-2.9.9-2.7 1.3-4.1l1.4-3.5a.4.4 0 0 1-.1-.3l-.6.2c-1.3.6-2.7 1.4-4 1.9a24.9 24.9 0 0 1-3.7.9 16.7 16.7 0 0 1-6.3-.1 10.9 10.9 0 0 1-3.1-.8c-.5-.2-1-.5-.9-1.2a1.2 1.2 0 0 1 1-1.3 4.1 4.1 0 0 1 1.9-.1.7.7 0 0 1 .7.8c0 .7.4.9.9 1.1a3.6 3.6 0 0 0 3.5-.3 27.6 27.6 0 0 0 5.8-3.8c1.4-1.2 2.5-2.6 3.8-3.8a35.7 35.7 0 0 0 4-4.6c1.2-1.4 2.3-2.9 3.5-4.5l2.4-3.1c.6-1 1.1-2 1.6-3l1.7-3 3-4.9 1.4-2.2a1.9 1.9 0 0 1 2.4-1.1 13.8 13.8 0 0 1 2.9.8 24.2 24.2 0 0 1 3.6 1.8c1 .6 1 .8.5 1.8s-2 4-3.1 5.9l-2.4 4.5c-1.2 2.4-2.3 4.9-3.5 7.3l-2.8 6c-1 2.2-1.9 4.4-2.8 6.6s-1.3 3.3-1.9 5-1.5 4.3-2.1 6.5-.9 4-1.3 5.9c-.1.2 0 .3-.1.4a25.7 25.7 0 0 0-.8 4.7c0 1.2-.3 2.4-.4 3.6s0 2.4.1 3.5a2.8 2.8 0 0 0 .4 1.2zm129.7-39h-.8l-3.8.5a1.6 1.6 0 0 0-.9.5c-1.1 1.5-2.2 2.9-3.4 4.3l-2.5 2.6c-.7.7-1.6 1.4-2.3 2.2a17 17 0 0 1-3.4 2.6l-1 .7a1.8 1.8 0 0 0-1 1.6c-.2 1.5-.7 3.1-1 4.6a33.2 33.2 0 0 1-2.9 7.6c-.6 1.3-1.3 2.4-2 3.6s-1.7 2.7-2.7 4a22.3 22.3 0 0 1-1.9 2.4l-.9 1-1.6 1.7-2.3 2.1a18.3 18.3 0 0 1-4.4 2.8 12.8 12.8 0 0 1-5.1 1.3 35.7 35.7 0 0 1-4.6-.4c-2.8-.4-5.2-1.7-7.7-2.9a11.8 11.8 0 0 1-2.7-2.3 20.4 20.4 0 0 1-2.7-6 26.6 26.6 0 0 1-.7-8.9 17 17 0 0 1 .6-3.1c.2-1 .4-2 .7-3a24.1 24.1 0 0 1 2.5-5.7 41.2 41.2 0 0 1 3.9-6 21.3 21.3 0 0 1 5.7-5.5 8.1 8.1 0 0 1 1.8-1 9.8 9.8 0 0 0 3-1.7 12.4 12.4 0 0 1 6.1-2.1l1.6-.2a20.9 20.9 0 0 1 6.1.8 20.2 20.2 0 0 1 6.5 3 8.9 8.9 0 0 1 3.3 3.1c0 .2.2.3.4.4 2.5-1.9 4-4.6 6-7.1l-.6-.4a29.6 29.6 0 0 1-5.1-4.9c-1.5-1.9-1-3.5.6-4.6s6.5-2.8 10-1.1a16.6 16.6 0 0 1 5.4 3.8 4.6 4.6 0 0 1 1.3 2.6v.4a19.6 19.6 0 0 1 10.6 4.6 9.6 9.6 0 0 1 2.3 2.6 7.7 7.7 0 0 1 .7 2.6 20.9 20.9 0 0 1-.2 5.6 52.3 52.3 0 0 1-1.2 5.4c-.5 1.3-.9 2.7-1.3 4.1s-.8 3-1.3 4.5l-.3 1-.9 2.9c-.1.4-.3.7-.4 1.1s-1.3 3.3-1.7 5a20.8 20.8 0 0 1-1.2 3.2c-.4 1.3-.9 2.5-1.3 3.7s-1.6 3.6-3.5 4.5a2.5 2.5 0 0 1-1.9.2 7.7 7.7 0 0 1-4.6-4.4 9 9 0 0 1-.3-1.6 48.2 48.2 0 0 1 0-7.6c.1-1.6.5-3.2.7-4.7a15.7 15.7 0 0 1 .8-3.1c.4-1.2.5-2.4.8-3.6s.8-2.5 1.2-3.7.1-.5.2-.8a1.1 1.1 0 0 1 .1-.5 21 21 0 0 0 1.5-4.2c0-.1.1-.1.1-.2s1.1-3.3 2-4.8a3.6 3.6 0 0 0 .4-1.1 13.2 13.2 0 0 0 1.2-4zm-48.4 13.8c-.1.1-.2.1-.2.3s-1.4 2.9-2 4.5a21.9 21.9 0 0 0-1.4 5c-.1 1.1-.2 2.2-.4 3.3a16.3 16.3 0 0 0-.2 4.4c0 1 .2 2.1.3 3.1a17.4 17.4 0 0 0 2 6.7c.3.6.4.6 1 .4a21.3 21.3 0 0 0 5.3-3 17.1 17.1 0 0 0 2.5-2.2 54.5 54.5 0 0 0 4.6-5 65.8 65.8 0 0 0 4.2-6.1 47.8 47.8 0 0 0 3.2-6.4v-.5c-7 1.4-13.4.4-18.9-4.5zm9.1-9.3l-.4.2a8.9 8.9 0 0 0-1.8 3.3 8.6 8.6 0 0 0-.3 5 9.5 9.5 0 0 0 .9 2.1.7.7 0 0 0 .9.4l1.7-.4a51.5 51.5 0 0 0 5.6-1.6 36.7 36.7 0 0 0 4.8-2.5.5.5 0 0 0 .3-.5 18.9 18.9 0 0 0-.1-5.8 10.8 10.8 0 0 0-1.1-3 1.1 1.1 0 0 0-1.1-.8 14.5 14.5 0 0 0-5.5 1 23.9 23.9 0 0 0-2.2 1.2c.2.2.2.3.3.3a8.3 8.3 0 0 1 2.5 4.8c.2 1 .1 2.1.2 3.1a.8.8 0 0 1-.6.8c-.5.1-.7-.2-.9-.6s-.1-.3-.2-.5l-1.5-4.2a11.4 11.4 0 0 0-1.5-2.3zm28.6-14.2a5.2 5.2 0 0 0-4 2c-.2.4-.5.9-.1 1.3a4.7 4.7 0 0 0 1.9 1.8 12.2 12.2 0 0 0 2.2-5.1zm37.4 24l4.8-2.7 6.9-4.6c1.5-1.1 2.9-2.4 4.4-3.6a30 30 0 0 0 4.6-4.8 41.5 41.5 0 0 0 2.4-3.4l.3-.3a4.2 4.2 0 0 1 3.2 3.1 3.7 3.7 0 0 1-.7 2.3 41.8 41.8 0 0 1-6.8 8.4 50.7 50.7 0 0 1-6.6 5.5c-1.5 1.1-3.2 2-4.8 3l-3.1 1.7-.6.5 3 1.3a38.9 38.9 0 0 1 5.4 2.7l4.2 2.1a58.9 58.9 0 0 1 6.4 3.7 33.4 33.4 0 0 1 4.8 3.6 32.6 32.6 0 0 1 4.1 4.2 34 34 0 0 1 2.8 4.5 3.8 3.8 0 0 1 .4 3.1 17 17 0 0 1-4.4-.8 13 13 0 0 1-5.4-3.8l-4.4-4.6-2.7-3.1-2.1-2-3.1-2.5c-1.3-1.1-2.7-2-4.1-3l-4.4-2.7-2.7-1.3a1.2 1.2 0 0 0-1.3.1h-.1c-1.4.2-1.5 1.3-1.6 2.4a55.8 55.8 0 0 1-1 5.9c0 .1-.1.2-.1.4a40.4 40.4 0 0 1-.8 4.6 31.4 31.4 0 0 1-1.2 5.1c-.4 1-.8 2.1-1.3 3.1a5.1 5.1 0 0 1-1.3 1.6 3 3 0 0 1-1.6.5 10.2 10.2 0 0 1-4.5-.8 2.2 2.2 0 0 1-1.4-1.7 21.2 21.2 0 0 1-.5-4.4c0-2.4.2-4.7.4-7a56.2 56.2 0 0 1 .9-5.7c.2-1.2.5-2.4.7-3.6a.9.9 0 0 0-.1-.9.8.8 0 0 1 .1-1.1 1.7 1.7 0 0 0 .7-1.4l.3-1.7.3-1.2c.4-1.6.7-3.1 1.1-4.7l.9-4.4a5.3 5.3 0 0 0 .3-1.2 85.6 85.6 0 0 1 2.3-8.7l3-9a33.6 33.6 0 0 1 3-6 14.2 14.2 0 0 1 2-2.8 1.4 1.4 0 0 1 1.6-.3l.8.5a1.9 1.9 0 0 1 1.1 2.4l-1.2 5.8c-.3 1.6-.6 3.3-.8 4.9s-.6 3.4-.8 5.1-.3 3.5-.5 5.2l-.3 3.3a6.2 6.2 0 0 0-.1 1.3 19.4 19.4 0 0 1-.2 2.4c-.1 1.4-.3 2.8-.4 4.2a12.3 12.3 0 0 0-.2 1.3z"/></svg>